solid OpenSCAD_Model
  facet normal -0.495722 0.858616 0.130526
    outer loop
      vertex -13.8481 43.9663 7.5
      vertex -13.7203 43.745 9.44114
      vertex -11.25 45.4663 7.5
    endloop
  endfacet
  facet normal -0.495722 0.858616 0.130526
    outer loop
      vertex -11.25 45.4663 7.5
      vertex -13.7203 43.745 9.44114
      vertex -11.1222 45.245 9.44114
    endloop
  endfacet
  facet normal -0.866025 -0.5 5.55112e-17
    outer loop
      vertex -13.8481 43.9663 7.5
      vertex -13.7203 43.745 5.55886
      vertex -13.7203 43.745 9.44114
    endloop
  endfacet
  facet normal -0.866025 -0.5 5.55112e-17
    outer loop
      vertex -13.7203 43.745 9.44114
      vertex -13.7203 43.745 5.55886
      vertex -13.3457 43.0961 3.75
    endloop
  endfacet
  facet normal -0.866025 -0.5 5.55112e-17
    outer loop
      vertex -13.7203 43.745 9.44114
      vertex -13.3457 43.0961 3.75
      vertex -12.7497 42.0639 2.1967
    endloop
  endfacet
  facet normal -0.866025 -0.5 5.55112e-17
    outer loop
      vertex -13.7203 43.745 9.44114
      vertex -12.7497 42.0639 2.1967
      vertex -11.9731 40.7187 1.00481
    endloop
  endfacet
  facet normal -0.866025 -0.5 5.55112e-17
    outer loop
      vertex -13.7203 43.745 9.44114
      vertex -11.9731 40.7187 1.00481
      vertex -11.0686 39.1522 0.255556
    endloop
  endfacet
  facet normal -0.866025 -0.5 5.55112e-17
    outer loop
      vertex -13.7203 43.745 9.44114
      vertex -11.0686 39.1522 0.255556
      vertex -10.0981 37.4711 0
    endloop
  endfacet
  facet normal -0.866025 -0.5 5.55112e-17
    outer loop
      vertex -8.77551 35.1804 5.20799
      vertex -10.0981 37.4711 0
      vertex -1.44227 22.4788 0
    endloop
  endfacet
  facet normal -0.866025 -0.5 5.55112e-17
    outer loop
      vertex -8.36589 34.4709 7.0019
      vertex -1.44227 22.4788 0
      vertex -1.44227 22.4788 15
    endloop
  endfacet
  facet normal -0.866025 -0.5 5.55112e-17
    outer loop
      vertex -8.77551 35.1804 5.20799
      vertex -1.44227 22.4788 0
      vertex -8.36589 34.4709 7.0019
    endloop
  endfacet
  facet normal -0.866025 -0.5 5.55112e-17
    outer loop
      vertex -9.60504 36.6172 4.14177
      vertex -10.0981 37.4711 0
      vertex -8.77551 35.1804 5.20799
    endloop
  endfacet
  facet normal -0.866025 -0.5 5.55112e-17
    outer loop
      vertex -11.8303 40.4714 7.0019
      vertex -13.7203 43.745 9.44114
      vertex -11.4206 39.7619 5.20799
    endloop
  endfacet
  facet normal -0.866025 -0.5 5.55112e-17
    outer loop
      vertex -10.5911 38.3251 4.14177
      vertex -10.0981 37.4711 0
      vertex -9.60504 36.6172 4.14177
    endloop
  endfacet
  facet normal -0.866025 -0.5 5.55112e-17
    outer loop
      vertex -11.4206 39.7619 5.20799
      vertex -10.0981 37.4711 0
      vertex -10.5911 38.3251 4.14177
    endloop
  endfacet
  facet normal -0.866025 -0.5 5.55112e-17
    outer loop
      vertex -13.7203 43.745 9.44114
      vertex -10.0981 37.4711 0
      vertex -11.4206 39.7619 5.20799
    endloop
  endfacet
  facet normal -0.866025 -0.5 5.55112e-17
    outer loop
      vertex -11.8303 40.4714 14.1135
      vertex -13.7203 43.745 9.44114
      vertex -11.8303 40.4714 7.0019
    endloop
  endfacet
  facet normal -0.866025 -0.5 5.55112e-17
    outer loop
      vertex -13.7203 43.745 9.44114
      vertex -11.8303 40.4714 14.1135
      vertex -11.9731 40.7187 13.9952
    endloop
  endfacet
  facet normal -0.866025 -0.5 5.55112e-17
    outer loop
      vertex -13.7203 43.745 9.44114
      vertex -11.9731 40.7187 13.9952
      vertex -12.7497 42.0639 12.8033
    endloop
  endfacet
  facet normal -0.866025 -0.5 5.55112e-17
    outer loop
      vertex -13.7203 43.745 9.44114
      vertex -12.7497 42.0639 12.8033
      vertex -13.3457 43.0961 11.25
    endloop
  endfacet
  facet normal -0.866025 -0.5 5.55112e-17
    outer loop
      vertex -8.36589 34.4709 7.0019
      vertex -1.44227 22.4788 15
      vertex -8.36589 34.4709 15
    endloop
  endfacet
  facet normal -0.495722 0.858616 -0.130526
    outer loop
      vertex -13.8481 43.9663 7.5
      vertex -11.25 45.4663 7.5
      vertex -13.7203 43.745 5.55886
    endloop
  endfacet
  facet normal -0.495722 0.858616 -0.130526
    outer loop
      vertex -13.7203 43.745 5.55886
      vertex -11.25 45.4663 7.5
      vertex -11.1222 45.245 5.55886
    endloop
  endfacet
  facet normal 0.866025 0.5 -5.55112e-17
    outer loop
      vertex -11.1222 45.245 5.55886
      vertex -11.25 45.4663 7.5
      vertex -11.1222 45.245 9.44114
    endloop
  endfacet
  facet normal 0.866025 0.5 -5.55112e-17
    outer loop
      vertex -10.1517 43.5639 12.8033
      vertex -11.1222 45.245 5.55886
      vertex -10.7476 44.5961 11.25
    endloop
  endfacet
  facet normal 0.866025 0.5 -5.55112e-17
    outer loop
      vertex -10.7476 44.5961 11.25
      vertex -11.1222 45.245 5.55886
      vertex -11.1222 45.245 9.44114
    endloop
  endfacet
  facet normal 0.866025 0.5 -5.55112e-17
    outer loop
      vertex -9.375 42.2187 13.9952
      vertex -11.1222 45.245 5.55886
      vertex -10.1517 43.5639 12.8033
    endloop
  endfacet
  facet normal 0.866025 0.5 -5.55112e-17
    outer loop
      vertex -9.23219 41.9714 14.1135
      vertex -11.1222 45.245 5.55886
      vertex -9.375 42.2187 13.9952
    endloop
  endfacet
  facet normal 0.866025 0.5 -5.55112e-17
    outer loop
      vertex -9.23219 41.9714 7.0019
      vertex -11.1222 45.245 5.55886
      vertex -9.23219 41.9714 14.1135
    endloop
  endfacet
  facet normal 0.866025 0.5 -5.55112e-17
    outer loop
      vertex -8.82256 41.2619 5.20799
      vertex -11.1222 45.245 5.55886
      vertex -9.23219 41.9714 7.0019
    endloop
  endfacet
  facet normal 0.866025 0.5 -5.55112e-17
    outer loop
      vertex -7.99303 39.8251 4.14177
      vertex -11.1222 45.245 5.55886
      vertex -8.82256 41.2619 5.20799
    endloop
  endfacet
  facet normal 0.866025 0.5 -5.55112e-17
    outer loop
      vertex -7.5 38.9711 0
      vertex -11.1222 45.245 5.55886
      vertex -7.99303 39.8251 4.14177
    endloop
  endfacet
  facet normal 0.866025 0.5 -5.55112e-17
    outer loop
      vertex 1.80572 22.8532 0
      vertex -7.99303 39.8251 4.14177
      vertex -7.00697 38.1172 4.14177
    endloop
  endfacet
  facet normal 0.866025 0.5 -5.55112e-17
    outer loop
      vertex 1.80572 22.8532 15
      vertex -7.00697 38.1172 4.14177
      vertex -6.17744 36.6804 5.20799
    endloop
  endfacet
  facet normal 0.866025 0.5 -5.55112e-17
    outer loop
      vertex 1.80572 22.8532 15
      vertex -6.17744 36.6804 5.20799
      vertex -5.76781 35.9709 7.0019
    endloop
  endfacet
  facet normal 0.866025 0.5 -5.55112e-17
    outer loop
      vertex 1.80572 22.8532 15
      vertex -5.76781 35.9709 7.0019
      vertex -5.76781 35.9709 15
    endloop
  endfacet
  facet normal 0.866025 0.5 -5.55112e-17
    outer loop
      vertex 1.80572 22.8532 0
      vertex -7.00697 38.1172 4.14177
      vertex 1.80572 22.8532 15
    endloop
  endfacet
  facet normal 0.866025 0.5 -5.55112e-17
    outer loop
      vertex -7.5 38.9711 0
      vertex -7.99303 39.8251 4.14177
      vertex 1.80572 22.8532 0
    endloop
  endfacet
  facet normal 0.866025 0.5 -5.55112e-17
    outer loop
      vertex -8.47057 40.6522 0.255556
      vertex -11.1222 45.245 5.55886
      vertex -7.5 38.9711 0
    endloop
  endfacet
  facet normal 0.866025 0.5 -5.55112e-17
    outer loop
      vertex -9.375 42.2187 1.00481
      vertex -11.1222 45.245 5.55886
      vertex -8.47057 40.6522 0.255556
    endloop
  endfacet
  facet normal 0.866025 0.5 -5.55112e-17
    outer loop
      vertex -10.1517 43.5639 2.1967
      vertex -11.1222 45.245 5.55886
      vertex -9.375 42.2187 1.00481
    endloop
  endfacet
  facet normal 0.866025 0.5 -5.55112e-17
    outer loop
      vertex -10.7476 44.5961 3.75
      vertex -11.1222 45.245 5.55886
      vertex -10.1517 43.5639 2.1967
    endloop
  endfacet
  facet normal -0.46194 0.800103 0.382683
    outer loop
      vertex -13.7203 43.745 9.44114
      vertex -13.3457 43.0961 11.25
      vertex -11.1222 45.245 9.44114
    endloop
  endfacet
  facet normal -0.46194 0.800103 0.382683
    outer loop
      vertex -11.1222 45.245 9.44114
      vertex -13.3457 43.0961 11.25
      vertex -10.7476 44.5961 11.25
    endloop
  endfacet
  facet normal -0.396677 0.687064 0.608762
    outer loop
      vertex -13.3457 43.0961 11.25
      vertex -12.7497 42.0639 12.8033
      vertex -10.7476 44.5961 11.25
    endloop
  endfacet
  facet normal -0.396677 0.687064 0.608762
    outer loop
      vertex -10.7476 44.5961 11.25
      vertex -12.7497 42.0639 12.8033
      vertex -10.1517 43.5639 12.8033
    endloop
  endfacet
  facet normal -0.304381 0.527203 0.793353
    outer loop
      vertex -10.1517 43.5639 12.8033
      vertex -12.7497 42.0639 12.8033
      vertex -11.9731 40.7187 13.9952
    endloop
  endfacet
  facet normal -0.304381 0.527203 0.793353
    outer loop
      vertex -9.375 42.2187 13.9952
      vertex -10.1517 43.5639 12.8033
      vertex -11.9731 40.7187 13.9952
    endloop
  endfacet
  facet normal -0.191342 0.331414 0.92388
    outer loop
      vertex -9.375 42.2187 13.9952
      vertex -11.9731 40.7187 13.9952
      vertex -11.8303 40.4714 14.1135
    endloop
  endfacet
  facet normal -0.191342 0.331414 0.92388
    outer loop
      vertex -9.23219 41.9714 14.1135
      vertex -9.375 42.2187 13.9952
      vertex -11.8303 40.4714 14.1135
    endloop
  endfacet
  facet normal 0.5 -0.866025 9.61481e-17
    outer loop
      vertex -9.23219 41.9714 7.0019
      vertex -9.23219 41.9714 14.1135
      vertex -11.8303 40.4714 14.1135
    endloop
  endfacet
  facet normal 0.5 -0.866025 9.61481e-17
    outer loop
      vertex -11.8303 40.4714 7.0019
      vertex -9.23219 41.9714 7.0019
      vertex -11.8303 40.4714 14.1135
    endloop
  endfacet
  facet normal 0.454816 -0.787765 0.415415
    outer loop
      vertex -11.4206 39.7619 5.20799
      vertex -8.82256 41.2619 5.20799
      vertex -9.23219 41.9714 7.0019
    endloop
  endfacet
  facet normal 0.454816 -0.787765 0.415415
    outer loop
      vertex -11.8303 40.4714 7.0019
      vertex -11.4206 39.7619 5.20799
      vertex -9.23219 41.9714 7.0019
    endloop
  endfacet
  facet normal 0.27032 -0.468208 0.841254
    outer loop
      vertex -10.5911 38.3251 4.14177
      vertex -7.99303 39.8251 4.14177
      vertex -8.82256 41.2619 5.20799
    endloop
  endfacet
  facet normal 0.27032 -0.468208 0.841254
    outer loop
      vertex -11.4206 39.7619 5.20799
      vertex -10.5911 38.3251 4.14177
      vertex -8.82256 41.2619 5.20799
    endloop
  endfacet
  facet normal 0 0 1
    outer loop
      vertex -9.60504 36.6172 4.14177
      vertex -7.00697 38.1172 4.14177
      vertex -7.99303 39.8251 4.14177
    endloop
  endfacet
  facet normal 0 0 1
    outer loop
      vertex -10.5911 38.3251 4.14177
      vertex -9.60504 36.6172 4.14177
      vertex -7.99303 39.8251 4.14177
    endloop
  endfacet
  facet normal -0.27032 0.468208 0.841254
    outer loop
      vertex -8.77551 35.1804 5.20799
      vertex -6.17744 36.6804 5.20799
      vertex -7.00697 38.1172 4.14177
    endloop
  endfacet
  facet normal -0.27032 0.468208 0.841254
    outer loop
      vertex -9.60504 36.6172 4.14177
      vertex -8.77551 35.1804 5.20799
      vertex -7.00697 38.1172 4.14177
    endloop
  endfacet
  facet normal -0.454816 0.787765 0.415415
    outer loop
      vertex -5.76781 35.9709 7.0019
      vertex -6.17744 36.6804 5.20799
      vertex -8.36589 34.4709 7.0019
    endloop
  endfacet
  facet normal -0.454816 0.787765 0.415415
    outer loop
      vertex -8.36589 34.4709 7.0019
      vertex -6.17744 36.6804 5.20799
      vertex -8.77551 35.1804 5.20799
    endloop
  endfacet
  facet normal -0.5 0.866025 -9.61481e-17
    outer loop
      vertex -5.76781 35.9709 15
      vertex -5.76781 35.9709 7.0019
      vertex -8.36589 34.4709 15
    endloop
  endfacet
  facet normal -0.5 0.866025 -9.61481e-17
    outer loop
      vertex -8.36589 34.4709 15
      vertex -5.76781 35.9709 7.0019
      vertex -8.36589 34.4709 7.0019
    endloop
  endfacet
  facet normal 0 0 1
    outer loop
      vertex -2.42705 21.7634 15
      vertex -3 20 15
      vertex -1.44227 22.4788 15
    endloop
  endfacet
  facet normal 0 0 1
    outer loop
      vertex -5.76781 35.9709 15
      vertex -8.36589 34.4709 15
      vertex -1.44227 22.4788 15
    endloop
  endfacet
  facet normal 0 0 1
    outer loop
      vertex 0 20 15
      vertex -5.76781 35.9709 15
      vertex -1.44227 22.4788 15
    endloop
  endfacet
  facet normal 0 0 1
    outer loop
      vertex -3 20 15
      vertex -3 -9 15
      vertex -1.44227 22.4788 15
    endloop
  endfacet
  facet normal 0 0 1
    outer loop
      vertex -3 -9 15
      vertex -2.42705 -10.7634 15
      vertex -1.44227 22.4788 15
    endloop
  endfacet
  facet normal 0 0 1
    outer loop
      vertex -2.42705 -10.7634 15
      vertex -0.927051 -11.8532 15
      vertex -1.44227 22.4788 15
    endloop
  endfacet
  facet normal 0 0 1
    outer loop
      vertex 0 0 15
      vertex 0 20 15
      vertex -1.44227 22.4788 15
    endloop
  endfacet
  facet normal 0 0 1
    outer loop
      vertex 20 0 15
      vertex 20.9271 -11.8532 15
      vertex 20 20 15
    endloop
  endfacet
  facet normal 0 0 1
    outer loop
      vertex -0.927051 -11.8532 15
      vertex 0 0 15
      vertex -1.44227 22.4788 15
    endloop
  endfacet
  facet normal 0 0 1
    outer loop
      vertex -0.927051 -11.8532 15
      vertex 1.5 -11.8532 15
      vertex 0 0 15
    endloop
  endfacet
  facet normal 0 0 1
    outer loop
      vertex 20.9271 22.8532 15
      vertex 23 20 15
      vertex 22.4271 21.7634 15
    endloop
  endfacet
  facet normal 0 0 1
    outer loop
      vertex 18.5 -11.8532 15
      vertex 20.9271 -11.8532 15
      vertex 20 0 15
    endloop
  endfacet
  facet normal 0 0 1
    outer loop
      vertex 20.9271 -11.8532 15
      vertex 22.4271 -10.7634 15
      vertex 20 20 15
    endloop
  endfacet
  facet normal 0 0 1
    outer loop
      vertex 22.4271 -10.7634 15
      vertex 23 -9 15
      vertex 20 20 15
    endloop
  endfacet
  facet normal 0 0 1
    outer loop
      vertex 23 -9 15
      vertex 23 20 15
      vertex 20 20 15
    endloop
  endfacet
  facet normal 0 0 1
    outer loop
      vertex 0 20 15
      vertex 1.80572 22.8532 15
      vertex -5.76781 35.9709 15
    endloop
  endfacet
  facet normal 0 0 1
    outer loop
      vertex 0 20 15
      vertex 20 20 15
      vertex 1.80572 22.8532 15
    endloop
  endfacet
  facet normal 0 0 1
    outer loop
      vertex 18.5 0 15
      vertex 18.5 -11.8532 15
      vertex 20 0 15
    endloop
  endfacet
  facet normal 0 0 1
    outer loop
      vertex 1.5 0 15
      vertex 0 0 15
      vertex 1.5 -11.8532 15
    endloop
  endfacet
  facet normal 0 0 1
    outer loop
      vertex 20.9271 22.8532 15
      vertex 20 20 15
      vertex 23 20 15
    endloop
  endfacet
  facet normal 0 0 1
    outer loop
      vertex 20.9271 22.8532 15
      vertex 1.80572 22.8532 15
      vertex 20 20 15
    endloop
  endfacet
  facet normal -0.587785 0.809017 0
    outer loop
      vertex -2.42705 21.7634 0
      vertex -2.42705 21.7634 15
      vertex -1.44227 22.4788 0
    endloop
  endfacet
  facet normal -0.587785 0.809017 0
    outer loop
      vertex -1.44227 22.4788 0
      vertex -2.42705 21.7634 15
      vertex -1.44227 22.4788 15
    endloop
  endfacet
  facet normal 0 0 -1
    outer loop
      vertex -10.0981 37.4711 0
      vertex -7.5 38.9711 0
      vertex -1.44227 22.4788 0
    endloop
  endfacet
  facet normal 0 0 -1
    outer loop
      vertex -1.44227 22.4788 0
      vertex -7.5 38.9711 0
      vertex 1.80572 22.8532 0
    endloop
  endfacet
  facet normal 0 0 -1
    outer loop
      vertex -1.44227 22.4788 0
      vertex 1.80572 22.8532 0
      vertex 20.9271 22.8532 0
    endloop
  endfacet
  facet normal 0 0 -1
    outer loop
      vertex -1.44227 22.4788 0
      vertex 20.9271 22.8532 0
      vertex 22.4271 21.7634 0
    endloop
  endfacet
  facet normal 0 0 -1
    outer loop
      vertex -1.44227 22.4788 0
      vertex 22.4271 21.7634 0
      vertex 23 20 0
    endloop
  endfacet
  facet normal 0 0 -1
    outer loop
      vertex 20 0 0
      vertex 23 20 0
      vertex 23 -9 0
    endloop
  endfacet
  facet normal 0 0 -1
    outer loop
      vertex 0 20 0
      vertex -1.44227 22.4788 0
      vertex 20 20 0
    endloop
  endfacet
  facet normal 0 0 -1
    outer loop
      vertex 20 20 0
      vertex 23 20 0
      vertex 20 0 0
    endloop
  endfacet
  facet normal 0 0 -1
    outer loop
      vertex 18.5 0 0
      vertex 20 0 0
      vertex 23 -9 0
    endloop
  endfacet
  facet normal 0 0 -1
    outer loop
      vertex -1.44227 22.4788 0
      vertex 23 20 0
      vertex 20 20 0
    endloop
  endfacet
  facet normal 0 0 -1
    outer loop
      vertex -3 20 0
      vertex -2.42705 -10.7634 0
      vertex -3 -9 0
    endloop
  endfacet
  facet normal 0 0 -1
    outer loop
      vertex -3 20 0
      vertex -0.927051 -11.8532 0
      vertex -2.42705 -10.7634 0
    endloop
  endfacet
  facet normal 0 0 -1
    outer loop
      vertex -3 20 0
      vertex 1.5 -11.8532 0
      vertex -0.927051 -11.8532 0
    endloop
  endfacet
  facet normal 0 0 -1
    outer loop
      vertex 1.5 -11.8532 0
      vertex 0 0 0
      vertex 1.5 0 0
    endloop
  endfacet
  facet normal 0 0 -1
    outer loop
      vertex -3 20 0
      vertex 0 0 0
      vertex 1.5 -11.8532 0
    endloop
  endfacet
  facet normal 0 0 -1
    outer loop
      vertex -1.44227 22.4788 0
      vertex 0 0 0
      vertex -3 20 0
    endloop
  endfacet
  facet normal 0 0 -1
    outer loop
      vertex -1.44227 22.4788 0
      vertex -3 20 0
      vertex -2.42705 21.7634 0
    endloop
  endfacet
  facet normal 0 0 -1
    outer loop
      vertex 18.5 0 0
      vertex 23 -9 0
      vertex 22.4271 -10.7634 0
    endloop
  endfacet
  facet normal 0 0 -1
    outer loop
      vertex 18.5 0 0
      vertex 22.4271 -10.7634 0
      vertex 20.9271 -11.8532 0
    endloop
  endfacet
  facet normal 0 0 -1
    outer loop
      vertex 18.5 0 0
      vertex 20.9271 -11.8532 0
      vertex 18.5 -11.8532 0
    endloop
  endfacet
  facet normal 0 0 -1
    outer loop
      vertex 0 0 0
      vertex -1.44227 22.4788 0
      vertex 0 20 0
    endloop
  endfacet
  facet normal -0.065263 0.113039 -0.991445
    outer loop
      vertex -11.0686 39.1522 0.255556
      vertex -8.47057 40.6522 0.255556
      vertex -10.0981 37.4711 0
    endloop
  endfacet
  facet normal -0.065263 0.113039 -0.991445
    outer loop
      vertex -10.0981 37.4711 0
      vertex -8.47057 40.6522 0.255556
      vertex -7.5 38.9711 0
    endloop
  endfacet
  facet normal -0.191342 0.331414 -0.92388
    outer loop
      vertex -11.9731 40.7187 1.00481
      vertex -9.375 42.2187 1.00481
      vertex -11.0686 39.1522 0.255556
    endloop
  endfacet
  facet normal -0.191342 0.331414 -0.92388
    outer loop
      vertex -11.0686 39.1522 0.255556
      vertex -9.375 42.2187 1.00481
      vertex -8.47057 40.6522 0.255556
    endloop
  endfacet
  facet normal -0.304381 0.527203 -0.793353
    outer loop
      vertex -12.7497 42.0639 2.1967
      vertex -10.1517 43.5639 2.1967
      vertex -11.9731 40.7187 1.00481
    endloop
  endfacet
  facet normal -0.304381 0.527203 -0.793353
    outer loop
      vertex -11.9731 40.7187 1.00481
      vertex -10.1517 43.5639 2.1967
      vertex -9.375 42.2187 1.00481
    endloop
  endfacet
  facet normal -0.396677 0.687064 -0.608762
    outer loop
      vertex -13.3457 43.0961 3.75
      vertex -10.7476 44.5961 3.75
      vertex -12.7497 42.0639 2.1967
    endloop
  endfacet
  facet normal -0.396677 0.687064 -0.608762
    outer loop
      vertex -12.7497 42.0639 2.1967
      vertex -10.7476 44.5961 3.75
      vertex -10.1517 43.5639 2.1967
    endloop
  endfacet
  facet normal -0.46194 0.800103 -0.382683
    outer loop
      vertex -13.7203 43.745 5.55886
      vertex -11.1222 45.245 5.55886
      vertex -13.3457 43.0961 3.75
    endloop
  endfacet
  facet normal -0.46194 0.800103 -0.382683
    outer loop
      vertex -13.3457 43.0961 3.75
      vertex -11.1222 45.245 5.55886
      vertex -10.7476 44.5961 3.75
    endloop
  endfacet
  facet normal 0 1 0
    outer loop
      vertex 1.80572 22.8532 0
      vertex 1.80572 22.8532 15
      vertex 20.9271 22.8532 0
    endloop
  endfacet
  facet normal 0 1 0
    outer loop
      vertex 20.9271 22.8532 0
      vertex 1.80572 22.8532 15
      vertex 20.9271 22.8532 15
    endloop
  endfacet
  facet normal 0.587785 0.809017 0
    outer loop
      vertex 20.9271 22.8532 0
      vertex 20.9271 22.8532 15
      vertex 22.4271 21.7634 0
    endloop
  endfacet
  facet normal 0.587785 0.809017 0
    outer loop
      vertex 22.4271 21.7634 0
      vertex 20.9271 22.8532 15
      vertex 22.4271 21.7634 15
    endloop
  endfacet
  facet normal 0.951057 0.309017 0
    outer loop
      vertex 23 20 0
      vertex 22.4271 21.7634 0
      vertex 22.4271 21.7634 15
    endloop
  endfacet
  facet normal 0.951057 0.309017 0
    outer loop
      vertex 23 20 15
      vertex 23 20 0
      vertex 22.4271 21.7634 15
    endloop
  endfacet
  facet normal 1 0 0
    outer loop
      vertex 23 -6.07341 7.03648
      vertex 23 -9 0
      vertex 23 20 0
    endloop
  endfacet
  facet normal 1 0 0
    outer loop
      vertex 23 20 15
      vertex 23 -9 15
      vertex 23 20 0
    endloop
  endfacet
  facet normal 1 0 0
    outer loop
      vertex 23 -9 15
      vertex 23 -9 0
      vertex 23 -8.92658 7.96352
    endloop
  endfacet
  facet normal 1 0 0
    outer loop
      vertex 23 -9 15
      vertex 23 -8.92658 7.96352
      vertex 23 -8.38168 8.71352
    endloop
  endfacet
  facet normal 1 0 0
    outer loop
      vertex 23 -6.22402 7.5
      vertex 23 -6.07341 7.03648
      vertex 23 20 0
    endloop
  endfacet
  facet normal 1 0 0
    outer loop
      vertex 23 -9 15
      vertex 23 -8.38168 8.71352
      vertex 23 -8.38168 8.71353
    endloop
  endfacet
  facet normal 1 0 0
    outer loop
      vertex 23 -9 15
      vertex 23 -8.38168 8.71353
      vertex 23 -7.5 9
    endloop
  endfacet
  facet normal 1 0 0
    outer loop
      vertex 23 -9 15
      vertex 23 -7.5 9
      vertex 23 -6.61832 8.71353
    endloop
  endfacet
  facet normal 1 0 0
    outer loop
      vertex 23 -9 15
      vertex 23 -6.61832 8.71353
      vertex 23 20 0
    endloop
  endfacet
  facet normal 1 0 0
    outer loop
      vertex 23 -6.07341 7.96352
      vertex 23 -6.07341 7.5
      vertex 23 20 0
    endloop
  endfacet
  facet normal 1 0 0
    outer loop
      vertex 23 -6.07341 7.5
      vertex 23 -6.22402 7.5
      vertex 23 20 0
    endloop
  endfacet
  facet normal 1 0 0
    outer loop
      vertex 23 -7.5 6
      vertex 23 -9 0
      vertex 23 -6.07341 7.03648
    endloop
  endfacet
  facet normal 1 0 0
    outer loop
      vertex 23 -8.92658 7.03648
      vertex 23 -9 0
      vertex 23 -7.5 6
    endloop
  endfacet
  facet normal 1 0 0
    outer loop
      vertex 23 -8.92658 7.96352
      vertex 23 -9 0
      vertex 23 -8.92658 7.03648
    endloop
  endfacet
  facet normal 1 0 0
    outer loop
      vertex 23 -8.92658 7.5
      vertex 23 -8.92658 7.03648
      vertex 23 -8.77598 7.5
    endloop
  endfacet
  facet normal 1 0 0
    outer loop
      vertex 23 -8.92658 7.96352
      vertex 23 -8.92658 7.03648
      vertex 23 -8.92658 7.5
    endloop
  endfacet
  facet normal 1 0 0
    outer loop
      vertex 23 -6.61832 8.71353
      vertex 23 -6.61832 8.71352
      vertex 23 20 0
    endloop
  endfacet
  facet normal 1 0 0
    outer loop
      vertex 23 -6.61832 8.71352
      vertex 23 -6.07341 7.96352
      vertex 23 20 0
    endloop
  endfacet
  facet normal 0.951057 -0.309017 0
    outer loop
      vertex 22.4271 -10.7634 15
      vertex 22.4271 -10.7634 0
      vertex 23 -9 0
    endloop
  endfacet
  facet normal 0.951057 -0.309017 0
    outer loop
      vertex 23 -9 15
      vertex 22.4271 -10.7634 15
      vertex 23 -9 0
    endloop
  endfacet
  facet normal 0.587785 -0.809017 0
    outer loop
      vertex 20.9271 -11.8532 15
      vertex 20.9271 -11.8532 0
      vertex 22.4271 -10.7634 0
    endloop
  endfacet
  facet normal 0.587785 -0.809017 0
    outer loop
      vertex 22.4271 -10.7634 15
      vertex 20.9271 -11.8532 15
      vertex 22.4271 -10.7634 0
    endloop
  endfacet
  facet normal 0 -1 0
    outer loop
      vertex 18.5 -11.8532 15
      vertex 18.5 -11.8532 0
      vertex 20.9271 -11.8532 0
    endloop
  endfacet
  facet normal 0 -1 0
    outer loop
      vertex 20.9271 -11.8532 15
      vertex 18.5 -11.8532 15
      vertex 20.9271 -11.8532 0
    endloop
  endfacet
  facet normal -1 0 0
    outer loop
      vertex 18.5 -8.38168 8.71353
      vertex 18.5 -11.8532 15
      vertex 18.5 -6.61832 8.71353
    endloop
  endfacet
  facet normal -1 0 0
    outer loop
      vertex 18.5 -8.92658 7.03648
      vertex 18.5 0 0
      vertex 18.5 -11.8532 0
    endloop
  endfacet
  facet normal -1 0 0
    outer loop
      vertex 18.5 -7.5 6
      vertex 18.5 0 0
      vertex 18.5 -8.92658 7.03648
    endloop
  endfacet
  facet normal -1 0 0
    outer loop
      vertex 18.5 -11.8532 15
      vertex 18.5 -8.92658 7.03648
      vertex 18.5 -11.8532 0
    endloop
  endfacet
  facet normal -1 0 0
    outer loop
      vertex 18.5 -6.07341 7.03648
      vertex 18.5 0 0
      vertex 18.5 -7.5 6
    endloop
  endfacet
  facet normal -1 0 0
    outer loop
      vertex 18.5 -6.61832 8.71353
      vertex 18.5 0 0
      vertex 18.5 -6.07341 7.03648
    endloop
  endfacet
  facet normal -1 0 0
    outer loop
      vertex 18.5 0 15
      vertex 18.5 0 0
      vertex 18.5 -6.61832 8.71353
    endloop
  endfacet
  facet normal -1 0 0
    outer loop
      vertex 18.5 0 15
      vertex 18.5 -6.61832 8.71353
      vertex 18.5 -11.8532 15
    endloop
  endfacet
  facet normal -1 0 0
    outer loop
      vertex 18.5 -8.92658 7.03648
      vertex 18.5 -11.8532 15
      vertex 18.5 -8.38168 8.71353
    endloop
  endfacet
  facet normal 0 1 0
    outer loop
      vertex 20 0 15
      vertex 20 0 0
      vertex 18.5 0 15
    endloop
  endfacet
  facet normal 0 1 0
    outer loop
      vertex 18.5 0 15
      vertex 20 0 0
      vertex 18.5 0 0
    endloop
  endfacet
  facet normal -1 0 0
    outer loop
      vertex 20 20 15
      vertex 20 20 0
      vertex 20 0 15
    endloop
  endfacet
  facet normal -1 0 0
    outer loop
      vertex 20 0 15
      vertex 20 20 0
      vertex 20 0 0
    endloop
  endfacet
  facet normal 0 -1 0
    outer loop
      vertex 20 20 0
      vertex 20 20 15
      vertex 0 20 15
    endloop
  endfacet
  facet normal 0 -1 0
    outer loop
      vertex 0 20 0
      vertex 20 20 0
      vertex 0 20 15
    endloop
  endfacet
  facet normal 1 0 0
    outer loop
      vertex 0 20 0
      vertex 0 20 15
      vertex 0 0 15
    endloop
  endfacet
  facet normal 1 0 0
    outer loop
      vertex 0 0 0
      vertex 0 20 0
      vertex 0 0 15
    endloop
  endfacet
  facet normal 0 1 0
    outer loop
      vertex 1.5 0 15
      vertex 1.5 0 0
      vertex 0 0 15
    endloop
  endfacet
  facet normal 0 1 0
    outer loop
      vertex 0 0 15
      vertex 1.5 0 0
      vertex 0 0 0
    endloop
  endfacet
  facet normal 1 0 0
    outer loop
      vertex 1.5 -6.61832 8.71353
      vertex 1.5 0 15
      vertex 1.5 -11.8532 15
    endloop
  endfacet
  facet normal 1 0 0
    outer loop
      vertex 1.5 -6.07341 7.03648
      vertex 1.5 -7.5 6
      vertex 1.5 0 0
    endloop
  endfacet
  facet normal 1 0 0
    outer loop
      vertex 1.5 -11.8532 0
      vertex 1.5 -8.38168 8.71353
      vertex 1.5 -11.8532 15
    endloop
  endfacet
  facet normal 1 0 0
    outer loop
      vertex 1.5 0 0
      vertex 1.5 0 15
      vertex 1.5 -6.61832 8.71353
    endloop
  endfacet
  facet normal 1 0 0
    outer loop
      vertex 1.5 -11.8532 0
      vertex 1.5 0 0
      vertex 1.5 -7.5 6
    endloop
  endfacet
  facet normal 1 0 0
    outer loop
      vertex 1.5 -11.8532 0
      vertex 1.5 -8.92658 7.03648
      vertex 1.5 -8.38168 8.71353
    endloop
  endfacet
  facet normal 1 0 0
    outer loop
      vertex 1.5 -11.8532 0
      vertex 1.5 -7.5 6
      vertex 1.5 -8.92658 7.03648
    endloop
  endfacet
  facet normal 1 0 0
    outer loop
      vertex 1.5 -6.61832 8.71353
      vertex 1.5 -6.07341 7.03648
      vertex 1.5 0 0
    endloop
  endfacet
  facet normal 1 0 0
    outer loop
      vertex 1.5 -8.38168 8.71353
      vertex 1.5 -6.61832 8.71353
      vertex 1.5 -11.8532 15
    endloop
  endfacet
  facet normal 0 -1 0
    outer loop
      vertex -0.927051 -11.8532 15
      vertex -0.927051 -11.8532 0
      vertex 1.5 -11.8532 0
    endloop
  endfacet
  facet normal 0 -1 0
    outer loop
      vertex 1.5 -11.8532 15
      vertex -0.927051 -11.8532 15
      vertex 1.5 -11.8532 0
    endloop
  endfacet
  facet normal -0.587785 -0.809017 0
    outer loop
      vertex -2.42705 -10.7634 15
      vertex -2.42705 -10.7634 0
      vertex -0.927051 -11.8532 0
    endloop
  endfacet
  facet normal -0.587785 -0.809017 0
    outer loop
      vertex -0.927051 -11.8532 15
      vertex -2.42705 -10.7634 15
      vertex -0.927051 -11.8532 0
    endloop
  endfacet
  facet normal -0.951057 -0.309017 0
    outer loop
      vertex -3 -9 0
      vertex -2.42705 -10.7634 0
      vertex -3 -9 5.07513
    endloop
  endfacet
  facet normal -0.951057 -0.309017 0
    outer loop
      vertex -2.56136 -10.35 9.12857
      vertex -2.42705 -10.7634 0
      vertex -2.42705 -10.7634 15
    endloop
  endfacet
  facet normal -0.951057 -0.309017 0
    outer loop
      vertex -3 -9 9.92487
      vertex -2.42705 -10.7634 15
      vertex -3 -9 15
    endloop
  endfacet
  facet normal -0.951057 -0.309017 0
    outer loop
      vertex -2.56136 -10.35 9.12857
      vertex -2.56611 -10.3354 9.15389
      vertex -2.57086 -10.3208 9.12857
    endloop
  endfacet
  facet normal -0.951057 -0.309017 0
    outer loop
      vertex -2.56136 -10.35 5.87143
      vertex -2.42705 -10.7634 0
      vertex -2.56136 -10.35 9.12857
    endloop
  endfacet
  facet normal -0.951057 -0.309017 0
    outer loop
      vertex -2.56611 -10.3354 9.15389
      vertex -2.56136 -10.35 9.12857
      vertex -2.42705 -10.7634 15
    endloop
  endfacet
  facet normal -0.951057 -0.309017 0
    outer loop
      vertex -2.56611 -10.3354 5.84611
      vertex -2.42705 -10.7634 0
      vertex -2.56136 -10.35 5.87143
    endloop
  endfacet
  facet normal -0.951057 -0.309017 0
    outer loop
      vertex -3 -9 5.07513
      vertex -2.42705 -10.7634 0
      vertex -2.56611 -10.3354 5.84611
    endloop
  endfacet
  facet normal -0.951057 -0.309017 0
    outer loop
      vertex -2.56611 -10.3354 9.15389
      vertex -2.42705 -10.7634 15
      vertex -3 -9 9.92487
    endloop
  endfacet
  facet normal -0.951057 -0.309017 0
    outer loop
      vertex -2.56611 -10.3354 5.84611
      vertex -2.56136 -10.35 5.87143
      vertex -2.57086 -10.3208 5.87143
    endloop
  endfacet
  facet normal -1 0 0
    outer loop
      vertex -3 -9 0
      vertex -3 -7.51462 4.21754
      vertex -3 20 0
    endloop
  endfacet
  facet normal -1 0 0
    outer loop
      vertex -3 -9 0
      vertex -3 -9 5.07513
      vertex -3 -7.51462 4.21754
    endloop
  endfacet
  facet normal -1 0 0
    outer loop
      vertex -3 -7.51462 4.21754
      vertex -3 -7.5 4.24286
      vertex -3 -7.48538 4.21754
    endloop
  endfacet
  facet normal -1 0 0
    outer loop
      vertex -3 -7.51462 4.21754
      vertex -3 -7.48538 4.21754
      vertex -3 20 0
    endloop
  endfacet
  facet normal -1 0 0
    outer loop
      vertex -3 20 0
      vertex -3 -4.66462 5.84611
      vertex -3 -4.67923 5.87143
    endloop
  endfacet
  facet normal -1 0 0
    outer loop
      vertex -3 20 0
      vertex -3 -4.67923 5.87143
      vertex -3 -4.65 5.87143
    endloop
  endfacet
  facet normal -1 0 0
    outer loop
      vertex -3 20 0
      vertex -3 -4.65 5.87143
      vertex -3 -4.65 9.12857
    endloop
  endfacet
  facet normal -1 0 0
    outer loop
      vertex -3 -4.65 9.12857
      vertex -3 -4.67923 9.12857
      vertex -3 -4.66462 9.15389
    endloop
  endfacet
  facet normal -1 0 0
    outer loop
      vertex -3 -4.65 9.12857
      vertex -3 -4.66462 9.15389
      vertex -3 20 0
    endloop
  endfacet
  facet normal -1 0 0
    outer loop
      vertex -3 -4.66462 9.15389
      vertex -3 -7.48538 10.7825
      vertex -3 20 0
    endloop
  endfacet
  facet normal -1 0 0
    outer loop
      vertex -3 -7.48538 10.7825
      vertex -3 -7.5 10.7571
      vertex -3 -7.51462 10.7825
    endloop
  endfacet
  facet normal -1 0 0
    outer loop
      vertex -3 -7.48538 10.7825
      vertex -3 -9 15
      vertex -3 20 0
    endloop
  endfacet
  facet normal -1 0 0
    outer loop
      vertex -3 -7.51462 10.7825
      vertex -3 -9 9.92487
      vertex -3 -9 15
    endloop
  endfacet
  facet normal -1 0 0
    outer loop
      vertex -3 -7.51462 10.7825
      vertex -3 -9 15
      vertex -3 -7.48538 10.7825
    endloop
  endfacet
  facet normal -1 0 0
    outer loop
      vertex -3 20 0
      vertex -3 -9 15
      vertex -3 20 15
    endloop
  endfacet
  facet normal -1 0 0
    outer loop
      vertex -3 -4.66462 5.84611
      vertex -3 20 0
      vertex -3 -7.48538 4.21754
    endloop
  endfacet
  facet normal -0.951057 0.309017 0
    outer loop
      vertex -3 20 0
      vertex -3 20 15
      vertex -2.42705 21.7634 0
    endloop
  endfacet
  facet normal -0.951057 0.309017 0
    outer loop
      vertex -2.42705 21.7634 0
      vertex -3 20 15
      vertex -2.42705 21.7634 15
    endloop
  endfacet
  facet normal 1 0 6.12323e-17
    outer loop
      vertex 23 -8.92658 7.96352
      vertex 23 -8.92658 7.5
      vertex 23 -8.77598 7.5
    endloop
  endfacet
  facet normal 1 0 6.12323e-17
    outer loop
      vertex 23 -8.38168 8.71352
      vertex 23 -8.92658 7.96352
      vertex 23 -8.77598 7.5
    endloop
  endfacet
  facet normal 1.89218e-17 0.951056 -0.309017
    outer loop
      vertex 23 -8.38168 8.71353
      vertex 23 -8.38168 8.71352
      vertex 18.5 -8.38168 8.71353
    endloop
  endfacet
  facet normal 1.89218e-17 0.951056 -0.309017
    outer loop
      vertex 18.5 -8.38168 8.71353
      vertex 23 -8.38168 8.71352
      vertex 23 -8.77598 7.5
    endloop
  endfacet
  facet normal 1.89218e-17 0.951056 -0.309017
    outer loop
      vertex 18.5 -8.38168 8.71353
      vertex 23 -8.77598 7.5
      vertex 23 -8.92658 7.03648
    endloop
  endfacet
  facet normal 1.89218e-17 0.951056 -0.309017
    outer loop
      vertex 18.5 -8.38168 8.71353
      vertex 23 -8.92658 7.03648
      vertex 18.5 -8.92658 7.03648
    endloop
  endfacet
  facet normal -4.9538e-17 0.587785 0.809017
    outer loop
      vertex 23 -8.92658 7.03648
      vertex 23 -7.5 6
      vertex 18.5 -7.5 6
    endloop
  endfacet
  facet normal -4.9538e-17 0.587785 0.809017
    outer loop
      vertex 18.5 -8.92658 7.03648
      vertex 23 -8.92658 7.03648
      vertex 18.5 -7.5 6
    endloop
  endfacet
  facet normal -4.9538e-17 -0.587785 0.809017
    outer loop
      vertex 23 -7.5 6
      vertex 23 -6.07341 7.03648
      vertex 18.5 -6.07341 7.03648
    endloop
  endfacet
  facet normal -4.9538e-17 -0.587785 0.809017
    outer loop
      vertex 18.5 -7.5 6
      vertex 23 -7.5 6
      vertex 18.5 -6.07341 7.03648
    endloop
  endfacet
  facet normal 1.89218e-17 -0.951056 -0.309017
    outer loop
      vertex 18.5 -6.07341 7.03648
      vertex 23 -6.07341 7.03648
      vertex 23 -6.22402 7.5
    endloop
  endfacet
  facet normal 1.89218e-17 -0.951056 -0.309017
    outer loop
      vertex 23 -6.61832 8.71352
      vertex 18.5 -6.07341 7.03648
      vertex 23 -6.22402 7.5
    endloop
  endfacet
  facet normal 1.89218e-17 -0.951056 -0.309017
    outer loop
      vertex 23 -6.61832 8.71353
      vertex 18.5 -6.07341 7.03648
      vertex 23 -6.61832 8.71352
    endloop
  endfacet
  facet normal 1.89218e-17 -0.951056 -0.309017
    outer loop
      vertex 18.5 -6.61832 8.71353
      vertex 18.5 -6.07341 7.03648
      vertex 23 -6.61832 8.71353
    endloop
  endfacet
  facet normal 1 0 6.12323e-17
    outer loop
      vertex 23 -6.22402 7.5
      vertex 23 -6.07341 7.5
      vertex 23 -6.07341 7.96352
    endloop
  endfacet
  facet normal 1 0 6.12323e-17
    outer loop
      vertex 23 -6.61832 8.71352
      vertex 23 -6.22402 7.5
      vertex 23 -6.07341 7.96352
    endloop
  endfacet
  facet normal 6.12323e-17 0 -1
    outer loop
      vertex 18.5 -6.61832 8.71353
      vertex 23 -6.61832 8.71353
      vertex 23 -8.38168 8.71353
    endloop
  endfacet
  facet normal 6.12323e-17 0 -1
    outer loop
      vertex 18.5 -6.61832 8.71353
      vertex 23 -8.38168 8.71353
      vertex 18.5 -8.38168 8.71353
    endloop
  endfacet
  facet normal 6.12323e-17 0 -1
    outer loop
      vertex 1.5 -6.61832 8.71353
      vertex 1.5 -8.38168 8.71353
      vertex -2.5 -6.61832 8.71352
    endloop
  endfacet
  facet normal 6.12323e-17 0 -1
    outer loop
      vertex -2.5 -6.61832 8.71352
      vertex 1.5 -8.38168 8.71353
      vertex -2.5 -8.38168 8.71352
    endloop
  endfacet
  facet normal 1.89218e-17 0.951056 -0.309017
    outer loop
      vertex 1.5 -8.92658 7.03648
      vertex -2.5 -8.92658 7.03648
      vertex 1.5 -8.38168 8.71353
    endloop
  endfacet
  facet normal 1.89218e-17 0.951056 -0.309017
    outer loop
      vertex 1.5 -8.38168 8.71353
      vertex -2.5 -8.92658 7.03648
      vertex -2.5 -8.38168 8.71352
    endloop
  endfacet
  facet normal -4.9538e-17 0.587785 0.809017
    outer loop
      vertex 1.5 -8.92658 7.03648
      vertex 1.5 -7.5 6
      vertex -2.5 -7.5 6
    endloop
  endfacet
  facet normal -4.9538e-17 0.587785 0.809017
    outer loop
      vertex -2.5 -8.92658 7.03648
      vertex 1.5 -8.92658 7.03648
      vertex -2.5 -7.5 6
    endloop
  endfacet
  facet normal -4.9538e-17 -0.587785 0.809017
    outer loop
      vertex -2.5 -7.5 6
      vertex 1.5 -7.5 6
      vertex 1.5 -6.07341 7.03648
    endloop
  endfacet
  facet normal -4.9538e-17 -0.587785 0.809017
    outer loop
      vertex -2.5 -6.07341 7.03648
      vertex -2.5 -7.5 6
      vertex 1.5 -6.07341 7.03648
    endloop
  endfacet
  facet normal 1.89218e-17 -0.951056 -0.309017
    outer loop
      vertex -2.5 -6.07341 7.03648
      vertex 1.5 -6.07341 7.03648
      vertex 1.5 -6.61832 8.71353
    endloop
  endfacet
  facet normal 1.89218e-17 -0.951056 -0.309017
    outer loop
      vertex -2.5 -6.61832 8.71352
      vertex -2.5 -6.07341 7.03648
      vertex 1.5 -6.61832 8.71353
    endloop
  endfacet
  facet normal -5.30288e-17 0.5 0.866025
    outer loop
      vertex -2.56611 -10.3354 5.84611
      vertex -2.5 -10.3354 5.84611
      vertex -2.5 -7.51462 4.21754
    endloop
  endfacet
  facet normal -5.30288e-17 0.5 0.866025
    outer loop
      vertex -3 -9 5.07513
      vertex -2.56611 -10.3354 5.84611
      vertex -3 -7.51462 4.21754
    endloop
  endfacet
  facet normal -5.30288e-17 0.5 0.866025
    outer loop
      vertex -3 -7.51462 4.21754
      vertex -2.56611 -10.3354 5.84611
      vertex -2.5 -7.51462 4.21754
    endloop
  endfacet
  facet normal 3.06162e-17 0.866025 -0.5
    outer loop
      vertex -2.5 -10.3354 5.84611
      vertex -2.56611 -10.3354 5.84611
      vertex -2.5 -10.3208 5.87143
    endloop
  endfacet
  facet normal 3.06162e-17 0.866025 -0.5
    outer loop
      vertex -2.5 -10.3208 5.87143
      vertex -2.56611 -10.3354 5.84611
      vertex -2.57086 -10.3208 5.87143
    endloop
  endfacet
  facet normal -6.12323e-17 0 1
    outer loop
      vertex -2.56136 -10.35 5.87143
      vertex -2.5 -10.35 5.87143
      vertex -2.5 -10.3208 5.87143
    endloop
  endfacet
  facet normal -6.12323e-17 0 1
    outer loop
      vertex -2.57086 -10.3208 5.87143
      vertex -2.56136 -10.35 5.87143
      vertex -2.5 -10.3208 5.87143
    endloop
  endfacet
  facet normal 0 1 0
    outer loop
      vertex -2.5 -10.35 9.12857
      vertex -2.5 -10.35 5.87143
      vertex -2.56136 -10.35 9.12857
    endloop
  endfacet
  facet normal 0 1 0
    outer loop
      vertex -2.56136 -10.35 9.12857
      vertex -2.5 -10.35 5.87143
      vertex -2.56136 -10.35 5.87143
    endloop
  endfacet
  facet normal 6.12323e-17 0 -1
    outer loop
      vertex -2.5 -10.35 9.12857
      vertex -2.56136 -10.35 9.12857
      vertex -2.5 -10.3208 9.12857
    endloop
  endfacet
  facet normal 6.12323e-17 0 -1
    outer loop
      vertex -2.5 -10.3208 9.12857
      vertex -2.56136 -10.35 9.12857
      vertex -2.57086 -10.3208 9.12857
    endloop
  endfacet
  facet normal -3.06162e-17 0.866025 0.5
    outer loop
      vertex -2.5 -10.3354 9.15389
      vertex -2.5 -10.3208 9.12857
      vertex -2.56611 -10.3354 9.15389
    endloop
  endfacet
  facet normal -3.06162e-17 0.866025 0.5
    outer loop
      vertex -2.56611 -10.3354 9.15389
      vertex -2.5 -10.3208 9.12857
      vertex -2.57086 -10.3208 9.12857
    endloop
  endfacet
  facet normal 5.30288e-17 0.5 -0.866025
    outer loop
      vertex -2.5 -7.51462 10.7825
      vertex -2.5 -10.3354 9.15389
      vertex -3 -7.51462 10.7825
    endloop
  endfacet
  facet normal 5.30288e-17 0.5 -0.866025
    outer loop
      vertex -3 -7.51462 10.7825
      vertex -2.5 -10.3354 9.15389
      vertex -2.56611 -10.3354 9.15389
    endloop
  endfacet
  facet normal 5.30288e-17 0.5 -0.866025
    outer loop
      vertex -3 -7.51462 10.7825
      vertex -2.56611 -10.3354 9.15389
      vertex -3 -9 9.92487
    endloop
  endfacet
  facet normal 3.06162e-17 -0.866025 -0.5
    outer loop
      vertex -3 -7.5 10.7571
      vertex -2.5 -7.5 10.7571
      vertex -2.5 -7.51462 10.7825
    endloop
  endfacet
  facet normal 3.06162e-17 -0.866025 -0.5
    outer loop
      vertex -3 -7.51462 10.7825
      vertex -3 -7.5 10.7571
      vertex -2.5 -7.51462 10.7825
    endloop
  endfacet
  facet normal 3.06162e-17 0.866025 -0.5
    outer loop
      vertex -2.5 -7.48538 10.7825
      vertex -2.5 -7.5 10.7571
      vertex -3 -7.48538 10.7825
    endloop
  endfacet
  facet normal 3.06162e-17 0.866025 -0.5
    outer loop
      vertex -3 -7.48538 10.7825
      vertex -2.5 -7.5 10.7571
      vertex -3 -7.5 10.7571
    endloop
  endfacet
  facet normal 5.30288e-17 -0.5 -0.866025
    outer loop
      vertex -2.5 -4.66462 9.15389
      vertex -2.5 -7.48538 10.7825
      vertex -3 -4.66462 9.15389
    endloop
  endfacet
  facet normal 5.30288e-17 -0.5 -0.866025
    outer loop
      vertex -3 -4.66462 9.15389
      vertex -2.5 -7.48538 10.7825
      vertex -3 -7.48538 10.7825
    endloop
  endfacet
  facet normal -3.06162e-17 -0.866025 0.5
    outer loop
      vertex -2.5 -4.67923 9.12857
      vertex -2.5 -4.66462 9.15389
      vertex -3 -4.66462 9.15389
    endloop
  endfacet
  facet normal -3.06162e-17 -0.866025 0.5
    outer loop
      vertex -3 -4.67923 9.12857
      vertex -2.5 -4.67923 9.12857
      vertex -3 -4.66462 9.15389
    endloop
  endfacet
  facet normal 6.12323e-17 0 -1
    outer loop
      vertex -2.5 -4.65 9.12857
      vertex -2.5 -4.67923 9.12857
      vertex -3 -4.65 9.12857
    endloop
  endfacet
  facet normal 6.12323e-17 0 -1
    outer loop
      vertex -3 -4.65 9.12857
      vertex -2.5 -4.67923 9.12857
      vertex -3 -4.67923 9.12857
    endloop
  endfacet
  facet normal 0 -1 0
    outer loop
      vertex -2.5 -4.65 5.87143
      vertex -2.5 -4.65 9.12857
      vertex -3 -4.65 9.12857
    endloop
  endfacet
  facet normal 0 -1 0
    outer loop
      vertex -3 -4.65 5.87143
      vertex -2.5 -4.65 5.87143
      vertex -3 -4.65 9.12857
    endloop
  endfacet
  facet normal -6.12323e-17 0 1
    outer loop
      vertex -2.5 -4.67923 5.87143
      vertex -2.5 -4.65 5.87143
      vertex -3 -4.65 5.87143
    endloop
  endfacet
  facet normal -6.12323e-17 0 1
    outer loop
      vertex -3 -4.67923 5.87143
      vertex -2.5 -4.67923 5.87143
      vertex -3 -4.65 5.87143
    endloop
  endfacet
  facet normal 3.06162e-17 -0.866025 -0.5
    outer loop
      vertex -3 -4.66462 5.84611
      vertex -2.5 -4.66462 5.84611
      vertex -2.5 -4.67923 5.87143
    endloop
  endfacet
  facet normal 3.06162e-17 -0.866025 -0.5
    outer loop
      vertex -3 -4.67923 5.87143
      vertex -3 -4.66462 5.84611
      vertex -2.5 -4.67923 5.87143
    endloop
  endfacet
  facet normal -5.30288e-17 -0.5 0.866025
    outer loop
      vertex -2.5 -7.48538 4.21754
      vertex -2.5 -4.66462 5.84611
      vertex -3 -4.66462 5.84611
    endloop
  endfacet
  facet normal -5.30288e-17 -0.5 0.866025
    outer loop
      vertex -3 -7.48538 4.21754
      vertex -2.5 -7.48538 4.21754
      vertex -3 -4.66462 5.84611
    endloop
  endfacet
  facet normal -3.06162e-17 0.866025 0.5
    outer loop
      vertex -2.5 -7.48538 4.21754
      vertex -3 -7.48538 4.21754
      vertex -2.5 -7.5 4.24286
    endloop
  endfacet
  facet normal -3.06162e-17 0.866025 0.5
    outer loop
      vertex -2.5 -7.5 4.24286
      vertex -3 -7.48538 4.21754
      vertex -3 -7.5 4.24286
    endloop
  endfacet
  facet normal -3.06162e-17 -0.866025 0.5
    outer loop
      vertex -2.5 -7.51462 4.21754
      vertex -2.5 -7.5 4.24286
      vertex -3 -7.5 4.24286
    endloop
  endfacet
  facet normal -3.06162e-17 -0.866025 0.5
    outer loop
      vertex -3 -7.51462 4.21754
      vertex -2.5 -7.51462 4.21754
      vertex -3 -7.5 4.24286
    endloop
  endfacet
  facet normal 1 0 6.12323e-17
    outer loop
      vertex 23 -8.38168 8.71353
      vertex 23 -6.61832 8.71353
      vertex 23 -7.5 9
    endloop
  endfacet
  facet normal -1 0 -6.12323e-17
    outer loop
      vertex -2.5 -7.48538 10.7825
      vertex -2.5 -4.66462 9.15389
      vertex -2.5 -7.5 10.7571
    endloop
  endfacet
  facet normal -1 0 -6.12323e-17
    outer loop
      vertex -2.5 -7.5 10.7571
      vertex -2.5 -4.66462 9.15389
      vertex -2.5 -4.67923 9.12857
    endloop
  endfacet
  facet normal -1 0 -6.12323e-17
    outer loop
      vertex -2.5 -4.67923 9.12857
      vertex -2.5 -4.65 9.12857
      vertex -2.5 -4.65 5.87143
    endloop
  endfacet
  facet normal -1 0 -6.12323e-17
    outer loop
      vertex -2.5 -4.67923 9.12857
      vertex -2.5 -4.65 5.87143
      vertex -2.5 -7.5 10.7571
    endloop
  endfacet
  facet normal -1 0 -6.12323e-17
    outer loop
      vertex -2.5 -7.5 10.7571
      vertex -2.5 -4.65 5.87143
      vertex -2.5 -4.67923 5.87143
    endloop
  endfacet
  facet normal -1 0 -6.12323e-17
    outer loop
      vertex -2.5 -4.67923 5.87143
      vertex -2.5 -4.66462 5.84611
      vertex -2.5 -7.48538 4.21754
    endloop
  endfacet
  facet normal -1 0 -6.12323e-17
    outer loop
      vertex -2.5 -7.5 6
      vertex -2.5 -7.48538 4.21754
      vertex -2.5 -7.5 4.24286
    endloop
  endfacet
  facet normal -1 0 -6.12323e-17
    outer loop
      vertex -2.5 -7.5 6
      vertex -2.5 -7.5 4.24286
      vertex -2.5 -7.51462 4.21754
    endloop
  endfacet
  facet normal -1 0 -6.12323e-17
    outer loop
      vertex -2.5 -10.3208 5.87143
      vertex -2.5 -7.51462 4.21754
      vertex -2.5 -10.3354 5.84611
    endloop
  endfacet
  facet normal -1 0 -6.12323e-17
    outer loop
      vertex -2.5 -8.92658 7.03648
      vertex -2.5 -7.51462 4.21754
      vertex -2.5 -10.3208 5.87143
    endloop
  endfacet
  facet normal -1 0 -6.12323e-17
    outer loop
      vertex -2.5 -10.3354 9.15389
      vertex -2.5 -7.5 10.7571
      vertex -2.5 -10.3208 9.12857
    endloop
  endfacet
  facet normal -1 0 -6.12323e-17
    outer loop
      vertex -2.5 -10.3208 5.87143
      vertex -2.5 -10.35 5.87143
      vertex -2.5 -7.5 10.7571
    endloop
  endfacet
  facet normal -1 0 -6.12323e-17
    outer loop
      vertex -2.5 -10.35 5.87143
      vertex -2.5 -10.35 9.12857
      vertex -2.5 -10.3208 9.12857
    endloop
  endfacet
  facet normal -1 0 -6.12323e-17
    outer loop
      vertex -2.5 -6.07341 7.03648
      vertex -2.5 -7.48538 4.21754
      vertex -2.5 -7.5 6
    endloop
  endfacet
  facet normal -1 0 -6.12323e-17
    outer loop
      vertex -2.5 -7.5 6
      vertex -2.5 -7.51462 4.21754
      vertex -2.5 -8.92658 7.03648
    endloop
  endfacet
  facet normal -1 0 -6.12323e-17
    outer loop
      vertex -2.5 -7.5 10.7571
      vertex -2.5 -8.38168 8.71352
      vertex -2.5 -10.3208 5.87143
    endloop
  endfacet
  facet normal -1 0 -6.12323e-17
    outer loop
      vertex -2.5 -8.38168 8.71352
      vertex -2.5 -8.92658 7.03648
      vertex -2.5 -10.3208 5.87143
    endloop
  endfacet
  facet normal -1 0 -6.12323e-17
    outer loop
      vertex -2.5 -4.67923 5.87143
      vertex -2.5 -7.48538 4.21754
      vertex -2.5 -6.07341 7.03648
    endloop
  endfacet
  facet normal -1 0 -6.12323e-17
    outer loop
      vertex -2.5 -4.67923 5.87143
      vertex -2.5 -6.07341 7.03648
      vertex -2.5 -6.61832 8.71352
    endloop
  endfacet
  facet normal -1 0 -6.12323e-17
    outer loop
      vertex -2.5 -4.67923 5.87143
      vertex -2.5 -6.61832 8.71352
      vertex -2.5 -7.5 10.7571
    endloop
  endfacet
  facet normal -1 0 -6.12323e-17
    outer loop
      vertex -2.5 -7.5 10.7571
      vertex -2.5 -10.35 5.87143
      vertex -2.5 -10.3208 9.12857
    endloop
  endfacet
  facet normal -1 0 -6.12323e-17
    outer loop
      vertex -2.5 -8.38168 8.71352
      vertex -2.5 -7.5 10.7571
      vertex -2.5 -6.61832 8.71352
    endloop
  endfacet
  facet normal -1 0 -6.12323e-17
    outer loop
      vertex -2.5 -7.5 10.7571
      vertex -2.5 -10.3354 9.15389
      vertex -2.5 -7.51462 10.7825
    endloop
  endfacet
endsolid OpenSCAD_Model
