solid OpenSCAD_Model
  facet normal -1 0 0
    outer loop
      vertex -3.88377 -9.95726 0
      vertex -3.88377 -7.51462 6.71754
      vertex -3.88377 20.9573 0
    endloop
  endfacet
  facet normal -1 0 0
    outer loop
      vertex -3.88377 -9.95726 0
      vertex -3.88377 -9.95726 8.1278
      vertex -3.88377 -7.51462 6.71754
    endloop
  endfacet
  facet normal -1 0 0
    outer loop
      vertex -3.88377 -7.51462 6.71754
      vertex -3.88377 -7.5 6.74286
      vertex -3.88377 -7.48538 6.71754
    endloop
  endfacet
  facet normal -1 0 0
    outer loop
      vertex -3.88377 -7.51462 6.71754
      vertex -3.88377 -7.48538 6.71754
      vertex -3.88377 20.9573 0
    endloop
  endfacet
  facet normal -1 0 0
    outer loop
      vertex -3.88377 20.9573 0
      vertex -3.88377 -4.66462 8.34611
      vertex -3.88377 -4.67923 8.37143
    endloop
  endfacet
  facet normal -1 0 0
    outer loop
      vertex -3.88377 20.9573 0
      vertex -3.88377 -4.67923 8.37143
      vertex -3.88377 -4.65 8.37143
    endloop
  endfacet
  facet normal -1 0 0
    outer loop
      vertex -3.88377 20.9573 0
      vertex -3.88377 -4.65 8.37143
      vertex -3.88377 -4.65 11.6286
    endloop
  endfacet
  facet normal -1 0 0
    outer loop
      vertex -3.88377 -4.65 11.6286
      vertex -3.88377 -4.67923 11.6286
      vertex -3.88377 -4.66462 11.6539
    endloop
  endfacet
  facet normal -1 0 0
    outer loop
      vertex -3.88377 -4.65 11.6286
      vertex -3.88377 -4.66462 11.6539
      vertex -3.88377 20.9573 0
    endloop
  endfacet
  facet normal -1 0 0
    outer loop
      vertex -3.88377 -4.66462 11.6539
      vertex -3.88377 -7.48538 13.2825
      vertex -3.88377 20.9573 0
    endloop
  endfacet
  facet normal -1 0 0
    outer loop
      vertex -3.88377 -7.48538 13.2825
      vertex -3.88377 -7.5 13.2571
      vertex -3.88377 -7.51462 13.2825
    endloop
  endfacet
  facet normal -1 0 0
    outer loop
      vertex -3.88377 -7.48538 13.2825
      vertex -3.88377 -9.95726 20
      vertex -3.88377 20.9573 0
    endloop
  endfacet
  facet normal -1 0 0
    outer loop
      vertex -3.88377 -7.51462 13.2825
      vertex -3.88377 -9.95726 11.8722
      vertex -3.88377 -9.95726 20
    endloop
  endfacet
  facet normal -1 0 0
    outer loop
      vertex -3.88377 -7.51462 13.2825
      vertex -3.88377 -9.95726 20
      vertex -3.88377 -7.48538 13.2825
    endloop
  endfacet
  facet normal -1 0 0
    outer loop
      vertex -3.88377 20.9573 0
      vertex -3.88377 -9.95726 20
      vertex -3.88377 20.9573 20
    endloop
  endfacet
  facet normal -1 0 0
    outer loop
      vertex -3.88377 -4.66462 8.34611
      vertex -3.88377 20.9573 0
      vertex -3.88377 -7.48538 6.71754
    endloop
  endfacet
  facet normal -0.885456 -0.464723 0
    outer loop
      vertex -3.88377 -9.95726 0
      vertex -2.99404 -11.6525 0
      vertex -3.88377 -9.95726 8.1278
    endloop
  endfacet
  facet normal -0.885456 -0.464723 0
    outer loop
      vertex -3.67764 -10.35 8.37143
      vertex -2.99404 -11.6525 0
      vertex -2.99404 -11.6525 20
    endloop
  endfacet
  facet normal -0.885456 -0.464723 0
    outer loop
      vertex -3.88377 -9.95726 11.8722
      vertex -2.99404 -11.6525 20
      vertex -3.88377 -9.95726 20
    endloop
  endfacet
  facet normal -0.885456 -0.464723 0
    outer loop
      vertex -3.68531 -10.3354 11.6539
      vertex -2.99404 -11.6525 20
      vertex -3.88377 -9.95726 11.8722
    endloop
  endfacet
  facet normal -0.885456 -0.464723 0
    outer loop
      vertex -3.67764 -10.35 11.6286
      vertex -2.99404 -11.6525 20
      vertex -3.68531 -10.3354 11.6539
    endloop
  endfacet
  facet normal -0.885456 -0.464723 0
    outer loop
      vertex -3.67764 -10.35 8.37143
      vertex -2.99404 -11.6525 20
      vertex -3.67764 -10.35 11.6286
    endloop
  endfacet
  facet normal -0.885456 -0.464723 0
    outer loop
      vertex -3.68531 -10.3354 8.34611
      vertex -2.99404 -11.6525 0
      vertex -3.67764 -10.35 8.37143
    endloop
  endfacet
  facet normal -0.885456 -0.464723 0
    outer loop
      vertex -3.68531 -10.3354 8.34611
      vertex -3.67764 -10.35 8.37143
      vertex -3.69299 -10.3208 8.37143
    endloop
  endfacet
  facet normal -0.885456 -0.464723 0
    outer loop
      vertex -3.88377 -9.95726 8.1278
      vertex -2.99404 -11.6525 0
      vertex -3.68531 -10.3354 8.34611
    endloop
  endfacet
  facet normal -0.885456 -0.464723 0
    outer loop
      vertex -3.67764 -10.35 11.6286
      vertex -3.68531 -10.3354 11.6539
      vertex -3.69299 -10.3208 11.6286
    endloop
  endfacet
  facet normal 0 0 -1
    outer loop
      vertex -3.88377 -9.95726 0
      vertex -3.88377 20.9573 0
      vertex -2.99404 -11.6525 0
    endloop
  endfacet
  facet normal 0 0 -1
    outer loop
      vertex -2.99404 -11.6525 0
      vertex -3.88377 20.9573 0
      vertex -2.99404 22.6525 0
    endloop
  endfacet
  facet normal 0 0 -1
    outer loop
      vertex -2.99404 -11.6525 0
      vertex -2.99404 22.6525 0
      vertex -1.41842 23.7401 0
    endloop
  endfacet
  facet normal 0 0 -1
    outer loop
      vertex 0 20 0
      vertex -1.41842 23.7401 0
      vertex 0.482147 23.9708 0
    endloop
  endfacet
  facet normal 0 0 -1
    outer loop
      vertex 20 20 0
      vertex 22.2723 23.2919 0
      vertex 23.5418 21.8589 0
    endloop
  endfacet
  facet normal 0 0 -1
    outer loop
      vertex 0 20 0
      vertex 20.4821 23.9708 0
      vertex 22.2723 23.2919 0
    endloop
  endfacet
  facet normal 0 0 -1
    outer loop
      vertex 20 0 0
      vertex 24 20 0
      vertex 24 -9 0
    endloop
  endfacet
  facet normal 0 0 -1
    outer loop
      vertex 20 20 0
      vertex 24 20 0
      vertex 20 0 0
    endloop
  endfacet
  facet normal 0 0 -1
    outer loop
      vertex 0 20 0
      vertex 22.2723 23.2919 0
      vertex 20 20 0
    endloop
  endfacet
  facet normal 0 0 -1
    outer loop
      vertex 20 20 0
      vertex 23.5418 21.8589 0
      vertex 24 20 0
    endloop
  endfacet
  facet normal 0 0 -1
    outer loop
      vertex 18.5 0 0
      vertex 20 0 0
      vertex 24 -9 0
    endloop
  endfacet
  facet normal 0 0 -1
    outer loop
      vertex 0 20 0
      vertex 0.482147 23.9708 0
      vertex 20.4821 23.9708 0
    endloop
  endfacet
  facet normal 0 0 -1
    outer loop
      vertex -2.99404 -11.6525 0
      vertex -1.41842 23.7401 0
      vertex 0 20 0
    endloop
  endfacet
  facet normal 0 0 -1
    outer loop
      vertex 1.5 -12.9708 0
      vertex -2.99404 -11.6525 0
      vertex 1.5 0 0
    endloop
  endfacet
  facet normal 0 0 -1
    outer loop
      vertex -2.99404 -11.6525 0
      vertex 0 0 0
      vertex 1.5 0 0
    endloop
  endfacet
  facet normal 0 0 -1
    outer loop
      vertex -2.99404 -11.6525 0
      vertex 1.5 -12.9708 0
      vertex 0.482147 -12.9708 0
    endloop
  endfacet
  facet normal 0 0 -1
    outer loop
      vertex -2.99404 -11.6525 0
      vertex 0.482147 -12.9708 0
      vertex -1.41842 -12.7401 0
    endloop
  endfacet
  facet normal 0 0 -1
    outer loop
      vertex 18.5 0 0
      vertex 24 -9 0
      vertex 23.5418 -10.8589 0
    endloop
  endfacet
  facet normal 0 0 -1
    outer loop
      vertex 18.5 0 0
      vertex 23.5418 -10.8589 0
      vertex 22.2723 -12.2919 0
    endloop
  endfacet
  facet normal 0 0 -1
    outer loop
      vertex 18.5 0 0
      vertex 22.2723 -12.2919 0
      vertex 20.4821 -12.9708 0
    endloop
  endfacet
  facet normal 0 0 -1
    outer loop
      vertex 18.5 0 0
      vertex 20.4821 -12.9708 0
      vertex 18.5 -12.9708 0
    endloop
  endfacet
  facet normal 0 0 -1
    outer loop
      vertex 0 0 0
      vertex -2.99404 -11.6525 0
      vertex 0 20 0
    endloop
  endfacet
  facet normal -0.885456 0.464723 0
    outer loop
      vertex -3.88377 20.9573 0
      vertex -3.88377 20.9573 20
      vertex -2.99404 22.6525 0
    endloop
  endfacet
  facet normal -0.885456 0.464723 0
    outer loop
      vertex -2.99404 22.6525 0
      vertex -3.88377 20.9573 20
      vertex -2.99404 22.6525 20
    endloop
  endfacet
  facet normal 0 0 1
    outer loop
      vertex -3.88377 20.9573 20
      vertex -3.88377 -9.95726 20
      vertex -2.99404 -11.6525 20
    endloop
  endfacet
  facet normal 0 0 1
    outer loop
      vertex 0.482147 -12.9708 20
      vertex -3.88377 20.9573 20
      vertex -1.41842 -12.7401 20
    endloop
  endfacet
  facet normal 0 0 1
    outer loop
      vertex -1.41842 -12.7401 20
      vertex -3.88377 20.9573 20
      vertex -2.99404 -11.6525 20
    endloop
  endfacet
  facet normal 0 0 1
    outer loop
      vertex 1.5 -12.9708 20
      vertex -3.88377 20.9573 20
      vertex 0.482147 -12.9708 20
    endloop
  endfacet
  facet normal 0 0 1
    outer loop
      vertex 0 0 20
      vertex -3.88377 20.9573 20
      vertex 1.5 -12.9708 20
    endloop
  endfacet
  facet normal 0 0 1
    outer loop
      vertex 1.5 0 20
      vertex 0 0 20
      vertex 1.5 -12.9708 20
    endloop
  endfacet
  facet normal 0 0 1
    outer loop
      vertex 18.5 0 20
      vertex 18.5 -12.9708 20
      vertex 20 0 20
    endloop
  endfacet
  facet normal 0 0 1
    outer loop
      vertex 20 20 20
      vertex -3.88377 20.9573 20
      vertex 0 20 20
    endloop
  endfacet
  facet normal 0 0 1
    outer loop
      vertex 24 20 20
      vertex -3.88377 20.9573 20
      vertex 20 20 20
    endloop
  endfacet
  facet normal 0 0 1
    outer loop
      vertex 20.4821 -12.9708 20
      vertex 20 20 20
      vertex 20 0 20
    endloop
  endfacet
  facet normal 0 0 1
    outer loop
      vertex 20.4821 -12.9708 20
      vertex 20 0 20
      vertex 18.5 -12.9708 20
    endloop
  endfacet
  facet normal 0 0 1
    outer loop
      vertex 22.2723 -12.2919 20
      vertex 20 20 20
      vertex 20.4821 -12.9708 20
    endloop
  endfacet
  facet normal 0 0 1
    outer loop
      vertex 23.5418 -10.8589 20
      vertex 20 20 20
      vertex 22.2723 -12.2919 20
    endloop
  endfacet
  facet normal 0 0 1
    outer loop
      vertex 24 -9 20
      vertex 20 20 20
      vertex 23.5418 -10.8589 20
    endloop
  endfacet
  facet normal 0 0 1
    outer loop
      vertex 24 20 20
      vertex 20 20 20
      vertex 24 -9 20
    endloop
  endfacet
  facet normal 0 0 1
    outer loop
      vertex 23.5418 21.8589 20
      vertex -3.88377 20.9573 20
      vertex 24 20 20
    endloop
  endfacet
  facet normal 0 0 1
    outer loop
      vertex 22.2723 23.2919 20
      vertex -3.88377 20.9573 20
      vertex 23.5418 21.8589 20
    endloop
  endfacet
  facet normal 0 0 1
    outer loop
      vertex 20.4821 23.9708 20
      vertex -3.88377 20.9573 20
      vertex 22.2723 23.2919 20
    endloop
  endfacet
  facet normal 0 0 1
    outer loop
      vertex 0.482147 23.9708 20
      vertex -3.88377 20.9573 20
      vertex 20.4821 23.9708 20
    endloop
  endfacet
  facet normal 0 0 1
    outer loop
      vertex -1.41842 23.7401 20
      vertex -3.88377 20.9573 20
      vertex 0.482147 23.9708 20
    endloop
  endfacet
  facet normal 0 0 1
    outer loop
      vertex -2.99404 22.6525 20
      vertex -3.88377 20.9573 20
      vertex -1.41842 23.7401 20
    endloop
  endfacet
  facet normal 0 0 1
    outer loop
      vertex 0 0 20
      vertex 0 20 20
      vertex -3.88377 20.9573 20
    endloop
  endfacet
  facet normal 5.30288e-17 0.5 -0.866025
    outer loop
      vertex -2.5 -7.51462 13.2825
      vertex -2.5 -10.3354 11.6539
      vertex -3.88377 -7.51462 13.2825
    endloop
  endfacet
  facet normal 5.30288e-17 0.5 -0.866025
    outer loop
      vertex -3.88377 -7.51462 13.2825
      vertex -2.5 -10.3354 11.6539
      vertex -3.68531 -10.3354 11.6539
    endloop
  endfacet
  facet normal 5.30288e-17 0.5 -0.866025
    outer loop
      vertex -3.88377 -7.51462 13.2825
      vertex -3.68531 -10.3354 11.6539
      vertex -3.88377 -9.95726 11.8722
    endloop
  endfacet
  facet normal 3.06162e-17 -0.866025 -0.5
    outer loop
      vertex -3.88377 -7.5 13.2571
      vertex -2.5 -7.5 13.2571
      vertex -2.5 -7.51462 13.2825
    endloop
  endfacet
  facet normal 3.06162e-17 -0.866025 -0.5
    outer loop
      vertex -3.88377 -7.51462 13.2825
      vertex -3.88377 -7.5 13.2571
      vertex -2.5 -7.51462 13.2825
    endloop
  endfacet
  facet normal 3.06162e-17 0.866025 -0.5
    outer loop
      vertex -2.5 -7.48538 13.2825
      vertex -2.5 -7.5 13.2571
      vertex -3.88377 -7.48538 13.2825
    endloop
  endfacet
  facet normal 3.06162e-17 0.866025 -0.5
    outer loop
      vertex -3.88377 -7.48538 13.2825
      vertex -2.5 -7.5 13.2571
      vertex -3.88377 -7.5 13.2571
    endloop
  endfacet
  facet normal 5.30288e-17 -0.5 -0.866025
    outer loop
      vertex -2.5 -4.66462 11.6539
      vertex -2.5 -7.48538 13.2825
      vertex -3.88377 -4.66462 11.6539
    endloop
  endfacet
  facet normal 5.30288e-17 -0.5 -0.866025
    outer loop
      vertex -3.88377 -4.66462 11.6539
      vertex -2.5 -7.48538 13.2825
      vertex -3.88377 -7.48538 13.2825
    endloop
  endfacet
  facet normal -3.06162e-17 -0.866025 0.5
    outer loop
      vertex -2.5 -4.67923 11.6286
      vertex -2.5 -4.66462 11.6539
      vertex -3.88377 -4.66462 11.6539
    endloop
  endfacet
  facet normal -3.06162e-17 -0.866025 0.5
    outer loop
      vertex -3.88377 -4.67923 11.6286
      vertex -2.5 -4.67923 11.6286
      vertex -3.88377 -4.66462 11.6539
    endloop
  endfacet
  facet normal 6.12323e-17 0 -1
    outer loop
      vertex -2.5 -4.65 11.6286
      vertex -2.5 -4.67923 11.6286
      vertex -3.88377 -4.65 11.6286
    endloop
  endfacet
  facet normal 6.12323e-17 0 -1
    outer loop
      vertex -3.88377 -4.65 11.6286
      vertex -2.5 -4.67923 11.6286
      vertex -3.88377 -4.67923 11.6286
    endloop
  endfacet
  facet normal 0 -1 0
    outer loop
      vertex -2.5 -4.65 8.37143
      vertex -2.5 -4.65 11.6286
      vertex -3.88377 -4.65 11.6286
    endloop
  endfacet
  facet normal 0 -1 0
    outer loop
      vertex -3.88377 -4.65 8.37143
      vertex -2.5 -4.65 8.37143
      vertex -3.88377 -4.65 11.6286
    endloop
  endfacet
  facet normal -6.12323e-17 0 1
    outer loop
      vertex -2.5 -4.67923 8.37143
      vertex -2.5 -4.65 8.37143
      vertex -3.88377 -4.65 8.37143
    endloop
  endfacet
  facet normal -6.12323e-17 0 1
    outer loop
      vertex -3.88377 -4.67923 8.37143
      vertex -2.5 -4.67923 8.37143
      vertex -3.88377 -4.65 8.37143
    endloop
  endfacet
  facet normal 3.06162e-17 -0.866025 -0.5
    outer loop
      vertex -3.88377 -4.66462 8.34611
      vertex -2.5 -4.66462 8.34611
      vertex -2.5 -4.67923 8.37143
    endloop
  endfacet
  facet normal 3.06162e-17 -0.866025 -0.5
    outer loop
      vertex -3.88377 -4.67923 8.37143
      vertex -3.88377 -4.66462 8.34611
      vertex -2.5 -4.67923 8.37143
    endloop
  endfacet
  facet normal -5.30288e-17 -0.5 0.866025
    outer loop
      vertex -2.5 -7.48538 6.71754
      vertex -2.5 -4.66462 8.34611
      vertex -3.88377 -4.66462 8.34611
    endloop
  endfacet
  facet normal -5.30288e-17 -0.5 0.866025
    outer loop
      vertex -3.88377 -7.48538 6.71754
      vertex -2.5 -7.48538 6.71754
      vertex -3.88377 -4.66462 8.34611
    endloop
  endfacet
  facet normal -3.06162e-17 0.866025 0.5
    outer loop
      vertex -2.5 -7.48538 6.71754
      vertex -3.88377 -7.48538 6.71754
      vertex -2.5 -7.5 6.74286
    endloop
  endfacet
  facet normal -3.06162e-17 0.866025 0.5
    outer loop
      vertex -2.5 -7.5 6.74286
      vertex -3.88377 -7.48538 6.71754
      vertex -3.88377 -7.5 6.74286
    endloop
  endfacet
  facet normal -3.06162e-17 -0.866025 0.5
    outer loop
      vertex -2.5 -7.51462 6.71754
      vertex -2.5 -7.5 6.74286
      vertex -3.88377 -7.5 6.74286
    endloop
  endfacet
  facet normal -3.06162e-17 -0.866025 0.5
    outer loop
      vertex -3.88377 -7.51462 6.71754
      vertex -2.5 -7.51462 6.71754
      vertex -3.88377 -7.5 6.74286
    endloop
  endfacet
  facet normal -5.30288e-17 0.5 0.866025
    outer loop
      vertex -3.68531 -10.3354 8.34611
      vertex -2.5 -10.3354 8.34611
      vertex -2.5 -7.51462 6.71754
    endloop
  endfacet
  facet normal -5.30288e-17 0.5 0.866025
    outer loop
      vertex -3.88377 -9.95726 8.1278
      vertex -3.68531 -10.3354 8.34611
      vertex -3.88377 -7.51462 6.71754
    endloop
  endfacet
  facet normal -5.30288e-17 0.5 0.866025
    outer loop
      vertex -3.88377 -7.51462 6.71754
      vertex -3.68531 -10.3354 8.34611
      vertex -2.5 -7.51462 6.71754
    endloop
  endfacet
  facet normal 3.06162e-17 0.866025 -0.5
    outer loop
      vertex -2.5 -10.3354 8.34611
      vertex -3.68531 -10.3354 8.34611
      vertex -2.5 -10.3208 8.37143
    endloop
  endfacet
  facet normal 3.06162e-17 0.866025 -0.5
    outer loop
      vertex -2.5 -10.3208 8.37143
      vertex -3.68531 -10.3354 8.34611
      vertex -3.69299 -10.3208 8.37143
    endloop
  endfacet
  facet normal -6.12323e-17 0 1
    outer loop
      vertex -3.67764 -10.35 8.37143
      vertex -2.5 -10.35 8.37143
      vertex -2.5 -10.3208 8.37143
    endloop
  endfacet
  facet normal -6.12323e-17 0 1
    outer loop
      vertex -3.69299 -10.3208 8.37143
      vertex -3.67764 -10.35 8.37143
      vertex -2.5 -10.3208 8.37143
    endloop
  endfacet
  facet normal 0 1 0
    outer loop
      vertex -2.5 -10.35 11.6286
      vertex -2.5 -10.35 8.37143
      vertex -3.67764 -10.35 11.6286
    endloop
  endfacet
  facet normal 0 1 0
    outer loop
      vertex -3.67764 -10.35 11.6286
      vertex -2.5 -10.35 8.37143
      vertex -3.67764 -10.35 8.37143
    endloop
  endfacet
  facet normal 6.12323e-17 0 -1
    outer loop
      vertex -2.5 -10.35 11.6286
      vertex -3.67764 -10.35 11.6286
      vertex -2.5 -10.3208 11.6286
    endloop
  endfacet
  facet normal 6.12323e-17 0 -1
    outer loop
      vertex -2.5 -10.3208 11.6286
      vertex -3.67764 -10.35 11.6286
      vertex -3.69299 -10.3208 11.6286
    endloop
  endfacet
  facet normal -3.06162e-17 0.866025 0.5
    outer loop
      vertex -2.5 -10.3354 11.6539
      vertex -2.5 -10.3208 11.6286
      vertex -3.68531 -10.3354 11.6539
    endloop
  endfacet
  facet normal -3.06162e-17 0.866025 0.5
    outer loop
      vertex -3.68531 -10.3354 11.6539
      vertex -2.5 -10.3208 11.6286
      vertex -3.69299 -10.3208 11.6286
    endloop
  endfacet
  facet normal -0.568065 -0.822984 0
    outer loop
      vertex -2.99404 -11.6525 20
      vertex -2.99404 -11.6525 0
      vertex -1.41842 -12.7401 0
    endloop
  endfacet
  facet normal -0.568065 -0.822984 0
    outer loop
      vertex -1.41842 -12.7401 20
      vertex -2.99404 -11.6525 20
      vertex -1.41842 -12.7401 0
    endloop
  endfacet
  facet normal -0.120536 -0.992709 0
    outer loop
      vertex -1.41842 -12.7401 20
      vertex -1.41842 -12.7401 0
      vertex 0.482147 -12.9708 0
    endloop
  endfacet
  facet normal -0.120536 -0.992709 0
    outer loop
      vertex 0.482147 -12.9708 20
      vertex -1.41842 -12.7401 20
      vertex 0.482147 -12.9708 0
    endloop
  endfacet
  facet normal 0 -1 0
    outer loop
      vertex 0.482147 -12.9708 20
      vertex 0.482147 -12.9708 0
      vertex 1.5 -12.9708 0
    endloop
  endfacet
  facet normal 0 -1 0
    outer loop
      vertex 1.5 -12.9708 20
      vertex 0.482147 -12.9708 20
      vertex 1.5 -12.9708 0
    endloop
  endfacet
  facet normal 1 0 0
    outer loop
      vertex 1.5 -6.61832 11.2135
      vertex 1.5 0 20
      vertex 1.5 -12.9708 20
    endloop
  endfacet
  facet normal 1 0 0
    outer loop
      vertex 1.5 -12.9708 0
      vertex 1.5 -8.38168 11.2135
      vertex 1.5 -12.9708 20
    endloop
  endfacet
  facet normal 1 0 0
    outer loop
      vertex 1.5 0 0
      vertex 1.5 0 20
      vertex 1.5 -6.61832 11.2135
    endloop
  endfacet
  facet normal 1 0 0
    outer loop
      vertex 1.5 -6.07341 9.53647
      vertex 1.5 -7.5 8.5
      vertex 1.5 0 0
    endloop
  endfacet
  facet normal 1 0 0
    outer loop
      vertex 1.5 0 0
      vertex 1.5 -6.61832 11.2135
      vertex 1.5 -6.07341 9.53647
    endloop
  endfacet
  facet normal 1 0 0
    outer loop
      vertex 1.5 -12.9708 0
      vertex 1.5 0 0
      vertex 1.5 -7.5 8.5
    endloop
  endfacet
  facet normal 1 0 0
    outer loop
      vertex 1.5 -12.9708 0
      vertex 1.5 -8.92658 9.53647
      vertex 1.5 -8.38168 11.2135
    endloop
  endfacet
  facet normal 1 0 0
    outer loop
      vertex 1.5 -12.9708 0
      vertex 1.5 -7.5 8.5
      vertex 1.5 -8.92658 9.53647
    endloop
  endfacet
  facet normal 1 0 0
    outer loop
      vertex 1.5 -8.38168 11.2135
      vertex 1.5 -6.61832 11.2135
      vertex 1.5 -12.9708 20
    endloop
  endfacet
  facet normal 0 1 0
    outer loop
      vertex 1.5 0 20
      vertex 1.5 0 0
      vertex 0 0 20
    endloop
  endfacet
  facet normal 0 1 0
    outer loop
      vertex 0 0 20
      vertex 1.5 0 0
      vertex 0 0 0
    endloop
  endfacet
  facet normal 1 0 0
    outer loop
      vertex 0 20 0
      vertex 0 20 20
      vertex 0 0 20
    endloop
  endfacet
  facet normal 1 0 0
    outer loop
      vertex 0 0 0
      vertex 0 20 0
      vertex 0 0 20
    endloop
  endfacet
  facet normal 0 -1 0
    outer loop
      vertex 20 20 0
      vertex 20 20 20
      vertex 0 20 20
    endloop
  endfacet
  facet normal 0 -1 0
    outer loop
      vertex 0 20 0
      vertex 20 20 0
      vertex 0 20 20
    endloop
  endfacet
  facet normal -1 0 0
    outer loop
      vertex 20 11.6072 3.5
      vertex 20 20 0
      vertex 20 0 0
    endloop
  endfacet
  facet normal -1 0 0
    outer loop
      vertex 20 0 20
      vertex 20 11.6072 3.5
      vertex 20 0 0
    endloop
  endfacet
  facet normal -1 0 0
    outer loop
      vertex 20 18.4644 3.9981
      vertex 20 20 0
      vertex 20 18.3928 3.5
    endloop
  endfacet
  facet normal -1 0 0
    outer loop
      vertex 20 20 20
      vertex 20 20 0
      vertex 20 18.4644 3.9981
    endloop
  endfacet
  facet normal -1 0 0
    outer loop
      vertex 20 14.0139 6.85823
      vertex 20 0 20
      vertex 20 15.9861 6.85823
    endloop
  endfacet
  facet normal -1 0 0
    outer loop
      vertex 20 20 20
      vertex 20 17.6451 5.79201
      vertex 20 0 20
    endloop
  endfacet
  facet normal -1 0 0
    outer loop
      vertex 20 17.6451 5.79201
      vertex 20 15.9861 6.85823
      vertex 20 0 20
    endloop
  endfacet
  facet normal -1 0 0
    outer loop
      vertex 20 17.6451 5.79201
      vertex 20 20 20
      vertex 20 18.4644 3.9981
    endloop
  endfacet
  facet normal -1 0 0
    outer loop
      vertex 20 0 20
      vertex 20 12.3549 5.79201
      vertex 20 11.5356 3.9981
    endloop
  endfacet
  facet normal -1 0 0
    outer loop
      vertex 20 0 20
      vertex 20 11.5356 3.9981
      vertex 20 11.6072 3.5
    endloop
  endfacet
  facet normal -1 0 0
    outer loop
      vertex 20 18.3928 3.5
      vertex 20 20 0
      vertex 20 11.6072 3.5
    endloop
  endfacet
  facet normal -1 0 0
    outer loop
      vertex 20 12.3549 5.79201
      vertex 20 0 20
      vertex 20 14.0139 6.85823
    endloop
  endfacet
  facet normal 0 1 0
    outer loop
      vertex 20 0 20
      vertex 20 0 0
      vertex 18.5 0 20
    endloop
  endfacet
  facet normal 0 1 0
    outer loop
      vertex 18.5 0 20
      vertex 20 0 0
      vertex 18.5 0 0
    endloop
  endfacet
  facet normal -1 0 0
    outer loop
      vertex 18.5 -8.38168 11.2135
      vertex 18.5 -12.9708 20
      vertex 18.5 -6.61832 11.2135
    endloop
  endfacet
  facet normal -1 0 0
    outer loop
      vertex 18.5 -8.92658 9.53648
      vertex 18.5 0 0
      vertex 18.5 -12.9708 0
    endloop
  endfacet
  facet normal -1 0 0
    outer loop
      vertex 18.5 -7.5 8.5
      vertex 18.5 0 0
      vertex 18.5 -8.92658 9.53648
    endloop
  endfacet
  facet normal -1 0 0
    outer loop
      vertex 18.5 -12.9708 20
      vertex 18.5 -8.92658 9.53648
      vertex 18.5 -12.9708 0
    endloop
  endfacet
  facet normal -1 0 0
    outer loop
      vertex 18.5 -6.07341 9.53648
      vertex 18.5 0 0
      vertex 18.5 -7.5 8.5
    endloop
  endfacet
  facet normal -1 0 0
    outer loop
      vertex 18.5 0 20
      vertex 18.5 0 0
      vertex 18.5 -6.07341 9.53648
    endloop
  endfacet
  facet normal -1 0 0
    outer loop
      vertex 18.5 0 20
      vertex 18.5 -6.07341 9.53648
      vertex 18.5 -6.61832 11.2135
    endloop
  endfacet
  facet normal -1 0 0
    outer loop
      vertex 18.5 0 20
      vertex 18.5 -6.61832 11.2135
      vertex 18.5 -12.9708 20
    endloop
  endfacet
  facet normal -1 0 0
    outer loop
      vertex 18.5 -8.92658 9.53648
      vertex 18.5 -12.9708 20
      vertex 18.5 -8.38168 11.2135
    endloop
  endfacet
  facet normal 0 -1 0
    outer loop
      vertex 18.5 -12.9708 20
      vertex 18.5 -12.9708 0
      vertex 20.4821 -12.9708 0
    endloop
  endfacet
  facet normal 0 -1 0
    outer loop
      vertex 20.4821 -12.9708 20
      vertex 18.5 -12.9708 20
      vertex 20.4821 -12.9708 0
    endloop
  endfacet
  facet normal 0.354605 -0.935016 0
    outer loop
      vertex 20.4821 -12.9708 20
      vertex 20.4821 -12.9708 0
      vertex 22.2723 -12.2919 0
    endloop
  endfacet
  facet normal 0.354605 -0.935016 0
    outer loop
      vertex 22.2723 -12.2919 20
      vertex 20.4821 -12.9708 20
      vertex 22.2723 -12.2919 0
    endloop
  endfacet
  facet normal 0.748511 -0.663123 0
    outer loop
      vertex 22.2723 -12.2919 20
      vertex 22.2723 -12.2919 0
      vertex 23.5418 -10.8589 0
    endloop
  endfacet
  facet normal 0.748511 -0.663123 0
    outer loop
      vertex 23.5418 -10.8589 20
      vertex 22.2723 -12.2919 20
      vertex 23.5418 -10.8589 0
    endloop
  endfacet
  facet normal 0.970942 -0.239316 0
    outer loop
      vertex 23.5418 -10.8589 20
      vertex 23.5418 -10.8589 0
      vertex 24 -9 0
    endloop
  endfacet
  facet normal 0.970942 -0.239316 0
    outer loop
      vertex 23.9113 -9.35993 9.39567
      vertex 23.5418 -10.8589 20
      vertex 24 -9 0
    endloop
  endfacet
  facet normal 0.970942 -0.239316 0
    outer loop
      vertex 24 -9 8.8285
      vertex 23.9918 -9.03343 8.88118
      vertex 24 -9 0
    endloop
  endfacet
  facet normal 0.970942 -0.239316 0
    outer loop
      vertex 23.9918 -9.03343 8.88118
      vertex 23.9113 -9.35993 9.39567
      vertex 24 -9 0
    endloop
  endfacet
  facet normal 0.970942 -0.239316 0
    outer loop
      vertex 23.9113 -9.35993 10.6043
      vertex 23.5418 -10.8589 20
      vertex 23.9113 -9.35993 9.39567
    endloop
  endfacet
  facet normal 0.970942 -0.239316 0
    outer loop
      vertex 24 -9 11.1715
      vertex 23.5418 -10.8589 20
      vertex 23.9907 -9.0378 11.1119
    endloop
  endfacet
  facet normal 0.970942 -0.239316 0
    outer loop
      vertex 24 -9 20
      vertex 23.5418 -10.8589 20
      vertex 24 -9 11.1715
    endloop
  endfacet
  facet normal 0.970942 -0.239316 0
    outer loop
      vertex 23.9113 -9.35993 10.6043
      vertex 23.9907 -9.0378 11.1119
      vertex 23.5418 -10.8589 20
    endloop
  endfacet
  facet normal 1 0 0
    outer loop
      vertex 24 15 8.88178e-16
      vertex 24 -9 0
      vertex 24 20 0
    endloop
  endfacet
  facet normal 1 0 0
    outer loop
      vertex 24 18.4644 3.9981
      vertex 24 18.1837 2.04605
      vertex 24 20 0
    endloop
  endfacet
  facet normal 1 0 0
    outer loop
      vertex 24 11.8163 2.04605
      vertex 24 -6.32443 8.38197
      vertex 24 -6.91221 8.19098
    endloop
  endfacet
  facet normal 1 0 0
    outer loop
      vertex 24 -5.59789 10.618
      vertex 24 -5.59789 9.38197
      vertex 24 20 20
    endloop
  endfacet
  facet normal 1 0 0
    outer loop
      vertex 24 -6.91221 11.809
      vertex 24 -6.32443 11.618
      vertex 24 20 20
    endloop
  endfacet
  facet normal 1 0 0
    outer loop
      vertex 24 -9 20
      vertex 24 -9 11.1715
      vertex 24 -8.67557 11.618
    endloop
  endfacet
  facet normal 1 0 0
    outer loop
      vertex 24 11.8163 2.04605
      vertex 24 -5.96116 8.88197
      vertex 24 -6.32443 8.38197
    endloop
  endfacet
  facet normal 1 0 0
    outer loop
      vertex 24 -9 20
      vertex 24 -8.67557 11.618
      vertex 24 -8.08779 11.809
    endloop
  endfacet
  facet normal 1 0 0
    outer loop
      vertex 24 -9 20
      vertex 24 -7.5 12
      vertex 24 20 20
    endloop
  endfacet
  facet normal 1 0 0
    outer loop
      vertex 24 -9 20
      vertex 24 -8.08779 11.809
      vertex 24 -7.5 12
    endloop
  endfacet
  facet normal 1 0 0
    outer loop
      vertex 24 -6.32443 11.618
      vertex 24 -5.96116 11.118
      vertex 24 20 20
    endloop
  endfacet
  facet normal 1 0 0
    outer loop
      vertex 24 -5.96116 11.118
      vertex 24 -5.59789 10.618
      vertex 24 20 20
    endloop
  endfacet
  facet normal 1 0 0
    outer loop
      vertex 24 12.3549 5.79201
      vertex 24 14.0139 6.85823
      vertex 24 20 20
    endloop
  endfacet
  facet normal 1 0 0
    outer loop
      vertex 24 15 8.88178e-16
      vertex 24 13.1078 0.555613
      vertex 24 -9 0
    endloop
  endfacet
  facet normal 1 0 0
    outer loop
      vertex 24 -7.5 8
      vertex 24 -9 0
      vertex 24 -6.91221 8.19098
    endloop
  endfacet
  facet normal 1 0 0
    outer loop
      vertex 24 -8.08779 8.19098
      vertex 24 -9 0
      vertex 24 -7.5 8
    endloop
  endfacet
  facet normal 1 0 0
    outer loop
      vertex 24 -8.67557 8.38197
      vertex 24 -9 0
      vertex 24 -8.08779 8.19098
    endloop
  endfacet
  facet normal 1 0 0
    outer loop
      vertex 24 -9 8.8285
      vertex 24 -9 0
      vertex 24 -8.67557 8.38197
    endloop
  endfacet
  facet normal 1 0 0
    outer loop
      vertex 24 -6.91221 8.19098
      vertex 24 -9 0
      vertex 24 11.8163 2.04605
    endloop
  endfacet
  facet normal 1 0 0
    outer loop
      vertex 24 12.3549 5.79201
      vertex 24 -5.59789 9.38197
      vertex 24 11.5356 3.9981
    endloop
  endfacet
  facet normal 1 0 0
    outer loop
      vertex 24 20 20
      vertex 24 -5.59789 9.38197
      vertex 24 12.3549 5.79201
    endloop
  endfacet
  facet normal 1 0 0
    outer loop
      vertex 24 18.1837 2.04605
      vertex 24 16.8922 0.555613
      vertex 24 20 0
    endloop
  endfacet
  facet normal 1 0 0
    outer loop
      vertex 24 20 20
      vertex 24 14.0139 6.85823
      vertex 24 15.9861 6.85823
    endloop
  endfacet
  facet normal 1 0 0
    outer loop
      vertex 24 20 20
      vertex 24 15.9861 6.85823
      vertex 24 17.6451 5.79201
    endloop
  endfacet
  facet normal 1 0 0
    outer loop
      vertex 24 20 20
      vertex 24 18.4644 3.9981
      vertex 24 20 0
    endloop
  endfacet
  facet normal 1 0 0
    outer loop
      vertex 24 20 20
      vertex 24 17.6451 5.79201
      vertex 24 18.4644 3.9981
    endloop
  endfacet
  facet normal 1 0 0
    outer loop
      vertex 24 16.8922 0.555613
      vertex 24 15 8.88178e-16
      vertex 24 20 0
    endloop
  endfacet
  facet normal 1 0 0
    outer loop
      vertex 24 11.8163 2.04605
      vertex 24 -9 0
      vertex 24 13.1078 0.555613
    endloop
  endfacet
  facet normal 1 0 0
    outer loop
      vertex 24 -7.5 12
      vertex 24 -6.91221 11.809
      vertex 24 20 20
    endloop
  endfacet
  facet normal 1 0 0
    outer loop
      vertex 24 11.8163 2.04605
      vertex 24 -5.59789 9.38197
      vertex 24 -5.96116 8.88197
    endloop
  endfacet
  facet normal 1 0 0
    outer loop
      vertex 24 11.8163 2.04605
      vertex 24 11.5356 3.9981
      vertex 24 -5.59789 9.38197
    endloop
  endfacet
  facet normal 0.970942 0.239316 0
    outer loop
      vertex 24 20 0
      vertex 23.5418 21.8589 0
      vertex 23.5418 21.8589 20
    endloop
  endfacet
  facet normal 0.970942 0.239316 0
    outer loop
      vertex 24 20 20
      vertex 24 20 0
      vertex 23.5418 21.8589 20
    endloop
  endfacet
  facet normal 0.748511 0.663123 0
    outer loop
      vertex 23.5418 21.8589 0
      vertex 22.2723 23.2919 0
      vertex 22.2723 23.2919 20
    endloop
  endfacet
  facet normal 0.748511 0.663123 0
    outer loop
      vertex 23.5418 21.8589 20
      vertex 23.5418 21.8589 0
      vertex 22.2723 23.2919 20
    endloop
  endfacet
  facet normal 0.354605 0.935016 0
    outer loop
      vertex 20.4821 23.9708 0
      vertex 20.4821 23.9708 20
      vertex 22.2723 23.2919 0
    endloop
  endfacet
  facet normal 0.354605 0.935016 0
    outer loop
      vertex 22.2723 23.2919 0
      vertex 20.4821 23.9708 20
      vertex 22.2723 23.2919 20
    endloop
  endfacet
  facet normal 0 1 0
    outer loop
      vertex 0.482147 23.9708 0
      vertex 0.482147 23.9708 20
      vertex 20.4821 23.9708 0
    endloop
  endfacet
  facet normal 0 1 0
    outer loop
      vertex 20.4821 23.9708 0
      vertex 0.482147 23.9708 20
      vertex 20.4821 23.9708 20
    endloop
  endfacet
  facet normal -0.120536 0.992709 0
    outer loop
      vertex -1.41842 23.7401 0
      vertex -1.41842 23.7401 20
      vertex 0.482147 23.9708 0
    endloop
  endfacet
  facet normal -0.120536 0.992709 0
    outer loop
      vertex 0.482147 23.9708 0
      vertex -1.41842 23.7401 20
      vertex 0.482147 23.9708 20
    endloop
  endfacet
  facet normal -0.568065 0.822984 0
    outer loop
      vertex -2.99404 22.6525 0
      vertex -2.99404 22.6525 20
      vertex -1.41842 23.7401 0
    endloop
  endfacet
  facet normal -0.568065 0.822984 0
    outer loop
      vertex -1.41842 23.7401 0
      vertex -2.99404 22.6525 20
      vertex -1.41842 23.7401 20
    endloop
  endfacet
  facet normal -1 0 -6.12323e-17
    outer loop
      vertex -2.5 -7.48538 13.2825
      vertex -2.5 -4.66462 11.6539
      vertex -2.5 -7.5 13.2571
    endloop
  endfacet
  facet normal -1 0 -6.12323e-17
    outer loop
      vertex -2.5 -7.5 13.2571
      vertex -2.5 -4.66462 11.6539
      vertex -2.5 -4.67923 11.6286
    endloop
  endfacet
  facet normal -1 0 -6.12323e-17
    outer loop
      vertex -2.5 -4.67923 11.6286
      vertex -2.5 -4.65 11.6286
      vertex -2.5 -4.65 8.37143
    endloop
  endfacet
  facet normal -1 0 -6.12323e-17
    outer loop
      vertex -2.5 -4.67923 11.6286
      vertex -2.5 -4.65 8.37143
      vertex -2.5 -7.5 13.2571
    endloop
  endfacet
  facet normal -1 0 -6.12323e-17
    outer loop
      vertex -2.5 -7.5 13.2571
      vertex -2.5 -4.65 8.37143
      vertex -2.5 -4.67923 8.37143
    endloop
  endfacet
  facet normal -1 0 -6.12323e-17
    outer loop
      vertex -2.5 -4.67923 8.37143
      vertex -2.5 -4.66462 8.34611
      vertex -2.5 -7.48538 6.71754
    endloop
  endfacet
  facet normal -1 0 -6.12323e-17
    outer loop
      vertex -2.5 -7.5 8.5
      vertex -2.5 -7.48538 6.71754
      vertex -2.5 -7.5 6.74286
    endloop
  endfacet
  facet normal -1 0 -6.12323e-17
    outer loop
      vertex -2.5 -7.5 8.5
      vertex -2.5 -7.5 6.74286
      vertex -2.5 -7.51462 6.71754
    endloop
  endfacet
  facet normal -1 0 -6.12323e-17
    outer loop
      vertex -2.5 -10.3208 8.37143
      vertex -2.5 -7.51462 6.71754
      vertex -2.5 -10.3354 8.34611
    endloop
  endfacet
  facet normal -1 0 -6.12323e-17
    outer loop
      vertex -2.5 -8.92658 9.53647
      vertex -2.5 -7.51462 6.71754
      vertex -2.5 -10.3208 8.37143
    endloop
  endfacet
  facet normal -1 0 -6.12323e-17
    outer loop
      vertex -2.5 -10.3354 11.6539
      vertex -2.5 -7.5 13.2571
      vertex -2.5 -10.3208 11.6286
    endloop
  endfacet
  facet normal -1 0 -6.12323e-17
    outer loop
      vertex -2.5 -10.3208 8.37143
      vertex -2.5 -10.35 8.37143
      vertex -2.5 -7.5 13.2571
    endloop
  endfacet
  facet normal -1 0 -6.12323e-17
    outer loop
      vertex -2.5 -10.35 8.37143
      vertex -2.5 -10.35 11.6286
      vertex -2.5 -10.3208 11.6286
    endloop
  endfacet
  facet normal -1 0 -6.12323e-17
    outer loop
      vertex -2.5 -6.07341 9.53647
      vertex -2.5 -7.48538 6.71754
      vertex -2.5 -7.5 8.5
    endloop
  endfacet
  facet normal -1 0 -6.12323e-17
    outer loop
      vertex -2.5 -7.5 8.5
      vertex -2.5 -7.51462 6.71754
      vertex -2.5 -8.92658 9.53647
    endloop
  endfacet
  facet normal -1 0 -6.12323e-17
    outer loop
      vertex -2.5 -7.5 13.2571
      vertex -2.5 -8.38168 11.2135
      vertex -2.5 -10.3208 8.37143
    endloop
  endfacet
  facet normal -1 0 -6.12323e-17
    outer loop
      vertex -2.5 -8.38168 11.2135
      vertex -2.5 -8.92658 9.53647
      vertex -2.5 -10.3208 8.37143
    endloop
  endfacet
  facet normal -1 0 -6.12323e-17
    outer loop
      vertex -2.5 -4.67923 8.37143
      vertex -2.5 -7.48538 6.71754
      vertex -2.5 -6.07341 9.53647
    endloop
  endfacet
  facet normal -1 0 -6.12323e-17
    outer loop
      vertex -2.5 -4.67923 8.37143
      vertex -2.5 -6.07341 9.53647
      vertex -2.5 -6.61832 11.2135
    endloop
  endfacet
  facet normal -1 0 -6.12323e-17
    outer loop
      vertex -2.5 -4.67923 8.37143
      vertex -2.5 -6.61832 11.2135
      vertex -2.5 -7.5 13.2571
    endloop
  endfacet
  facet normal -1 0 -6.12323e-17
    outer loop
      vertex -2.5 -7.5 13.2571
      vertex -2.5 -10.35 8.37143
      vertex -2.5 -10.3208 11.6286
    endloop
  endfacet
  facet normal -1 0 -6.12323e-17
    outer loop
      vertex -2.5 -8.38168 11.2135
      vertex -2.5 -7.5 13.2571
      vertex -2.5 -6.61832 11.2135
    endloop
  endfacet
  facet normal -1 0 -6.12323e-17
    outer loop
      vertex -2.5 -7.5 13.2571
      vertex -2.5 -10.3354 11.6539
      vertex -2.5 -7.51462 13.2825
    endloop
  endfacet
  facet normal 6.12323e-17 0 -1
    outer loop
      vertex 1.5 -6.61832 11.2135
      vertex 1.5 -8.38168 11.2135
      vertex -2.5 -6.61832 11.2135
    endloop
  endfacet
  facet normal 6.12323e-17 0 -1
    outer loop
      vertex -2.5 -6.61832 11.2135
      vertex 1.5 -8.38168 11.2135
      vertex -2.5 -8.38168 11.2135
    endloop
  endfacet
  facet normal 1.89218e-17 0.951056 -0.309017
    outer loop
      vertex 1.5 -8.92658 9.53647
      vertex -2.5 -8.92658 9.53647
      vertex 1.5 -8.38168 11.2135
    endloop
  endfacet
  facet normal 1.89218e-17 0.951056 -0.309017
    outer loop
      vertex 1.5 -8.38168 11.2135
      vertex -2.5 -8.92658 9.53647
      vertex -2.5 -8.38168 11.2135
    endloop
  endfacet
  facet normal -4.9538e-17 0.587785 0.809017
    outer loop
      vertex 1.5 -8.92658 9.53647
      vertex 1.5 -7.5 8.5
      vertex -2.5 -7.5 8.5
    endloop
  endfacet
  facet normal -4.9538e-17 0.587785 0.809017
    outer loop
      vertex -2.5 -8.92658 9.53647
      vertex 1.5 -8.92658 9.53647
      vertex -2.5 -7.5 8.5
    endloop
  endfacet
  facet normal -4.9538e-17 -0.587785 0.809017
    outer loop
      vertex -2.5 -7.5 8.5
      vertex 1.5 -7.5 8.5
      vertex 1.5 -6.07341 9.53647
    endloop
  endfacet
  facet normal -4.9538e-17 -0.587785 0.809017
    outer loop
      vertex -2.5 -6.07341 9.53647
      vertex -2.5 -7.5 8.5
      vertex 1.5 -6.07341 9.53647
    endloop
  endfacet
  facet normal 1.89218e-17 -0.951056 -0.309017
    outer loop
      vertex -2.5 -6.07341 9.53647
      vertex 1.5 -6.07341 9.53647
      vertex 1.5 -6.61832 11.2135
    endloop
  endfacet
  facet normal 1.89218e-17 -0.951056 -0.309017
    outer loop
      vertex -2.5 -6.61832 11.2135
      vertex -2.5 -6.07341 9.53647
      vertex 1.5 -6.61832 11.2135
    endloop
  endfacet
  facet normal -1 0 -2.22045e-16
    outer loop
      vertex 20 14.0139 6.85823
      vertex 20 15.9861 6.85823
      vertex 20 12.3549 5.79201
    endloop
  endfacet
  facet normal -1 0 -2.22045e-16
    outer loop
      vertex 20 12.3549 5.79201
      vertex 20 15.9861 6.85823
      vertex 20 17.6451 5.79201
    endloop
  endfacet
  facet normal -1 0 -2.22045e-16
    outer loop
      vertex 20 12.3549 5.79201
      vertex 20 17.6451 5.79201
      vertex 20 18.4644 3.9981
    endloop
  endfacet
  facet normal -1 0 -2.22045e-16
    outer loop
      vertex 20 12.3549 5.79201
      vertex 20 18.4644 3.9981
      vertex 20 18.3928 3.5
    endloop
  endfacet
  facet normal -1 0 -2.22045e-16
    outer loop
      vertex 20 12.3549 5.79201
      vertex 20 18.3928 3.5
      vertex 20 11.6072 3.5
    endloop
  endfacet
  facet normal -1 0 -2.22045e-16
    outer loop
      vertex 20 12.3549 5.79201
      vertex 20 11.6072 3.5
      vertex 20 11.5356 3.9981
    endloop
  endfacet
  facet normal 1.89218e-17 0.951056 -0.309017
    outer loop
      vertex 23 -8.38168 11.2135
      vertex 23 -8.92658 9.53648
      vertex 18.5 -8.38168 11.2135
    endloop
  endfacet
  facet normal 1.89218e-17 0.951056 -0.309017
    outer loop
      vertex 18.5 -8.38168 11.2135
      vertex 23 -8.92658 9.53648
      vertex 18.5 -8.92658 9.53648
    endloop
  endfacet
  facet normal -4.9538e-17 0.587785 0.809017
    outer loop
      vertex 23 -8.92658 9.53648
      vertex 23 -7.5 8.5
      vertex 18.5 -7.5 8.5
    endloop
  endfacet
  facet normal -4.9538e-17 0.587785 0.809017
    outer loop
      vertex 18.5 -8.92658 9.53648
      vertex 23 -8.92658 9.53648
      vertex 18.5 -7.5 8.5
    endloop
  endfacet
  facet normal 6.12323e-17 0 -1
    outer loop
      vertex 18.5 -6.61832 11.2135
      vertex 23 -6.61832 11.2135
      vertex 23 -8.38168 11.2135
    endloop
  endfacet
  facet normal 6.12323e-17 0 -1
    outer loop
      vertex 18.5 -6.61832 11.2135
      vertex 23 -8.38168 11.2135
      vertex 18.5 -8.38168 11.2135
    endloop
  endfacet
  facet normal 1.89218e-17 -0.951056 -0.309017
    outer loop
      vertex 18.5 -6.07341 9.53648
      vertex 23 -6.07341 9.53648
      vertex 23 -6.61832 11.2135
    endloop
  endfacet
  facet normal 1.89218e-17 -0.951056 -0.309017
    outer loop
      vertex 23 -6.61832 11.2135
      vertex 18.5 -6.61832 11.2135
      vertex 18.5 -6.07341 9.53648
    endloop
  endfacet
  facet normal -4.9538e-17 -0.587785 0.809017
    outer loop
      vertex 23 -7.5 8.5
      vertex 23 -6.07341 9.53648
      vertex 18.5 -6.07341 9.53648
    endloop
  endfacet
  facet normal -4.9538e-17 -0.587785 0.809017
    outer loop
      vertex 18.5 -7.5 8.5
      vertex 23 -7.5 8.5
      vertex 18.5 -6.07341 9.53648
    endloop
  endfacet
  facet normal 0.429446 0.730617 -0.530825
    outer loop
      vertex 24 -8.67557 11.618
      vertex 24 -9 11.1715
      vertex 23 -8.38168 11.2135
    endloop
  endfacet
  facet normal 0.429446 0.730617 -0.530825
    outer loop
      vertex 23 -8.38168 11.2135
      vertex 24 -9 11.1715
      vertex 23.9907 -9.0378 11.1119
    endloop
  endfacet
  facet normal 0.429446 0.730617 -0.530825
    outer loop
      vertex 23 -8.38168 11.2135
      vertex 23.9907 -9.0378 11.1119
      vertex 23 -8.92658 10.4635
    endloop
  endfacet
  facet normal 0.429446 0.730617 -0.530825
    outer loop
      vertex 23.9907 -9.0378 11.1119
      vertex 23.9113 -9.35993 10.6043
      vertex 23 -8.92658 10.4635
    endloop
  endfacet
  facet normal 0.429446 0.903093 2.6296e-17
    outer loop
      vertex 23.9113 -9.35993 9.39567
      vertex 23 -8.92658 9.53647
      vertex 23.9113 -9.35993 10.6043
    endloop
  endfacet
  facet normal 0.429446 0.903093 2.6296e-17
    outer loop
      vertex 23.9113 -9.35993 10.6043
      vertex 23 -8.92658 9.53647
      vertex 23 -8.92658 9.53648
    endloop
  endfacet
  facet normal 0.429446 0.903093 2.6296e-17
    outer loop
      vertex 23.9113 -9.35993 10.6043
      vertex 23 -8.92658 9.53648
      vertex 23 -8.92658 10.4635
    endloop
  endfacet
  facet normal 0.429446 0.730617 0.530825
    outer loop
      vertex 23.9918 -9.03343 8.88118
      vertex 23 -8.38168 8.78647
      vertex 23.9113 -9.35993 9.39567
    endloop
  endfacet
  facet normal 0.429446 0.730617 0.530825
    outer loop
      vertex 23.9113 -9.35993 9.39567
      vertex 23 -8.38168 8.78647
      vertex 23 -8.92658 9.53647
    endloop
  endfacet
  facet normal 0.429446 0.730617 0.530825
    outer loop
      vertex 24 -9 8.8285
      vertex 24 -8.67557 8.38197
      vertex 23.9918 -9.03343 8.88118
    endloop
  endfacet
  facet normal 0.429446 0.730617 0.530825
    outer loop
      vertex 23.9918 -9.03343 8.88118
      vertex 24 -8.67557 8.38197
      vertex 23 -8.38168 8.78647
    endloop
  endfacet
  facet normal 0.429446 0.279071 0.858892
    outer loop
      vertex 24 -8.67557 8.38197
      vertex 24 -8.08779 8.19098
      vertex 23 -7.5 8.5
    endloop
  endfacet
  facet normal 0.429446 0.279071 0.858892
    outer loop
      vertex 23 -8.38168 8.78647
      vertex 24 -8.67557 8.38197
      vertex 23 -7.5 8.5
    endloop
  endfacet
  facet normal 0.429446 0.279071 0.858892
    outer loop
      vertex 24 -8.08779 8.19098
      vertex 24 -7.5 8
      vertex 23 -7.5 8.5
    endloop
  endfacet
  facet normal 0.429446 -0.279071 0.858892
    outer loop
      vertex 23 -7.5 8.5
      vertex 24 -7.5 8
      vertex 24 -6.91221 8.19098
    endloop
  endfacet
  facet normal 0.429446 -0.279071 0.858892
    outer loop
      vertex 23 -6.61832 8.78647
      vertex 23 -7.5 8.5
      vertex 24 -6.91221 8.19098
    endloop
  endfacet
  facet normal 0.429446 -0.279071 0.858892
    outer loop
      vertex 24 -6.91221 8.19098
      vertex 24 -6.32443 8.38197
      vertex 23 -6.61832 8.78647
    endloop
  endfacet
  facet normal 0.429446 -0.730617 0.530825
    outer loop
      vertex 23 -6.61832 8.78647
      vertex 24 -6.32443 8.38197
      vertex 24 -5.96116 8.88197
    endloop
  endfacet
  facet normal 0.429446 -0.730617 0.530825
    outer loop
      vertex 23 -6.07341 9.53647
      vertex 23 -6.61832 8.78647
      vertex 24 -5.96116 8.88197
    endloop
  endfacet
  facet normal 0.429446 -0.730617 0.530825
    outer loop
      vertex 24 -5.96116 8.88197
      vertex 24 -5.59789 9.38197
      vertex 23 -6.07341 9.53647
    endloop
  endfacet
  facet normal 0.429446 -0.903093 2.6296e-17
    outer loop
      vertex 23 -6.07341 9.53648
      vertex 23 -6.07341 9.53647
      vertex 24 -5.59789 9.38197
    endloop
  endfacet
  facet normal 0.429446 -0.903093 2.6296e-17
    outer loop
      vertex 23 -6.07341 10.4635
      vertex 23 -6.07341 9.53648
      vertex 24 -5.59789 10.618
    endloop
  endfacet
  facet normal 0.429446 -0.903093 2.6296e-17
    outer loop
      vertex 24 -5.59789 10.618
      vertex 23 -6.07341 9.53648
      vertex 24 -5.59789 9.38197
    endloop
  endfacet
  facet normal 0.429446 -0.730617 -0.530825
    outer loop
      vertex 23 -6.07341 10.4635
      vertex 24 -5.59789 10.618
      vertex 24 -5.96116 11.118
    endloop
  endfacet
  facet normal 0.429446 -0.730617 -0.530825
    outer loop
      vertex 23 -6.61832 11.2135
      vertex 23 -6.07341 10.4635
      vertex 24 -5.96116 11.118
    endloop
  endfacet
  facet normal 0.429446 -0.730617 -0.530825
    outer loop
      vertex 24 -5.96116 11.118
      vertex 24 -6.32443 11.618
      vertex 23 -6.61832 11.2135
    endloop
  endfacet
  facet normal 0.429446 -0.279071 -0.858892
    outer loop
      vertex 24 -6.32443 11.618
      vertex 24 -6.91221 11.809
      vertex 23 -6.61832 11.2135
    endloop
  endfacet
  facet normal 0.429446 -0.279071 -0.858892
    outer loop
      vertex 24 -6.91221 11.809
      vertex 23 -7.5 11.5
      vertex 23 -6.61832 11.2135
    endloop
  endfacet
  facet normal 0.429446 -0.279071 -0.858892
    outer loop
      vertex 24 -6.91221 11.809
      vertex 24 -7.5 12
      vertex 23 -7.5 11.5
    endloop
  endfacet
  facet normal 0.429446 0.279071 -0.858892
    outer loop
      vertex 24 -8.08779 11.809
      vertex 23 -8.38168 11.2135
      vertex 24 -7.5 12
    endloop
  endfacet
  facet normal 0.429446 0.279071 -0.858892
    outer loop
      vertex 24 -7.5 12
      vertex 23 -8.38168 11.2135
      vertex 23 -7.5 11.5
    endloop
  endfacet
  facet normal 0.429446 0.279071 -0.858892
    outer loop
      vertex 23 -8.38168 11.2135
      vertex 24 -8.08779 11.809
      vertex 24 -8.67557 11.618
    endloop
  endfacet
  facet normal 3.16002e-17 -0.989821 -0.142315
    outer loop
      vertex 50 11.5356 3.9981
      vertex 24 11.5356 3.9981
      vertex 24 11.8163 2.04605
    endloop
  endfacet
  facet normal 3.16002e-17 -0.989821 -0.142315
    outer loop
      vertex 50 11.8163 2.04605
      vertex 50 11.5356 3.9981
      vertex 24 11.8163 2.04605
    endloop
  endfacet
  facet normal 1.45408e-16 -0.755749 -0.654861
    outer loop
      vertex 50 11.8163 2.04605
      vertex 24 11.8163 2.04605
      vertex 24 13.1078 0.555613
    endloop
  endfacet
  facet normal 1.45408e-16 -0.755749 -0.654861
    outer loop
      vertex 50 13.1078 0.555613
      vertex 50 11.8163 2.04605
      vertex 24 13.1078 0.555613
    endloop
  endfacet
  facet normal 2.1305e-16 -0.281733 -0.959493
    outer loop
      vertex 24 13.1078 0.555613
      vertex 24 15 8.88178e-16
      vertex 50 13.1078 0.555613
    endloop
  endfacet
  facet normal 2.1305e-16 -0.281733 -0.959493
    outer loop
      vertex 50 13.1078 0.555613
      vertex 24 15 8.88178e-16
      vertex 50 15 6.66134e-15
    endloop
  endfacet
  facet normal 2.1305e-16 0.281733 -0.959493
    outer loop
      vertex 24 15 8.88178e-16
      vertex 24 16.8922 0.555613
      vertex 50 15 6.66134e-15
    endloop
  endfacet
  facet normal 2.1305e-16 0.281733 -0.959493
    outer loop
      vertex 50 15 6.66134e-15
      vertex 24 16.8922 0.555613
      vertex 50 16.8922 0.555613
    endloop
  endfacet
  facet normal 1.45408e-16 0.755749 -0.654861
    outer loop
      vertex 24 16.8922 0.555613
      vertex 24 18.1837 2.04605
      vertex 50 16.8922 0.555613
    endloop
  endfacet
  facet normal 1.45408e-16 0.755749 -0.654861
    outer loop
      vertex 50 16.8922 0.555613
      vertex 24 18.1837 2.04605
      vertex 50 18.1837 2.04605
    endloop
  endfacet
  facet normal 3.16002e-17 0.989821 -0.142315
    outer loop
      vertex 24 18.1837 2.04605
      vertex 24 18.4644 3.9981
      vertex 50 18.1837 2.04605
    endloop
  endfacet
  facet normal 3.16002e-17 0.989821 -0.142315
    outer loop
      vertex 50 18.1837 2.04605
      vertex 24 18.4644 3.9981
      vertex 50 18.4644 3.9981
    endloop
  endfacet
  facet normal -9.22406e-17 0.909632 0.415415
    outer loop
      vertex 24 17.6451 5.79201
      vertex 50 17.6451 5.79201
      vertex 24 18.4644 3.9981
    endloop
  endfacet
  facet normal -9.22406e-17 0.909632 0.415415
    outer loop
      vertex 24 18.4644 3.9981
      vertex 50 17.6451 5.79201
      vertex 50 18.4644 3.9981
    endloop
  endfacet
  facet normal -1.86796e-16 0.54064 0.841254
    outer loop
      vertex 24 17.6451 5.79201
      vertex 24 15.9861 6.85823
      vertex 50 15.9861 6.85823
    endloop
  endfacet
  facet normal -1.86796e-16 0.54064 0.841254
    outer loop
      vertex 50 17.6451 5.79201
      vertex 24 17.6451 5.79201
      vertex 50 15.9861 6.85823
    endloop
  endfacet
  facet normal -2.22045e-16 0 1
    outer loop
      vertex 24 15.9861 6.85823
      vertex 24 14.0139 6.85823
      vertex 50 14.0139 6.85823
    endloop
  endfacet
  facet normal -2.22045e-16 0 1
    outer loop
      vertex 50 15.9861 6.85823
      vertex 24 15.9861 6.85823
      vertex 50 14.0139 6.85823
    endloop
  endfacet
  facet normal -1.86796e-16 -0.54064 0.841254
    outer loop
      vertex 24 14.0139 6.85823
      vertex 24 12.3549 5.79201
      vertex 50 12.3549 5.79201
    endloop
  endfacet
  facet normal -1.86796e-16 -0.54064 0.841254
    outer loop
      vertex 50 14.0139 6.85823
      vertex 24 14.0139 6.85823
      vertex 50 12.3549 5.79201
    endloop
  endfacet
  facet normal -9.22406e-17 -0.909632 0.415415
    outer loop
      vertex 24 12.3549 5.79201
      vertex 24 11.5356 3.9981
      vertex 50 11.5356 3.9981
    endloop
  endfacet
  facet normal -9.22406e-17 -0.909632 0.415415
    outer loop
      vertex 50 12.3549 5.79201
      vertex 24 12.3549 5.79201
      vertex 50 11.5356 3.9981
    endloop
  endfacet
  facet normal 1 0 6.12323e-17
    outer loop
      vertex 23 -8.92658 10.4635
      vertex 23 -8.92658 9.53648
      vertex 23 -8.38168 11.2135
    endloop
  endfacet
  facet normal 1 0 6.12323e-17
    outer loop
      vertex 23 -8.92658 9.53647
      vertex 23 -8.38168 8.78647
      vertex 23 -7.5 8.5
    endloop
  endfacet
  facet normal 1 0 6.12323e-17
    outer loop
      vertex 23 -7.5 8.5
      vertex 23 -8.92658 9.53648
      vertex 23 -8.92658 9.53647
    endloop
  endfacet
  facet normal 1 0 6.12323e-17
    outer loop
      vertex 23 -6.07341 9.53648
      vertex 23 -6.61832 8.78647
      vertex 23 -6.07341 9.53647
    endloop
  endfacet
  facet normal 1 0 6.12323e-17
    outer loop
      vertex 23 -6.07341 9.53648
      vertex 23 -7.5 8.5
      vertex 23 -6.61832 8.78647
    endloop
  endfacet
  facet normal 1 0 6.12323e-17
    outer loop
      vertex 23 -8.38168 11.2135
      vertex 23 -6.61832 11.2135
      vertex 23 -7.5 11.5
    endloop
  endfacet
  facet normal 1 0 6.12323e-17
    outer loop
      vertex 23 -6.07341 9.53648
      vertex 23 -6.07341 10.4635
      vertex 23 -6.61832 11.2135
    endloop
  endfacet
  facet normal 1 0 2.22045e-16
    outer loop
      vertex 50 15.9861 6.85823
      vertex 50 14.0139 6.85823
      vertex 50 12.3549 5.79201
    endloop
  endfacet
  facet normal 1 0 2.22045e-16
    outer loop
      vertex 50 11.8163 2.04605
      vertex 50 15.9861 6.85823
      vertex 50 11.5356 3.9981
    endloop
  endfacet
  facet normal 1 0 2.22045e-16
    outer loop
      vertex 50 11.5356 3.9981
      vertex 50 15.9861 6.85823
      vertex 50 12.3549 5.79201
    endloop
  endfacet
  facet normal 1 0 2.22045e-16
    outer loop
      vertex 50 13.1078 0.555613
      vertex 50 15.9861 6.85823
      vertex 50 11.8163 2.04605
    endloop
  endfacet
  facet normal 1 0 2.22045e-16
    outer loop
      vertex 50 15 6.66134e-15
      vertex 50 15.9861 6.85823
      vertex 50 13.1078 0.555613
    endloop
  endfacet
  facet normal 1 0 2.22045e-16
    outer loop
      vertex 50 16.8922 0.555613
      vertex 50 15.9861 6.85823
      vertex 50 15 6.66134e-15
    endloop
  endfacet
  facet normal 1 0 2.22045e-16
    outer loop
      vertex 50 18.1837 2.04605
      vertex 50 15.9861 6.85823
      vertex 50 16.8922 0.555613
    endloop
  endfacet
  facet normal 1 0 2.22045e-16
    outer loop
      vertex 50 18.4644 3.9981
      vertex 50 15.9861 6.85823
      vertex 50 18.1837 2.04605
    endloop
  endfacet
  facet normal 1 0 2.22045e-16
    outer loop
      vertex 50 17.6451 5.79201
      vertex 50 15.9861 6.85823
      vertex 50 18.4644 3.9981
    endloop
  endfacet
endsolid OpenSCAD_Model
