solid OpenSCAD_Model
  facet normal -1 0 0
    outer loop
      vertex -3 -9 0
      vertex -3 -7.5141 4.33272
      vertex -3 20 0
    endloop
  endfacet
  facet normal -1 0 0
    outer loop
      vertex -3 -9 0
      vertex -3 -9 5.1906
      vertex -3 -7.5141 4.33272
    endloop
  endfacet
  facet normal -1 0 0
    outer loop
      vertex -3 -7.5141 4.33272
      vertex -3 -7.5 4.35714
      vertex -3 -7.4859 4.33272
    endloop
  endfacet
  facet normal -1 0 0
    outer loop
      vertex -3 -7.5141 4.33272
      vertex -3 -7.4859 4.33272
      vertex -3 20 0
    endloop
  endfacet
  facet normal -1 0 0
    outer loop
      vertex -3 20 0
      vertex -3 -4.7641 5.90414
      vertex -3 -4.77821 5.92857
    endloop
  endfacet
  facet normal -1 0 0
    outer loop
      vertex -3 20 0
      vertex -3 -4.77821 5.92857
      vertex -3 -4.75 5.92857
    endloop
  endfacet
  facet normal -1 0 0
    outer loop
      vertex -3 20 0
      vertex -3 -4.75 5.92857
      vertex -3 -4.75 9.07143
    endloop
  endfacet
  facet normal -1 0 0
    outer loop
      vertex -3 -4.75 9.07143
      vertex -3 -4.77821 9.07143
      vertex -3 -4.7641 9.09586
    endloop
  endfacet
  facet normal -1 0 0
    outer loop
      vertex -3 -4.75 9.07143
      vertex -3 -4.7641 9.09586
      vertex -3 20 0
    endloop
  endfacet
  facet normal -1 0 0
    outer loop
      vertex -3 -4.7641 9.09586
      vertex -3 -7.4859 10.6673
      vertex -3 20 0
    endloop
  endfacet
  facet normal -1 0 0
    outer loop
      vertex -3 -7.4859 10.6673
      vertex -3 -7.5 10.6429
      vertex -3 -7.5141 10.6673
    endloop
  endfacet
  facet normal -1 0 0
    outer loop
      vertex -3 -7.4859 10.6673
      vertex -3 -9 15
      vertex -3 20 0
    endloop
  endfacet
  facet normal -1 0 0
    outer loop
      vertex -3 -7.5141 10.6673
      vertex -3 -9 9.8094
      vertex -3 -9 15
    endloop
  endfacet
  facet normal -1 0 0
    outer loop
      vertex -3 -7.5141 10.6673
      vertex -3 -9 15
      vertex -3 -7.4859 10.6673
    endloop
  endfacet
  facet normal -1 0 0
    outer loop
      vertex -3 20 0
      vertex -3 -9 15
      vertex -3 20 15
    endloop
  endfacet
  facet normal -1 0 0
    outer loop
      vertex -3 -4.7641 5.90414
      vertex -3 20 0
      vertex -3 -7.4859 4.33272
    endloop
  endfacet
  facet normal -0.951057 -0.309017 0
    outer loop
      vertex -3 -9 0
      vertex -2.42705 -10.7634 0
      vertex -3 -9 5.1906
    endloop
  endfacet
  facet normal -0.951057 -0.309017 0
    outer loop
      vertex -2.59385 -10.25 9.07143
      vertex -2.42705 -10.7634 0
      vertex -2.42705 -10.7634 15
    endloop
  endfacet
  facet normal -0.951057 -0.309017 0
    outer loop
      vertex -3 -9 9.8094
      vertex -2.42705 -10.7634 15
      vertex -3 -9 15
    endloop
  endfacet
  facet normal -0.951057 -0.309017 0
    outer loop
      vertex -2.59385 -10.25 9.07143
      vertex -2.59843 -10.2359 9.09586
      vertex -2.60301 -10.2218 9.07143
    endloop
  endfacet
  facet normal -0.951057 -0.309017 0
    outer loop
      vertex -2.59385 -10.25 5.92857
      vertex -2.42705 -10.7634 0
      vertex -2.59385 -10.25 9.07143
    endloop
  endfacet
  facet normal -0.951057 -0.309017 0
    outer loop
      vertex -2.59843 -10.2359 9.09586
      vertex -2.59385 -10.25 9.07143
      vertex -2.42705 -10.7634 15
    endloop
  endfacet
  facet normal -0.951057 -0.309017 0
    outer loop
      vertex -2.59843 -10.2359 5.90414
      vertex -2.42705 -10.7634 0
      vertex -2.59385 -10.25 5.92857
    endloop
  endfacet
  facet normal -0.951057 -0.309017 0
    outer loop
      vertex -3 -9 5.1906
      vertex -2.42705 -10.7634 0
      vertex -2.59843 -10.2359 5.90414
    endloop
  endfacet
  facet normal -0.951057 -0.309017 0
    outer loop
      vertex -2.59843 -10.2359 9.09586
      vertex -2.42705 -10.7634 15
      vertex -3 -9 9.8094
    endloop
  endfacet
  facet normal -0.951057 -0.309017 0
    outer loop
      vertex -2.59843 -10.2359 5.90414
      vertex -2.59385 -10.25 5.92857
      vertex -2.60301 -10.2218 5.92857
    endloop
  endfacet
  facet normal 0 0 -1
    outer loop
      vertex -3 -9 0
      vertex -3 20 0
      vertex -2.42705 -10.7634 0
    endloop
  endfacet
  facet normal 0 0 -1
    outer loop
      vertex -2.42705 -10.7634 0
      vertex -3 20 0
      vertex -2.42705 21.7634 0
    endloop
  endfacet
  facet normal 0 0 -1
    outer loop
      vertex -2.42705 -10.7634 0
      vertex -2.42705 21.7634 0
      vertex -0.927051 22.8532 0
    endloop
  endfacet
  facet normal 0 0 -1
    outer loop
      vertex 0 20 0
      vertex -0.927051 22.8532 0
      vertex 2 22.8532 0
    endloop
  endfacet
  facet normal 0 0 -1
    outer loop
      vertex 2 50 0
      vertex 2.23247 51.9145 0
      vertex 2 22.8532 0
    endloop
  endfacet
  facet normal 0 0 -1
    outer loop
      vertex 2 22.8532 0
      vertex 2.23247 51.9145 0
      vertex 2.91635 53.7178 0
    endloop
  endfacet
  facet normal 0 0 -1
    outer loop
      vertex 2 22.8532 0
      vertex 2.91635 53.7178 0
      vertex 4.01191 55.305 0
    endloop
  endfacet
  facet normal 0 0 -1
    outer loop
      vertex 2 22.8532 0
      vertex 4.01191 55.305 0
      vertex 5.45548 56.5839 0
    endloop
  endfacet
  facet normal 0 0 -1
    outer loop
      vertex 2 22.8532 0
      vertex 5.45548 56.5839 0
      vertex 7.16316 57.4801 0
    endloop
  endfacet
  facet normal 0 0 -1
    outer loop
      vertex 7.5 50 0
      vertex 7.16316 57.4801 0
      vertex 9.03571 57.9417 0
    endloop
  endfacet
  facet normal 0 0 -1
    outer loop
      vertex 8.23223 51.7678 0
      vertex 10.9643 57.9417 0
      vertex 10 52.5 0
    endloop
  endfacet
  facet normal 0 0 -1
    outer loop
      vertex 10 52.5 0
      vertex 12.8368 57.4801 0
      vertex 11.7678 51.7678 0
    endloop
  endfacet
  facet normal 0 0 -1
    outer loop
      vertex 20 20 0
      vertex 20.9271 22.8532 0
      vertex 22.4271 21.7634 0
    endloop
  endfacet
  facet normal 0 0 -1
    outer loop
      vertex 7.5 50 0
      vertex 9.03571 57.9417 0
      vertex 8.23223 51.7678 0
    endloop
  endfacet
  facet normal 0 0 -1
    outer loop
      vertex 20 0 0
      vertex 23 20 0
      vertex 23 -9 0
    endloop
  endfacet
  facet normal 0 0 -1
    outer loop
      vertex 20 20 0
      vertex 23 20 0
      vertex 20 0 0
    endloop
  endfacet
  facet normal 0 0 -1
    outer loop
      vertex 20 20 0
      vertex 22.4271 21.7634 0
      vertex 23 20 0
    endloop
  endfacet
  facet normal 0 0 -1
    outer loop
      vertex 10 47.5 0
      vertex 2 22.8532 0
      vertex 8.23223 48.2322 0
    endloop
  endfacet
  facet normal 0 0 -1
    outer loop
      vertex 18.5 0 0
      vertex 20 0 0
      vertex 23 -9 0
    endloop
  endfacet
  facet normal 0 0 -1
    outer loop
      vertex 2 22.8532 0
      vertex 7.16316 57.4801 0
      vertex 7.5 50 0
    endloop
  endfacet
  facet normal 0 0 -1
    outer loop
      vertex -2.42705 -10.7634 0
      vertex -0.927051 22.8532 0
      vertex 0 20 0
    endloop
  endfacet
  facet normal 0 0 -1
    outer loop
      vertex 1.5 -11.8532 0
      vertex -2.42705 -10.7634 0
      vertex 1.5 0 0
    endloop
  endfacet
  facet normal 0 0 -1
    outer loop
      vertex 8.23223 48.2322 0
      vertex 2 22.8532 0
      vertex 7.5 50 0
    endloop
  endfacet
  facet normal 0 0 -1
    outer loop
      vertex -2.42705 -10.7634 0
      vertex 1.5 -11.8532 0
      vertex -0.927051 -11.8532 0
    endloop
  endfacet
  facet normal 0 0 -1
    outer loop
      vertex 8.23223 51.7678 0
      vertex 9.03571 57.9417 0
      vertex 10.9643 57.9417 0
    endloop
  endfacet
  facet normal 0 0 -1
    outer loop
      vertex 10 52.5 0
      vertex 10.9643 57.9417 0
      vertex 12.8368 57.4801 0
    endloop
  endfacet
  facet normal 0 0 -1
    outer loop
      vertex 18.5 0 0
      vertex 23 -9 0
      vertex 22.4271 -10.7634 0
    endloop
  endfacet
  facet normal 0 0 -1
    outer loop
      vertex 18.5 0 0
      vertex 22.4271 -10.7634 0
      vertex 20.9271 -11.8532 0
    endloop
  endfacet
  facet normal 0 0 -1
    outer loop
      vertex 18.5 0 0
      vertex 20.9271 -11.8532 0
      vertex 18.5 -11.8532 0
    endloop
  endfacet
  facet normal 0 0 -1
    outer loop
      vertex 11.7678 48.2322 0
      vertex 2 22.8532 0
      vertex 10 47.5 0
    endloop
  endfacet
  facet normal 0 0 -1
    outer loop
      vertex 11.7678 51.7678 0
      vertex 14.5445 56.5839 0
      vertex 12.5 50 0
    endloop
  endfacet
  facet normal 0 0 -1
    outer loop
      vertex 11.7678 51.7678 0
      vertex 12.8368 57.4801 0
      vertex 14.5445 56.5839 0
    endloop
  endfacet
  facet normal 0 0 -1
    outer loop
      vertex 2 22.8532 0
      vertex 11.7678 48.2322 0
      vertex 12.5 50 0
    endloop
  endfacet
  facet normal 0 0 -1
    outer loop
      vertex 12.5 50 0
      vertex 14.5445 56.5839 0
      vertex 15.9881 55.305 0
    endloop
  endfacet
  facet normal 0 0 -1
    outer loop
      vertex 2 22.8532 0
      vertex 12.5 50 0
      vertex 15.9881 55.305 0
    endloop
  endfacet
  facet normal 0 0 -1
    outer loop
      vertex 2 22.8532 0
      vertex 15.9881 55.305 0
      vertex 17.0836 53.7178 0
    endloop
  endfacet
  facet normal 0 0 -1
    outer loop
      vertex 2 22.8532 0
      vertex 17.0836 53.7178 0
      vertex 17.7675 51.9145 0
    endloop
  endfacet
  facet normal 0 0 -1
    outer loop
      vertex 2 22.8532 0
      vertex 17.7675 51.9145 0
      vertex 18 50 0
    endloop
  endfacet
  facet normal 0 0 -1
    outer loop
      vertex 2 22.8532 0
      vertex 18 50 0
      vertex 18 22.8532 0
    endloop
  endfacet
  facet normal 0 0 -1
    outer loop
      vertex 0 20 0
      vertex 2 22.8532 0
      vertex 18 22.8532 0
    endloop
  endfacet
  facet normal 0 0 -1
    outer loop
      vertex 0 20 0
      vertex 18 22.8532 0
      vertex 20.9271 22.8532 0
    endloop
  endfacet
  facet normal 0 0 -1
    outer loop
      vertex 0 20 0
      vertex 20.9271 22.8532 0
      vertex 20 20 0
    endloop
  endfacet
  facet normal 0 0 -1
    outer loop
      vertex 1.5 0 0
      vertex -2.42705 -10.7634 0
      vertex 0 0 0
    endloop
  endfacet
  facet normal 0 0 -1
    outer loop
      vertex 0 0 0
      vertex -2.42705 -10.7634 0
      vertex 0 20 0
    endloop
  endfacet
  facet normal -0.951057 0.309017 0
    outer loop
      vertex -3 20 0
      vertex -3 20 15
      vertex -2.42705 21.7634 0
    endloop
  endfacet
  facet normal -0.951057 0.309017 0
    outer loop
      vertex -2.42705 21.7634 0
      vertex -3 20 15
      vertex -2.42705 21.7634 15
    endloop
  endfacet
  facet normal 0 0 1
    outer loop
      vertex -3 20 15
      vertex -3 -9 15
      vertex -2.42705 -10.7634 15
    endloop
  endfacet
  facet normal 0 0 1
    outer loop
      vertex 1.5 -11.8532 15
      vertex -3 20 15
      vertex -0.927051 -11.8532 15
    endloop
  endfacet
  facet normal 0 0 1
    outer loop
      vertex -0.927051 -11.8532 15
      vertex -3 20 15
      vertex -2.42705 -10.7634 15
    endloop
  endfacet
  facet normal 0 0 1
    outer loop
      vertex 0 0 15
      vertex -3 20 15
      vertex 1.5 -11.8532 15
    endloop
  endfacet
  facet normal 0 0 1
    outer loop
      vertex 1.5 0 15
      vertex 0 0 15
      vertex 1.5 -11.8532 15
    endloop
  endfacet
  facet normal 0 0 1
    outer loop
      vertex 18.5 0 15
      vertex 18.5 -11.8532 15
      vertex 20 0 15
    endloop
  endfacet
  facet normal 0 0 1
    outer loop
      vertex 22.4271 21.7634 15
      vertex -3 20 15
      vertex 0 20 15
    endloop
  endfacet
  facet normal 0 0 1
    outer loop
      vertex 22.4271 21.7634 15
      vertex 0 20 15
      vertex 20 20 15
    endloop
  endfacet
  facet normal 0 0 1
    outer loop
      vertex 20.9271 -11.8532 15
      vertex 20 20 15
      vertex 20 0 15
    endloop
  endfacet
  facet normal 0 0 1
    outer loop
      vertex 20.9271 -11.8532 15
      vertex 20 0 15
      vertex 18.5 -11.8532 15
    endloop
  endfacet
  facet normal 0 0 1
    outer loop
      vertex 22.4271 -10.7634 15
      vertex 20 20 15
      vertex 20.9271 -11.8532 15
    endloop
  endfacet
  facet normal 0 0 1
    outer loop
      vertex 23 -9 15
      vertex 20 20 15
      vertex 22.4271 -10.7634 15
    endloop
  endfacet
  facet normal 0 0 1
    outer loop
      vertex 23 20 15
      vertex 20 20 15
      vertex 23 -9 15
    endloop
  endfacet
  facet normal 0 0 1
    outer loop
      vertex 22.4271 21.7634 15
      vertex 20 20 15
      vertex 23 20 15
    endloop
  endfacet
  facet normal 0 0 1
    outer loop
      vertex 20.9271 22.8532 15
      vertex -3 20 15
      vertex 22.4271 21.7634 15
    endloop
  endfacet
  facet normal 0 0 1
    outer loop
      vertex -0.927051 22.8532 15
      vertex -3 20 15
      vertex 20.9271 22.8532 15
    endloop
  endfacet
  facet normal 0 0 1
    outer loop
      vertex -2.42705 21.7634 15
      vertex -3 20 15
      vertex -0.927051 22.8532 15
    endloop
  endfacet
  facet normal 0 0 1
    outer loop
      vertex 0 0 15
      vertex 0 20 15
      vertex -3 20 15
    endloop
  endfacet
  facet normal 5.30288e-17 0.5 -0.866025
    outer loop
      vertex -2.5 -7.5141 10.6673
      vertex -2.5 -10.2359 9.09586
      vertex -3 -7.5141 10.6673
    endloop
  endfacet
  facet normal 5.30288e-17 0.5 -0.866025
    outer loop
      vertex -3 -7.5141 10.6673
      vertex -2.5 -10.2359 9.09586
      vertex -2.59843 -10.2359 9.09586
    endloop
  endfacet
  facet normal 5.30288e-17 0.5 -0.866025
    outer loop
      vertex -3 -7.5141 10.6673
      vertex -2.59843 -10.2359 9.09586
      vertex -3 -9 9.8094
    endloop
  endfacet
  facet normal 3.06162e-17 -0.866025 -0.5
    outer loop
      vertex -3 -7.5 10.6429
      vertex -2.5 -7.5 10.6429
      vertex -2.5 -7.5141 10.6673
    endloop
  endfacet
  facet normal 3.06162e-17 -0.866025 -0.5
    outer loop
      vertex -3 -7.5141 10.6673
      vertex -3 -7.5 10.6429
      vertex -2.5 -7.5141 10.6673
    endloop
  endfacet
  facet normal 3.06162e-17 0.866025 -0.5
    outer loop
      vertex -2.5 -7.4859 10.6673
      vertex -2.5 -7.5 10.6429
      vertex -3 -7.4859 10.6673
    endloop
  endfacet
  facet normal 3.06162e-17 0.866025 -0.5
    outer loop
      vertex -3 -7.4859 10.6673
      vertex -2.5 -7.5 10.6429
      vertex -3 -7.5 10.6429
    endloop
  endfacet
  facet normal 5.30288e-17 -0.5 -0.866025
    outer loop
      vertex -2.5 -4.7641 9.09586
      vertex -2.5 -7.4859 10.6673
      vertex -3 -4.7641 9.09586
    endloop
  endfacet
  facet normal 5.30288e-17 -0.5 -0.866025
    outer loop
      vertex -3 -4.7641 9.09586
      vertex -2.5 -7.4859 10.6673
      vertex -3 -7.4859 10.6673
    endloop
  endfacet
  facet normal -3.06162e-17 -0.866025 0.5
    outer loop
      vertex -2.5 -4.77821 9.07143
      vertex -2.5 -4.7641 9.09586
      vertex -3 -4.7641 9.09586
    endloop
  endfacet
  facet normal -3.06162e-17 -0.866025 0.5
    outer loop
      vertex -3 -4.77821 9.07143
      vertex -2.5 -4.77821 9.07143
      vertex -3 -4.7641 9.09586
    endloop
  endfacet
  facet normal 6.12323e-17 0 -1
    outer loop
      vertex -2.5 -4.75 9.07143
      vertex -2.5 -4.77821 9.07143
      vertex -3 -4.75 9.07143
    endloop
  endfacet
  facet normal 6.12323e-17 0 -1
    outer loop
      vertex -3 -4.75 9.07143
      vertex -2.5 -4.77821 9.07143
      vertex -3 -4.77821 9.07143
    endloop
  endfacet
  facet normal 0 -1 0
    outer loop
      vertex -2.5 -4.75 5.92857
      vertex -2.5 -4.75 9.07143
      vertex -3 -4.75 9.07143
    endloop
  endfacet
  facet normal 0 -1 0
    outer loop
      vertex -3 -4.75 5.92857
      vertex -2.5 -4.75 5.92857
      vertex -3 -4.75 9.07143
    endloop
  endfacet
  facet normal -6.12323e-17 0 1
    outer loop
      vertex -2.5 -4.77821 5.92857
      vertex -2.5 -4.75 5.92857
      vertex -3 -4.75 5.92857
    endloop
  endfacet
  facet normal -6.12323e-17 0 1
    outer loop
      vertex -3 -4.77821 5.92857
      vertex -2.5 -4.77821 5.92857
      vertex -3 -4.75 5.92857
    endloop
  endfacet
  facet normal 3.06162e-17 -0.866025 -0.5
    outer loop
      vertex -3 -4.7641 5.90414
      vertex -2.5 -4.7641 5.90414
      vertex -2.5 -4.77821 5.92857
    endloop
  endfacet
  facet normal 3.06162e-17 -0.866025 -0.5
    outer loop
      vertex -3 -4.77821 5.92857
      vertex -3 -4.7641 5.90414
      vertex -2.5 -4.77821 5.92857
    endloop
  endfacet
  facet normal -5.30288e-17 -0.5 0.866025
    outer loop
      vertex -2.5 -7.4859 4.33272
      vertex -2.5 -4.7641 5.90414
      vertex -3 -4.7641 5.90414
    endloop
  endfacet
  facet normal -5.30288e-17 -0.5 0.866025
    outer loop
      vertex -3 -7.4859 4.33272
      vertex -2.5 -7.4859 4.33272
      vertex -3 -4.7641 5.90414
    endloop
  endfacet
  facet normal -3.06162e-17 0.866025 0.5
    outer loop
      vertex -2.5 -7.4859 4.33272
      vertex -3 -7.4859 4.33272
      vertex -2.5 -7.5 4.35714
    endloop
  endfacet
  facet normal -3.06162e-17 0.866025 0.5
    outer loop
      vertex -2.5 -7.5 4.35714
      vertex -3 -7.4859 4.33272
      vertex -3 -7.5 4.35714
    endloop
  endfacet
  facet normal -3.06162e-17 -0.866025 0.5
    outer loop
      vertex -2.5 -7.5141 4.33272
      vertex -2.5 -7.5 4.35714
      vertex -3 -7.5 4.35714
    endloop
  endfacet
  facet normal -3.06162e-17 -0.866025 0.5
    outer loop
      vertex -3 -7.5141 4.33272
      vertex -2.5 -7.5141 4.33272
      vertex -3 -7.5 4.35714
    endloop
  endfacet
  facet normal -5.30288e-17 0.5 0.866025
    outer loop
      vertex -2.59843 -10.2359 5.90414
      vertex -2.5 -10.2359 5.90414
      vertex -2.5 -7.5141 4.33272
    endloop
  endfacet
  facet normal -5.30288e-17 0.5 0.866025
    outer loop
      vertex -3 -9 5.1906
      vertex -2.59843 -10.2359 5.90414
      vertex -3 -7.5141 4.33272
    endloop
  endfacet
  facet normal -5.30288e-17 0.5 0.866025
    outer loop
      vertex -3 -7.5141 4.33272
      vertex -2.59843 -10.2359 5.90414
      vertex -2.5 -7.5141 4.33272
    endloop
  endfacet
  facet normal 3.06162e-17 0.866025 -0.5
    outer loop
      vertex -2.5 -10.2359 5.90414
      vertex -2.59843 -10.2359 5.90414
      vertex -2.5 -10.2218 5.92857
    endloop
  endfacet
  facet normal 3.06162e-17 0.866025 -0.5
    outer loop
      vertex -2.5 -10.2218 5.92857
      vertex -2.59843 -10.2359 5.90414
      vertex -2.60301 -10.2218 5.92857
    endloop
  endfacet
  facet normal -6.12323e-17 0 1
    outer loop
      vertex -2.59385 -10.25 5.92857
      vertex -2.5 -10.25 5.92857
      vertex -2.5 -10.2218 5.92857
    endloop
  endfacet
  facet normal -6.12323e-17 0 1
    outer loop
      vertex -2.60301 -10.2218 5.92857
      vertex -2.59385 -10.25 5.92857
      vertex -2.5 -10.2218 5.92857
    endloop
  endfacet
  facet normal 0 1 0
    outer loop
      vertex -2.5 -10.25 9.07143
      vertex -2.5 -10.25 5.92857
      vertex -2.59385 -10.25 9.07143
    endloop
  endfacet
  facet normal 0 1 0
    outer loop
      vertex -2.59385 -10.25 9.07143
      vertex -2.5 -10.25 5.92857
      vertex -2.59385 -10.25 5.92857
    endloop
  endfacet
  facet normal 6.12323e-17 0 -1
    outer loop
      vertex -2.5 -10.25 9.07143
      vertex -2.59385 -10.25 9.07143
      vertex -2.5 -10.2218 9.07143
    endloop
  endfacet
  facet normal 6.12323e-17 0 -1
    outer loop
      vertex -2.5 -10.2218 9.07143
      vertex -2.59385 -10.25 9.07143
      vertex -2.60301 -10.2218 9.07143
    endloop
  endfacet
  facet normal -3.06162e-17 0.866025 0.5
    outer loop
      vertex -2.5 -10.2359 9.09586
      vertex -2.5 -10.2218 9.07143
      vertex -2.59843 -10.2359 9.09586
    endloop
  endfacet
  facet normal -3.06162e-17 0.866025 0.5
    outer loop
      vertex -2.59843 -10.2359 9.09586
      vertex -2.5 -10.2218 9.07143
      vertex -2.60301 -10.2218 9.07143
    endloop
  endfacet
  facet normal -0.587785 -0.809017 0
    outer loop
      vertex -2.42705 -10.7634 15
      vertex -2.42705 -10.7634 0
      vertex -0.927051 -11.8532 0
    endloop
  endfacet
  facet normal -0.587785 -0.809017 0
    outer loop
      vertex -0.927051 -11.8532 15
      vertex -2.42705 -10.7634 15
      vertex -0.927051 -11.8532 0
    endloop
  endfacet
  facet normal 0 -1 0
    outer loop
      vertex -0.927051 -11.8532 15
      vertex -0.927051 -11.8532 0
      vertex 1.5 -11.8532 0
    endloop
  endfacet
  facet normal 0 -1 0
    outer loop
      vertex 1.5 -11.8532 15
      vertex -0.927051 -11.8532 15
      vertex 1.5 -11.8532 0
    endloop
  endfacet
  facet normal 1 0 0
    outer loop
      vertex 1.5 -6.61832 8.71353
      vertex 1.5 0 15
      vertex 1.5 -11.8532 15
    endloop
  endfacet
  facet normal 1 0 0
    outer loop
      vertex 1.5 -6.07341 7.03648
      vertex 1.5 -7.5 6
      vertex 1.5 0 0
    endloop
  endfacet
  facet normal 1 0 0
    outer loop
      vertex 1.5 -11.8532 0
      vertex 1.5 -8.38168 8.71353
      vertex 1.5 -11.8532 15
    endloop
  endfacet
  facet normal 1 0 0
    outer loop
      vertex 1.5 0 0
      vertex 1.5 0 15
      vertex 1.5 -6.61832 8.71353
    endloop
  endfacet
  facet normal 1 0 0
    outer loop
      vertex 1.5 -11.8532 0
      vertex 1.5 0 0
      vertex 1.5 -7.5 6
    endloop
  endfacet
  facet normal 1 0 0
    outer loop
      vertex 1.5 -11.8532 0
      vertex 1.5 -8.92658 7.03648
      vertex 1.5 -8.38168 8.71353
    endloop
  endfacet
  facet normal 1 0 0
    outer loop
      vertex 1.5 -11.8532 0
      vertex 1.5 -7.5 6
      vertex 1.5 -8.92658 7.03648
    endloop
  endfacet
  facet normal 1 0 0
    outer loop
      vertex 1.5 -6.61832 8.71353
      vertex 1.5 -6.07341 7.03648
      vertex 1.5 0 0
    endloop
  endfacet
  facet normal 1 0 0
    outer loop
      vertex 1.5 -8.38168 8.71353
      vertex 1.5 -6.61832 8.71353
      vertex 1.5 -11.8532 15
    endloop
  endfacet
  facet normal 0 1 0
    outer loop
      vertex 1.5 0 15
      vertex 1.5 0 0
      vertex 0 0 15
    endloop
  endfacet
  facet normal 0 1 0
    outer loop
      vertex 0 0 15
      vertex 1.5 0 0
      vertex 0 0 0
    endloop
  endfacet
  facet normal 1 0 0
    outer loop
      vertex 0 20 0
      vertex 0 20 15
      vertex 0 0 15
    endloop
  endfacet
  facet normal 1 0 0
    outer loop
      vertex 0 0 0
      vertex 0 20 0
      vertex 0 0 15
    endloop
  endfacet
  facet normal 0 -1 0
    outer loop
      vertex 20 20 0
      vertex 20 20 15
      vertex 0 20 15
    endloop
  endfacet
  facet normal 0 -1 0
    outer loop
      vertex 0 20 0
      vertex 20 20 0
      vertex 0 20 15
    endloop
  endfacet
  facet normal -1 0 0
    outer loop
      vertex 20 20 15
      vertex 20 20 0
      vertex 20 0 15
    endloop
  endfacet
  facet normal -1 0 0
    outer loop
      vertex 20 0 15
      vertex 20 20 0
      vertex 20 0 0
    endloop
  endfacet
  facet normal 0 1 0
    outer loop
      vertex 20 0 15
      vertex 20 0 0
      vertex 18.5 0 15
    endloop
  endfacet
  facet normal 0 1 0
    outer loop
      vertex 18.5 0 15
      vertex 20 0 0
      vertex 18.5 0 0
    endloop
  endfacet
  facet normal -1 0 0
    outer loop
      vertex 18.5 -8.38168 8.71353
      vertex 18.5 -11.8532 15
      vertex 18.5 -6.61832 8.71353
    endloop
  endfacet
  facet normal -1 0 0
    outer loop
      vertex 18.5 -8.92658 7.03648
      vertex 18.5 0 0
      vertex 18.5 -11.8532 0
    endloop
  endfacet
  facet normal -1 0 0
    outer loop
      vertex 18.5 -7.5 6
      vertex 18.5 0 0
      vertex 18.5 -8.92658 7.03648
    endloop
  endfacet
  facet normal -1 0 0
    outer loop
      vertex 18.5 -11.8532 15
      vertex 18.5 -8.92658 7.03648
      vertex 18.5 -11.8532 0
    endloop
  endfacet
  facet normal -1 0 0
    outer loop
      vertex 18.5 -6.07341 7.03648
      vertex 18.5 0 0
      vertex 18.5 -7.5 6
    endloop
  endfacet
  facet normal -1 0 0
    outer loop
      vertex 18.5 -6.61832 8.71353
      vertex 18.5 0 0
      vertex 18.5 -6.07341 7.03648
    endloop
  endfacet
  facet normal -1 0 0
    outer loop
      vertex 18.5 0 15
      vertex 18.5 0 0
      vertex 18.5 -6.61832 8.71353
    endloop
  endfacet
  facet normal -1 0 0
    outer loop
      vertex 18.5 0 15
      vertex 18.5 -6.61832 8.71353
      vertex 18.5 -11.8532 15
    endloop
  endfacet
  facet normal -1 0 0
    outer loop
      vertex 18.5 -8.92658 7.03648
      vertex 18.5 -11.8532 15
      vertex 18.5 -8.38168 8.71353
    endloop
  endfacet
  facet normal 0 -1 0
    outer loop
      vertex 18.5 -11.8532 15
      vertex 18.5 -11.8532 0
      vertex 20.9271 -11.8532 0
    endloop
  endfacet
  facet normal 0 -1 0
    outer loop
      vertex 20.9271 -11.8532 15
      vertex 18.5 -11.8532 15
      vertex 20.9271 -11.8532 0
    endloop
  endfacet
  facet normal 0.587785 -0.809017 0
    outer loop
      vertex 20.9271 -11.8532 15
      vertex 20.9271 -11.8532 0
      vertex 22.4271 -10.7634 0
    endloop
  endfacet
  facet normal 0.587785 -0.809017 0
    outer loop
      vertex 22.4271 -10.7634 15
      vertex 20.9271 -11.8532 15
      vertex 22.4271 -10.7634 0
    endloop
  endfacet
  facet normal 0.951057 -0.309017 0
    outer loop
      vertex 22.4271 -10.7634 15
      vertex 22.4271 -10.7634 0
      vertex 23 -9 0
    endloop
  endfacet
  facet normal 0.951057 -0.309017 0
    outer loop
      vertex 23 -9 15
      vertex 22.4271 -10.7634 15
      vertex 23 -9 0
    endloop
  endfacet
  facet normal 1 0 0
    outer loop
      vertex 23 -6.07341 7.03648
      vertex 23 -9 0
      vertex 23 20 0
    endloop
  endfacet
  facet normal 1 0 0
    outer loop
      vertex 23 20 15
      vertex 23 -9 15
      vertex 23 20 0
    endloop
  endfacet
  facet normal 1 0 0
    outer loop
      vertex 23 -9 15
      vertex 23 -9 0
      vertex 23 -8.92658 7.96352
    endloop
  endfacet
  facet normal 1 0 0
    outer loop
      vertex 23 -9 15
      vertex 23 -8.92658 7.96352
      vertex 23 -8.38168 8.71352
    endloop
  endfacet
  facet normal 1 0 0
    outer loop
      vertex 23 -6.22402 7.5
      vertex 23 -6.07341 7.03648
      vertex 23 20 0
    endloop
  endfacet
  facet normal 1 0 0
    outer loop
      vertex 23 -9 15
      vertex 23 -8.38168 8.71352
      vertex 23 -8.38168 8.71353
    endloop
  endfacet
  facet normal 1 0 0
    outer loop
      vertex 23 -9 15
      vertex 23 -8.38168 8.71353
      vertex 23 -7.5 9
    endloop
  endfacet
  facet normal 1 0 0
    outer loop
      vertex 23 -9 15
      vertex 23 -7.5 9
      vertex 23 -6.61832 8.71353
    endloop
  endfacet
  facet normal 1 0 0
    outer loop
      vertex 23 -9 15
      vertex 23 -6.61832 8.71353
      vertex 23 20 0
    endloop
  endfacet
  facet normal 1 0 0
    outer loop
      vertex 23 -6.07341 7.96352
      vertex 23 -6.07341 7.5
      vertex 23 20 0
    endloop
  endfacet
  facet normal 1 0 0
    outer loop
      vertex 23 -6.07341 7.5
      vertex 23 -6.22402 7.5
      vertex 23 20 0
    endloop
  endfacet
  facet normal 1 0 0
    outer loop
      vertex 23 -7.5 6
      vertex 23 -9 0
      vertex 23 -6.07341 7.03648
    endloop
  endfacet
  facet normal 1 0 0
    outer loop
      vertex 23 -8.92658 7.03648
      vertex 23 -9 0
      vertex 23 -7.5 6
    endloop
  endfacet
  facet normal 1 0 0
    outer loop
      vertex 23 -8.92658 7.96352
      vertex 23 -9 0
      vertex 23 -8.92658 7.03648
    endloop
  endfacet
  facet normal 1 0 0
    outer loop
      vertex 23 -8.92658 7.5
      vertex 23 -8.92658 7.03648
      vertex 23 -8.77598 7.5
    endloop
  endfacet
  facet normal 1 0 0
    outer loop
      vertex 23 -8.92658 7.96352
      vertex 23 -8.92658 7.03648
      vertex 23 -8.92658 7.5
    endloop
  endfacet
  facet normal 1 0 0
    outer loop
      vertex 23 -6.61832 8.71353
      vertex 23 -6.61832 8.71352
      vertex 23 20 0
    endloop
  endfacet
  facet normal 1 0 0
    outer loop
      vertex 23 -6.61832 8.71352
      vertex 23 -6.07341 7.96352
      vertex 23 20 0
    endloop
  endfacet
  facet normal 0.951057 0.309017 0
    outer loop
      vertex 23 20 0
      vertex 22.4271 21.7634 0
      vertex 22.4271 21.7634 15
    endloop
  endfacet
  facet normal 0.951057 0.309017 0
    outer loop
      vertex 23 20 15
      vertex 23 20 0
      vertex 22.4271 21.7634 15
    endloop
  endfacet
  facet normal 0.587785 0.809017 0
    outer loop
      vertex 20.9271 22.8532 0
      vertex 20.9271 22.8532 15
      vertex 22.4271 21.7634 0
    endloop
  endfacet
  facet normal 0.587785 0.809017 0
    outer loop
      vertex 22.4271 21.7634 0
      vertex 20.9271 22.8532 15
      vertex 22.4271 21.7634 15
    endloop
  endfacet
  facet normal 0 1 0
    outer loop
      vertex -0.927051 22.8532 0
      vertex -0.927051 22.8532 15
      vertex 2 22.8532 0
    endloop
  endfacet
  facet normal 0 1 0
    outer loop
      vertex 2 22.8532 5
      vertex -0.927051 22.8532 15
      vertex 20.9271 22.8532 15
    endloop
  endfacet
  facet normal 0 1 0
    outer loop
      vertex 18 22.8532 0
      vertex 20.9271 22.8532 15
      vertex 20.9271 22.8532 0
    endloop
  endfacet
  facet normal 0 1 0
    outer loop
      vertex 18 22.8532 5
      vertex 20.9271 22.8532 15
      vertex 18 22.8532 0
    endloop
  endfacet
  facet normal 0 1 0
    outer loop
      vertex 2 22.8532 0
      vertex -0.927051 22.8532 15
      vertex 2 22.8532 5
    endloop
  endfacet
  facet normal 0 1 0
    outer loop
      vertex 2 22.8532 5
      vertex 20.9271 22.8532 15
      vertex 18 22.8532 5
    endloop
  endfacet
  facet normal 1 0 0
    outer loop
      vertex 18 22.8532 5
      vertex 18 22.8532 0
      vertex 18 50 0
    endloop
  endfacet
  facet normal 1 0 0
    outer loop
      vertex 18 50 5
      vertex 18 22.8532 5
      vertex 18 50 0
    endloop
  endfacet
  facet normal 0.992709 0.120536 0
    outer loop
      vertex 18 50 0
      vertex 17.7675 51.9145 0
      vertex 17.7675 51.9145 5
    endloop
  endfacet
  facet normal 0.992709 0.120536 0
    outer loop
      vertex 18 50 5
      vertex 18 50 0
      vertex 17.7675 51.9145 5
    endloop
  endfacet
  facet normal 0.935016 0.354605 0
    outer loop
      vertex 17.7675 51.9145 0
      vertex 17.0836 53.7178 0
      vertex 17.0836 53.7178 5
    endloop
  endfacet
  facet normal 0.935016 0.354605 0
    outer loop
      vertex 17.7675 51.9145 5
      vertex 17.7675 51.9145 0
      vertex 17.0836 53.7178 5
    endloop
  endfacet
  facet normal 0.822984 0.568065 0
    outer loop
      vertex 17.0836 53.7178 0
      vertex 15.9881 55.305 0
      vertex 15.9881 55.305 5
    endloop
  endfacet
  facet normal 0.822984 0.568065 0
    outer loop
      vertex 17.0836 53.7178 5
      vertex 17.0836 53.7178 0
      vertex 15.9881 55.305 5
    endloop
  endfacet
  facet normal 0.663123 0.748511 0
    outer loop
      vertex 14.5445 56.5839 0
      vertex 14.5445 56.5839 5
      vertex 15.9881 55.305 0
    endloop
  endfacet
  facet normal 0.663123 0.748511 0
    outer loop
      vertex 15.9881 55.305 0
      vertex 14.5445 56.5839 5
      vertex 15.9881 55.305 5
    endloop
  endfacet
  facet normal 0.464723 0.885456 0
    outer loop
      vertex 12.8368 57.4801 0
      vertex 12.8368 57.4801 5
      vertex 14.5445 56.5839 0
    endloop
  endfacet
  facet normal 0.464723 0.885456 0
    outer loop
      vertex 14.5445 56.5839 0
      vertex 12.8368 57.4801 5
      vertex 14.5445 56.5839 5
    endloop
  endfacet
  facet normal 0.239316 0.970942 0
    outer loop
      vertex 10.9643 57.9417 0
      vertex 10.9643 57.9417 5
      vertex 12.8368 57.4801 0
    endloop
  endfacet
  facet normal 0.239316 0.970942 0
    outer loop
      vertex 12.8368 57.4801 0
      vertex 10.9643 57.9417 5
      vertex 12.8368 57.4801 5
    endloop
  endfacet
  facet normal 0 1 0
    outer loop
      vertex 9.03571 57.9417 0
      vertex 9.03571 57.9417 5
      vertex 10.9643 57.9417 0
    endloop
  endfacet
  facet normal 0 1 0
    outer loop
      vertex 10.9643 57.9417 0
      vertex 9.03571 57.9417 5
      vertex 10.9643 57.9417 5
    endloop
  endfacet
  facet normal -0.239316 0.970942 0
    outer loop
      vertex 7.16316 57.4801 0
      vertex 7.16316 57.4801 5
      vertex 9.03571 57.9417 0
    endloop
  endfacet
  facet normal -0.239316 0.970942 0
    outer loop
      vertex 9.03571 57.9417 0
      vertex 7.16316 57.4801 5
      vertex 9.03571 57.9417 5
    endloop
  endfacet
  facet normal -0.464723 0.885456 0
    outer loop
      vertex 5.45548 56.5839 0
      vertex 5.45548 56.5839 5
      vertex 7.16316 57.4801 0
    endloop
  endfacet
  facet normal -0.464723 0.885456 0
    outer loop
      vertex 7.16316 57.4801 0
      vertex 5.45548 56.5839 5
      vertex 7.16316 57.4801 5
    endloop
  endfacet
  facet normal -0.663123 0.748511 0
    outer loop
      vertex 4.01191 55.305 0
      vertex 4.01191 55.305 5
      vertex 5.45548 56.5839 0
    endloop
  endfacet
  facet normal -0.663123 0.748511 0
    outer loop
      vertex 5.45548 56.5839 0
      vertex 4.01191 55.305 5
      vertex 5.45548 56.5839 5
    endloop
  endfacet
  facet normal -0.822984 0.568065 0
    outer loop
      vertex 2.91635 53.7178 0
      vertex 2.91635 53.7178 5
      vertex 4.01191 55.305 0
    endloop
  endfacet
  facet normal -0.822984 0.568065 0
    outer loop
      vertex 4.01191 55.305 0
      vertex 2.91635 53.7178 5
      vertex 4.01191 55.305 5
    endloop
  endfacet
  facet normal -0.935016 0.354605 0
    outer loop
      vertex 2.23247 51.9145 0
      vertex 2.23247 51.9145 5
      vertex 2.91635 53.7178 0
    endloop
  endfacet
  facet normal -0.935016 0.354605 0
    outer loop
      vertex 2.91635 53.7178 0
      vertex 2.23247 51.9145 5
      vertex 2.91635 53.7178 5
    endloop
  endfacet
  facet normal -0.992709 0.120536 0
    outer loop
      vertex 2 50 0
      vertex 2 50 5
      vertex 2.23247 51.9145 0
    endloop
  endfacet
  facet normal -0.992709 0.120536 0
    outer loop
      vertex 2.23247 51.9145 0
      vertex 2 50 5
      vertex 2.23247 51.9145 5
    endloop
  endfacet
  facet normal -1 0 0
    outer loop
      vertex 2 22.8532 0
      vertex 2 22.8532 5
      vertex 2 50 0
    endloop
  endfacet
  facet normal -1 0 0
    outer loop
      vertex 2 50 0
      vertex 2 22.8532 5
      vertex 2 50 5
    endloop
  endfacet
  facet normal -0.587785 0.809017 0
    outer loop
      vertex -2.42705 21.7634 0
      vertex -2.42705 21.7634 15
      vertex -0.927051 22.8532 0
    endloop
  endfacet
  facet normal -0.587785 0.809017 0
    outer loop
      vertex -0.927051 22.8532 0
      vertex -2.42705 21.7634 15
      vertex -0.927051 22.8532 15
    endloop
  endfacet
  facet normal 0.92388 -0.382683 0
    outer loop
      vertex 8.23223 51.7678 0
      vertex 8.23223 51.7678 5
      vertex 7.5 50 5
    endloop
  endfacet
  facet normal 0.92388 -0.382683 0
    outer loop
      vertex 7.5 50 0
      vertex 8.23223 51.7678 0
      vertex 7.5 50 5
    endloop
  endfacet
  facet normal 0.92388 0.382683 0
    outer loop
      vertex 7.5 50 5
      vertex 8.23223 48.2322 5
      vertex 8.23223 48.2322 0
    endloop
  endfacet
  facet normal 0.92388 0.382683 0
    outer loop
      vertex 7.5 50 0
      vertex 7.5 50 5
      vertex 8.23223 48.2322 0
    endloop
  endfacet
  facet normal 0.382683 -0.92388 0
    outer loop
      vertex 10 52.5 0
      vertex 10 52.5 5
      vertex 8.23223 51.7678 5
    endloop
  endfacet
  facet normal 0.382683 -0.92388 0
    outer loop
      vertex 8.23223 51.7678 0
      vertex 10 52.5 0
      vertex 8.23223 51.7678 5
    endloop
  endfacet
  facet normal -0.382683 -0.92388 0
    outer loop
      vertex 11.7678 51.7678 0
      vertex 11.7678 51.7678 5
      vertex 10 52.5 5
    endloop
  endfacet
  facet normal -0.382683 -0.92388 0
    outer loop
      vertex 10 52.5 0
      vertex 11.7678 51.7678 0
      vertex 10 52.5 5
    endloop
  endfacet
  facet normal -0.92388 -0.382683 0
    outer loop
      vertex 12.5 50 5
      vertex 11.7678 51.7678 5
      vertex 12.5 50 0
    endloop
  endfacet
  facet normal -0.92388 -0.382683 0
    outer loop
      vertex 12.5 50 0
      vertex 11.7678 51.7678 5
      vertex 11.7678 51.7678 0
    endloop
  endfacet
  facet normal -0.92388 0.382683 0
    outer loop
      vertex 12.5 50 5
      vertex 12.5 50 0
      vertex 11.7678 48.2322 5
    endloop
  endfacet
  facet normal -0.92388 0.382683 0
    outer loop
      vertex 11.7678 48.2322 5
      vertex 12.5 50 0
      vertex 11.7678 48.2322 0
    endloop
  endfacet
  facet normal -0.382683 0.92388 0
    outer loop
      vertex 11.7678 48.2322 5
      vertex 11.7678 48.2322 0
      vertex 10 47.5 5
    endloop
  endfacet
  facet normal -0.382683 0.92388 0
    outer loop
      vertex 10 47.5 5
      vertex 11.7678 48.2322 0
      vertex 10 47.5 0
    endloop
  endfacet
  facet normal 0.382683 0.92388 0
    outer loop
      vertex 10 47.5 5
      vertex 10 47.5 0
      vertex 8.23223 48.2322 5
    endloop
  endfacet
  facet normal 0.382683 0.92388 0
    outer loop
      vertex 8.23223 48.2322 5
      vertex 10 47.5 0
      vertex 8.23223 48.2322 0
    endloop
  endfacet
  facet normal -1 0 -6.12323e-17
    outer loop
      vertex -2.5 -7.4859 10.6673
      vertex -2.5 -4.7641 9.09586
      vertex -2.5 -7.5 10.6429
    endloop
  endfacet
  facet normal -1 0 -6.12323e-17
    outer loop
      vertex -2.5 -7.5 10.6429
      vertex -2.5 -4.7641 9.09586
      vertex -2.5 -4.77821 9.07143
    endloop
  endfacet
  facet normal -1 0 -6.12323e-17
    outer loop
      vertex -2.5 -4.77821 9.07143
      vertex -2.5 -4.75 9.07143
      vertex -2.5 -4.75 5.92857
    endloop
  endfacet
  facet normal -1 0 -6.12323e-17
    outer loop
      vertex -2.5 -4.77821 9.07143
      vertex -2.5 -4.75 5.92857
      vertex -2.5 -7.5 10.6429
    endloop
  endfacet
  facet normal -1 0 -6.12323e-17
    outer loop
      vertex -2.5 -7.5 10.6429
      vertex -2.5 -4.75 5.92857
      vertex -2.5 -4.77821 5.92857
    endloop
  endfacet
  facet normal -1 0 -6.12323e-17
    outer loop
      vertex -2.5 -4.77821 5.92857
      vertex -2.5 -4.7641 5.90414
      vertex -2.5 -7.4859 4.33272
    endloop
  endfacet
  facet normal -1 0 -6.12323e-17
    outer loop
      vertex -2.5 -7.5 6
      vertex -2.5 -7.4859 4.33272
      vertex -2.5 -7.5 4.35714
    endloop
  endfacet
  facet normal -1 0 -6.12323e-17
    outer loop
      vertex -2.5 -7.5 6
      vertex -2.5 -7.5 4.35714
      vertex -2.5 -7.5141 4.33272
    endloop
  endfacet
  facet normal -1 0 -6.12323e-17
    outer loop
      vertex -2.5 -10.2218 5.92857
      vertex -2.5 -7.5141 4.33272
      vertex -2.5 -10.2359 5.90414
    endloop
  endfacet
  facet normal -1 0 -6.12323e-17
    outer loop
      vertex -2.5 -8.92658 7.03648
      vertex -2.5 -7.5141 4.33272
      vertex -2.5 -10.2218 5.92857
    endloop
  endfacet
  facet normal -1 0 -6.12323e-17
    outer loop
      vertex -2.5 -10.2359 9.09586
      vertex -2.5 -7.5 10.6429
      vertex -2.5 -10.2218 9.07143
    endloop
  endfacet
  facet normal -1 0 -6.12323e-17
    outer loop
      vertex -2.5 -10.2218 5.92857
      vertex -2.5 -10.25 5.92857
      vertex -2.5 -7.5 10.6429
    endloop
  endfacet
  facet normal -1 0 -6.12323e-17
    outer loop
      vertex -2.5 -10.25 5.92857
      vertex -2.5 -10.25 9.07143
      vertex -2.5 -10.2218 9.07143
    endloop
  endfacet
  facet normal -1 0 -6.12323e-17
    outer loop
      vertex -2.5 -6.07341 7.03648
      vertex -2.5 -7.4859 4.33272
      vertex -2.5 -7.5 6
    endloop
  endfacet
  facet normal -1 0 -6.12323e-17
    outer loop
      vertex -2.5 -7.5 6
      vertex -2.5 -7.5141 4.33272
      vertex -2.5 -8.92658 7.03648
    endloop
  endfacet
  facet normal -1 0 -6.12323e-17
    outer loop
      vertex -2.5 -7.5 10.6429
      vertex -2.5 -8.38168 8.71352
      vertex -2.5 -10.2218 5.92857
    endloop
  endfacet
  facet normal -1 0 -6.12323e-17
    outer loop
      vertex -2.5 -8.38168 8.71352
      vertex -2.5 -8.92658 7.03648
      vertex -2.5 -10.2218 5.92857
    endloop
  endfacet
  facet normal -1 0 -6.12323e-17
    outer loop
      vertex -2.5 -4.77821 5.92857
      vertex -2.5 -7.4859 4.33272
      vertex -2.5 -6.07341 7.03648
    endloop
  endfacet
  facet normal -1 0 -6.12323e-17
    outer loop
      vertex -2.5 -4.77821 5.92857
      vertex -2.5 -6.07341 7.03648
      vertex -2.5 -6.61832 8.71352
    endloop
  endfacet
  facet normal -1 0 -6.12323e-17
    outer loop
      vertex -2.5 -4.77821 5.92857
      vertex -2.5 -6.61832 8.71352
      vertex -2.5 -7.5 10.6429
    endloop
  endfacet
  facet normal -1 0 -6.12323e-17
    outer loop
      vertex -2.5 -7.5 10.6429
      vertex -2.5 -10.25 5.92857
      vertex -2.5 -10.2218 9.07143
    endloop
  endfacet
  facet normal -1 0 -6.12323e-17
    outer loop
      vertex -2.5 -8.38168 8.71352
      vertex -2.5 -7.5 10.6429
      vertex -2.5 -6.61832 8.71352
    endloop
  endfacet
  facet normal -1 0 -6.12323e-17
    outer loop
      vertex -2.5 -7.5 10.6429
      vertex -2.5 -10.2359 9.09586
      vertex -2.5 -7.5141 10.6673
    endloop
  endfacet
  facet normal 6.12323e-17 0 -1
    outer loop
      vertex 1.5 -6.61832 8.71353
      vertex 1.5 -8.38168 8.71353
      vertex -2.5 -6.61832 8.71352
    endloop
  endfacet
  facet normal 6.12323e-17 0 -1
    outer loop
      vertex -2.5 -6.61832 8.71352
      vertex 1.5 -8.38168 8.71353
      vertex -2.5 -8.38168 8.71352
    endloop
  endfacet
  facet normal 1.89218e-17 0.951056 -0.309017
    outer loop
      vertex 1.5 -8.92658 7.03648
      vertex -2.5 -8.92658 7.03648
      vertex 1.5 -8.38168 8.71353
    endloop
  endfacet
  facet normal 1.89218e-17 0.951056 -0.309017
    outer loop
      vertex 1.5 -8.38168 8.71353
      vertex -2.5 -8.92658 7.03648
      vertex -2.5 -8.38168 8.71352
    endloop
  endfacet
  facet normal -4.9538e-17 0.587785 0.809017
    outer loop
      vertex 1.5 -8.92658 7.03648
      vertex 1.5 -7.5 6
      vertex -2.5 -7.5 6
    endloop
  endfacet
  facet normal -4.9538e-17 0.587785 0.809017
    outer loop
      vertex -2.5 -8.92658 7.03648
      vertex 1.5 -8.92658 7.03648
      vertex -2.5 -7.5 6
    endloop
  endfacet
  facet normal -4.9538e-17 -0.587785 0.809017
    outer loop
      vertex -2.5 -7.5 6
      vertex 1.5 -7.5 6
      vertex 1.5 -6.07341 7.03648
    endloop
  endfacet
  facet normal -4.9538e-17 -0.587785 0.809017
    outer loop
      vertex -2.5 -6.07341 7.03648
      vertex -2.5 -7.5 6
      vertex 1.5 -6.07341 7.03648
    endloop
  endfacet
  facet normal 1.89218e-17 -0.951056 -0.309017
    outer loop
      vertex -2.5 -6.07341 7.03648
      vertex 1.5 -6.07341 7.03648
      vertex 1.5 -6.61832 8.71353
    endloop
  endfacet
  facet normal 1.89218e-17 -0.951056 -0.309017
    outer loop
      vertex -2.5 -6.61832 8.71352
      vertex -2.5 -6.07341 7.03648
      vertex 1.5 -6.61832 8.71353
    endloop
  endfacet
  facet normal 1.89218e-17 0.951056 -0.309017
    outer loop
      vertex 23 -8.38168 8.71353
      vertex 23 -8.38168 8.71352
      vertex 18.5 -8.38168 8.71353
    endloop
  endfacet
  facet normal 1.89218e-17 0.951056 -0.309017
    outer loop
      vertex 18.5 -8.38168 8.71353
      vertex 23 -8.38168 8.71352
      vertex 23 -8.77598 7.5
    endloop
  endfacet
  facet normal 1.89218e-17 0.951056 -0.309017
    outer loop
      vertex 18.5 -8.38168 8.71353
      vertex 23 -8.77598 7.5
      vertex 23 -8.92658 7.03648
    endloop
  endfacet
  facet normal 1.89218e-17 0.951056 -0.309017
    outer loop
      vertex 18.5 -8.38168 8.71353
      vertex 23 -8.92658 7.03648
      vertex 18.5 -8.92658 7.03648
    endloop
  endfacet
  facet normal -4.9538e-17 0.587785 0.809017
    outer loop
      vertex 23 -8.92658 7.03648
      vertex 23 -7.5 6
      vertex 18.5 -7.5 6
    endloop
  endfacet
  facet normal -4.9538e-17 0.587785 0.809017
    outer loop
      vertex 18.5 -8.92658 7.03648
      vertex 23 -8.92658 7.03648
      vertex 18.5 -7.5 6
    endloop
  endfacet
  facet normal 6.12323e-17 0 -1
    outer loop
      vertex 18.5 -6.61832 8.71353
      vertex 23 -6.61832 8.71353
      vertex 23 -8.38168 8.71353
    endloop
  endfacet
  facet normal 6.12323e-17 0 -1
    outer loop
      vertex 18.5 -6.61832 8.71353
      vertex 23 -8.38168 8.71353
      vertex 18.5 -8.38168 8.71353
    endloop
  endfacet
  facet normal 1.89218e-17 -0.951056 -0.309017
    outer loop
      vertex 18.5 -6.07341 7.03648
      vertex 23 -6.07341 7.03648
      vertex 23 -6.22402 7.5
    endloop
  endfacet
  facet normal 1.89218e-17 -0.951056 -0.309017
    outer loop
      vertex 23 -6.61832 8.71352
      vertex 18.5 -6.07341 7.03648
      vertex 23 -6.22402 7.5
    endloop
  endfacet
  facet normal 1.89218e-17 -0.951056 -0.309017
    outer loop
      vertex 23 -6.61832 8.71353
      vertex 18.5 -6.07341 7.03648
      vertex 23 -6.61832 8.71352
    endloop
  endfacet
  facet normal 1.89218e-17 -0.951056 -0.309017
    outer loop
      vertex 18.5 -6.61832 8.71353
      vertex 18.5 -6.07341 7.03648
      vertex 23 -6.61832 8.71353
    endloop
  endfacet
  facet normal -4.9538e-17 -0.587785 0.809017
    outer loop
      vertex 23 -7.5 6
      vertex 23 -6.07341 7.03648
      vertex 18.5 -6.07341 7.03648
    endloop
  endfacet
  facet normal -4.9538e-17 -0.587785 0.809017
    outer loop
      vertex 18.5 -7.5 6
      vertex 23 -7.5 6
      vertex 18.5 -6.07341 7.03648
    endloop
  endfacet
  facet normal 1 0 6.12323e-17
    outer loop
      vertex 23 -8.92658 7.96352
      vertex 23 -8.92658 7.5
      vertex 23 -8.77598 7.5
    endloop
  endfacet
  facet normal 1 0 6.12323e-17
    outer loop
      vertex 23 -8.38168 8.71352
      vertex 23 -8.92658 7.96352
      vertex 23 -8.77598 7.5
    endloop
  endfacet
  facet normal 1 0 6.12323e-17
    outer loop
      vertex 23 -6.22402 7.5
      vertex 23 -6.07341 7.5
      vertex 23 -6.07341 7.96352
    endloop
  endfacet
  facet normal 1 0 6.12323e-17
    outer loop
      vertex 23 -6.61832 8.71352
      vertex 23 -6.22402 7.5
      vertex 23 -6.07341 7.96352
    endloop
  endfacet
  facet normal 0 0 1
    outer loop
      vertex 2 50 5
      vertex 2 22.8532 5
      vertex 18 22.8532 5
    endloop
  endfacet
  facet normal 0 0 1
    outer loop
      vertex 7.5 50 5
      vertex 2 50 5
      vertex 8.23223 48.2322 5
    endloop
  endfacet
  facet normal 0 0 1
    outer loop
      vertex 8.23223 48.2322 5
      vertex 2 50 5
      vertex 18 22.8532 5
    endloop
  endfacet
  facet normal 0 0 1
    outer loop
      vertex 14.5445 56.5839 5
      vertex 2 50 5
      vertex 15.9881 55.305 5
    endloop
  endfacet
  facet normal 0 0 1
    outer loop
      vertex 12.8368 57.4801 5
      vertex 2 50 5
      vertex 14.5445 56.5839 5
    endloop
  endfacet
  facet normal 0 0 1
    outer loop
      vertex 10.9643 57.9417 5
      vertex 2 50 5
      vertex 12.8368 57.4801 5
    endloop
  endfacet
  facet normal 0 0 1
    outer loop
      vertex 9.03571 57.9417 5
      vertex 2 50 5
      vertex 10.9643 57.9417 5
    endloop
  endfacet
  facet normal 0 0 1
    outer loop
      vertex 7.16316 57.4801 5
      vertex 2 50 5
      vertex 9.03571 57.9417 5
    endloop
  endfacet
  facet normal 0 0 1
    outer loop
      vertex 5.45548 56.5839 5
      vertex 2 50 5
      vertex 7.16316 57.4801 5
    endloop
  endfacet
  facet normal 0 0 1
    outer loop
      vertex 4.01191 55.305 5
      vertex 2 50 5
      vertex 5.45548 56.5839 5
    endloop
  endfacet
  facet normal 0 0 1
    outer loop
      vertex 2.91635 53.7178 5
      vertex 2 50 5
      vertex 4.01191 55.305 5
    endloop
  endfacet
  facet normal 0 0 1
    outer loop
      vertex 2.23247 51.9145 5
      vertex 2 50 5
      vertex 2.91635 53.7178 5
    endloop
  endfacet
  facet normal 0 0 1
    outer loop
      vertex 10 47.5 5
      vertex 8.23223 48.2322 5
      vertex 18 22.8532 5
    endloop
  endfacet
  facet normal 0 0 1
    outer loop
      vertex 11.7678 51.7678 5
      vertex 12.5 50 5
      vertex 17.7675 51.9145 5
    endloop
  endfacet
  facet normal 0 0 1
    outer loop
      vertex 15.9881 55.305 5
      vertex 2 50 5
      vertex 8.23223 51.7678 5
    endloop
  endfacet
  facet normal 0 0 1
    outer loop
      vertex 15.9881 55.305 5
      vertex 10 52.5 5
      vertex 17.0836 53.7178 5
    endloop
  endfacet
  facet normal 0 0 1
    outer loop
      vertex 15.9881 55.305 5
      vertex 8.23223 51.7678 5
      vertex 10 52.5 5
    endloop
  endfacet
  facet normal 0 0 1
    outer loop
      vertex 17.0836 53.7178 5
      vertex 11.7678 51.7678 5
      vertex 17.7675 51.9145 5
    endloop
  endfacet
  facet normal 0 0 1
    outer loop
      vertex 10 52.5 5
      vertex 11.7678 51.7678 5
      vertex 17.0836 53.7178 5
    endloop
  endfacet
  facet normal 0 0 1
    outer loop
      vertex 17.7675 51.9145 5
      vertex 12.5 50 5
      vertex 18 50 5
    endloop
  endfacet
  facet normal 0 0 1
    outer loop
      vertex 18 50 5
      vertex 11.7678 48.2322 5
      vertex 18 22.8532 5
    endloop
  endfacet
  facet normal 0 0 1
    outer loop
      vertex 11.7678 48.2322 5
      vertex 10 47.5 5
      vertex 18 22.8532 5
    endloop
  endfacet
  facet normal 0 0 1
    outer loop
      vertex 12.5 50 5
      vertex 11.7678 48.2322 5
      vertex 18 50 5
    endloop
  endfacet
  facet normal 0 0 1
    outer loop
      vertex 7.5 50 5
      vertex 8.23223 51.7678 5
      vertex 2 50 5
    endloop
  endfacet
  facet normal 1 0 6.12323e-17
    outer loop
      vertex 23 -8.38168 8.71353
      vertex 23 -6.61832 8.71353
      vertex 23 -7.5 9
    endloop
  endfacet
endsolid OpenSCAD_Model
