solid OpenSCAD_Model
  facet normal 2.22045e-16 0 -1
    outer loop
      vertex -12 30 0
      vertex 0 30 2.66454e-15
      vertex -12 0 0
    endloop
  endfacet
  facet normal 2.22045e-16 0 -1
    outer loop
      vertex -12 0 0
      vertex 0 30 2.66454e-15
      vertex 0 0 2.66454e-15
    endloop
  endfacet
  facet normal -1 0 -2.22045e-16
    outer loop
      vertex -12 21.6322 2.69806
      vertex -12 30 0
      vertex -12 0 9
    endloop
  endfacet
  facet normal -1 0 -2.22045e-16
    outer loop
      vertex -12 6.63223 2.69806
      vertex -12 30 0
      vertex -12 0 0
    endloop
  endfacet
  facet normal -1 0 -2.22045e-16
    outer loop
      vertex -12 0 9
      vertex -12 30 0
      vertex -12 7.5 6.5
    endloop
  endfacet
  facet normal -1 0 -2.22045e-16
    outer loop
      vertex -12 0 9
      vertex -12 7.5 6.5
      vertex -12 5.93634 5.74698
    endloop
  endfacet
  facet normal -1 0 -2.22045e-16
    outer loop
      vertex -12 0 9
      vertex -12 5.93634 5.74698
      vertex -12 0 0
    endloop
  endfacet
  facet normal -1 0 -2.22045e-16
    outer loop
      vertex -12 24.4499 4.05496
      vertex -12 30 0
      vertex -12 23.3678 2.69806
    endloop
  endfacet
  facet normal -1 0 -2.22045e-16
    outer loop
      vertex -12 9.44986 4.05496
      vertex -12 30 0
      vertex -12 8.36777 2.69806
    endloop
  endfacet
  facet normal -1 0 -2.22045e-16
    outer loop
      vertex -12 8.36777 2.69806
      vertex -12 30 0
      vertex -12 6.63223 2.69806
    endloop
  endfacet
  facet normal -1 0 -2.22045e-16
    outer loop
      vertex -12 5.55014 4.05496
      vertex -12 6.63223 2.69806
      vertex -12 0 0
    endloop
  endfacet
  facet normal -1 0 -2.22045e-16
    outer loop
      vertex -12 9.06366 5.74698
      vertex -12 30 0
      vertex -12 9.44986 4.05496
    endloop
  endfacet
  facet normal -1 0 -2.22045e-16
    outer loop
      vertex -12 7.5 6.5
      vertex -12 30 0
      vertex -12 9.06366 5.74698
    endloop
  endfacet
  facet normal -1 0 -2.22045e-16
    outer loop
      vertex -12 30 9
      vertex -12 22.5 6.5
      vertex -12 0 9
    endloop
  endfacet
  facet normal -1 0 -2.22045e-16
    outer loop
      vertex -12 24.0637 5.74698
      vertex -12 30 0
      vertex -12 24.4499 4.05496
    endloop
  endfacet
  facet normal -1 0 -2.22045e-16
    outer loop
      vertex -12 22.5 6.5
      vertex -12 20.9363 5.74698
      vertex -12 0 9
    endloop
  endfacet
  facet normal -1 0 -2.22045e-16
    outer loop
      vertex -12 20.9363 5.74698
      vertex -12 20.5501 4.05496
      vertex -12 0 9
    endloop
  endfacet
  facet normal -1 0 -2.22045e-16
    outer loop
      vertex -12 23.3678 2.69806
      vertex -12 30 0
      vertex -12 21.6322 2.69806
    endloop
  endfacet
  facet normal -1 0 -2.22045e-16
    outer loop
      vertex -12 20.5501 4.05496
      vertex -12 21.6322 2.69806
      vertex -12 0 9
    endloop
  endfacet
  facet normal -1 0 -2.22045e-16
    outer loop
      vertex -12 30 9
      vertex -12 30 0
      vertex -12 24.0637 5.74698
    endloop
  endfacet
  facet normal -1 0 -2.22045e-16
    outer loop
      vertex -12 30 9
      vertex -12 24.0637 5.74698
      vertex -12 22.5 6.5
    endloop
  endfacet
  facet normal -1 0 -2.22045e-16
    outer loop
      vertex -12 5.55014 4.05496
      vertex -12 0 0
      vertex -12 5.93634 5.74698
    endloop
  endfacet
  facet normal 0 -1 0
    outer loop
      vertex -5.01243 0 3.08183
      vertex -12 0 0
      vertex 0 0 2.66454e-15
    endloop
  endfacet
  facet normal 0 -1 0
    outer loop
      vertex -3.14432 0 3.72316
      vertex -5.01243 0 3.08183
      vertex 0 0 2.66454e-15
    endloop
  endfacet
  facet normal 0 -1 0
    outer loop
      vertex -1.9984e-15 0 9
      vertex -0.020493 0 8.50452
      vertex 0 0 2.66454e-15
    endloop
  endfacet
  facet normal 0 -1 0
    outer loop
      vertex -1.9984e-15 0 9
      vertex -0.0615492 0 9
      vertex -0.020493 0 8.50452
    endloop
  endfacet
  facet normal 0 -1 0
    outer loop
      vertex -0.50536 0 6.58983
      vertex -1.58566 0 4.93631
      vertex 0 0 2.66454e-15
    endloop
  endfacet
  facet normal 0 -1 0
    outer loop
      vertex -1.58566 0 4.93631
      vertex -3.14432 0 3.72316
      vertex 0 0 2.66454e-15
    endloop
  endfacet
  facet normal 0 -1 0
    outer loop
      vertex -6.86777 0 7.19806
      vertex -7.94986 0 8.55496
      vertex -12 0 9
    endloop
  endfacet
  facet normal 0 -1 0
    outer loop
      vertex -6 0 3.08183
      vertex -12 0 0
      vertex -5.01243 0 3.08183
    endloop
  endfacet
  facet normal 0 -1 0
    outer loop
      vertex -12 0 9
      vertex -12 0 0
      vertex -6 0 3.08183
    endloop
  endfacet
  facet normal 0 -1 0
    outer loop
      vertex -7.84828 0 9
      vertex -12 0 9
      vertex -7.94986 0 8.55496
    endloop
  endfacet
  facet normal 0 -1 0
    outer loop
      vertex -0.020493 0 8.50452
      vertex -0.50536 0 6.58983
      vertex 0 0 2.66454e-15
    endloop
  endfacet
  facet normal 0 -1 0
    outer loop
      vertex -6 0 3.08183
      vertex -6.86777 0 7.19806
      vertex -12 0 9
    endloop
  endfacet
  facet normal 0 -1 0
    outer loop
      vertex -6 0 3.08183
      vertex -6 0 7.19806
      vertex -6.86777 0 7.19806
    endloop
  endfacet
  facet normal 1 0 2.22045e-16
    outer loop
      vertex -1.51204e-16 8.44131 0.680962
      vertex 0 0 2.66454e-15
      vertex 0 30 2.66454e-15
    endloop
  endfacet
  facet normal 1 0 2.22045e-16
    outer loop
      vertex -1.9984e-15 30 9
      vertex -1.9984e-15 0 9
      vertex -1.87258e-15 7.5 8.43333
    endloop
  endfacet
  facet normal 1 0 2.22045e-16
    outer loop
      vertex -1.9984e-15 30 9
      vertex -1.87258e-15 7.5 8.43333
      vertex -1.87088e-15 7.53098 8.4257
    endloop
  endfacet
  facet normal 1 0 2.22045e-16
    outer loop
      vertex -1.9984e-15 30 9
      vertex -1.87088e-15 7.53098 8.4257
      vertex -1.77254e-15 9.32791 7.98279
    endloop
  endfacet
  facet normal 1 0 2.22045e-16
    outer loop
      vertex -6.96531e-16 18.8184 3.1369
      vertex -1.49533e-15 10.7371 6.73439
      vertex -1.48871e-15 10.7484 6.70455
    endloop
  endfacet
  facet normal 1 0 2.22045e-16
    outer loop
      vertex -1.48871e-15 25.7484 6.70455
      vertex -1.10447e-15 26.4047 4.97411
      vertex 0 30 2.66454e-15
    endloop
  endfacet
  facet normal 1 0 2.22045e-16
    outer loop
      vertex -3.51301e-16 19.8736 1.58212
      vertex -6.89497e-16 11.1777 3.10522
      vertex -6.83666e-16 11.1596 3.07896
    endloop
  endfacet
  facet normal 1 0 2.22045e-16
    outer loop
      vertex -6.96531e-16 18.8184 3.1369
      vertex -1.10447e-15 18.5953 4.97411
      vertex -1.77254e-15 9.32791 7.98279
    endloop
  endfacet
  facet normal 1 0 2.22045e-16
    outer loop
      vertex -6.96531e-16 18.8184 3.1369
      vertex -1.77254e-15 9.32791 7.98279
      vertex -1.76784e-15 9.3518 7.96163
    endloop
  endfacet
  facet normal 1 0 2.22045e-16
    outer loop
      vertex -6.96531e-16 18.8184 3.1369
      vertex -1.76784e-15 9.3518 7.96163
      vertex -1.49533e-15 10.7371 6.73439
    endloop
  endfacet
  facet normal 1 0 2.22045e-16
    outer loop
      vertex -1.51204e-16 21.5587 0.680962
      vertex -3.4547e-16 10.1083 1.55586
      vertex 0 30 2.66454e-15
    endloop
  endfacet
  facet normal 1 0 2.22045e-16
    outer loop
      vertex -3.51301e-16 4.87359 1.58212
      vertex -6.89497e-16 3.82227 3.10522
      vertex 0 0 2.66454e-15
    endloop
  endfacet
  facet normal 1 0 2.22045e-16
    outer loop
      vertex -3.4547e-16 10.1083 1.55586
      vertex -3.42177e-16 10.08 1.54103
      vertex 0 30 2.66454e-15
    endloop
  endfacet
  facet normal 1 0 2.22045e-16
    outer loop
      vertex -1.50003e-15 4.28681 6.75555
      vertex -1.77254e-15 5.67209 7.98279
      vertex -1.9984e-15 0 9
    endloop
  endfacet
  facet normal 1 0 2.22045e-16
    outer loop
      vertex -3.42177e-16 10.08 1.54103
      vertex -1.51204e-16 8.44131 0.680962
      vertex 0 30 2.66454e-15
    endloop
  endfacet
  facet normal 1 0 2.22045e-16
    outer loop
      vertex -1.51204e-16 6.55869 0.680962
      vertex 0 0 2.66454e-15
      vertex -1.51204e-16 8.44131 0.680962
    endloop
  endfacet
  facet normal 1 0 2.22045e-16
    outer loop
      vertex -1.54497e-16 6.53044 0.695791
      vertex 0 0 2.66454e-15
      vertex -1.51204e-16 6.55869 0.680962
    endloop
  endfacet
  facet normal 1 0 2.22045e-16
    outer loop
      vertex -3.51301e-16 4.87359 1.58212
      vertex 0 0 2.66454e-15
      vertex -3.4547e-16 4.89172 1.55586
    endloop
  endfacet
  facet normal 1 0 2.22045e-16
    outer loop
      vertex -1.9984e-15 0 9
      vertex 0 0 2.66454e-15
      vertex -6.89497e-16 3.82227 3.10522
    endloop
  endfacet
  facet normal 1 0 2.22045e-16
    outer loop
      vertex -1.9984e-15 0 9
      vertex -6.89497e-16 3.82227 3.10522
      vertex -6.96531e-16 3.81842 3.1369
    endloop
  endfacet
  facet normal 1 0 2.22045e-16
    outer loop
      vertex -1.9984e-15 0 9
      vertex -6.96531e-16 3.81842 3.1369
      vertex -1.10447e-15 3.59535 4.97411
    endloop
  endfacet
  facet normal 1 0 2.22045e-16
    outer loop
      vertex -1.9984e-15 0 9
      vertex -1.10447e-15 3.59535 4.97411
      vertex -1.1111e-15 3.60666 5.00395
    endloop
  endfacet
  facet normal 1 0 2.22045e-16
    outer loop
      vertex -1.9984e-15 0 9
      vertex -1.1111e-15 3.60666 5.00395
      vertex -1.49533e-15 4.26293 6.73439
    endloop
  endfacet
  facet normal 1 0 2.22045e-16
    outer loop
      vertex -1.9984e-15 0 9
      vertex -1.49533e-15 4.26293 6.73439
      vertex -1.50003e-15 4.28681 6.75555
    endloop
  endfacet
  facet normal 1 0 2.22045e-16
    outer loop
      vertex -1.77423e-15 5.70307 7.99043
      vertex -1.9984e-15 0 9
      vertex -1.77254e-15 5.67209 7.98279
    endloop
  endfacet
  facet normal 1 0 2.22045e-16
    outer loop
      vertex -1.87258e-15 7.5 8.43333
      vertex -1.9984e-15 0 9
      vertex -1.77423e-15 5.70307 7.99043
    endloop
  endfacet
  facet normal 1 0 2.22045e-16
    outer loop
      vertex -1.1111e-15 18.6067 5.00395
      vertex -1.49533e-15 19.2629 6.73439
      vertex -1.77254e-15 9.32791 7.98279
    endloop
  endfacet
  facet normal 1 0 2.22045e-16
    outer loop
      vertex -1.9984e-15 30 9
      vertex -1.77254e-15 9.32791 7.98279
      vertex -1.87258e-15 22.5 8.43333
    endloop
  endfacet
  facet normal 1 0 2.22045e-16
    outer loop
      vertex -1.9984e-15 30 9
      vertex -1.87258e-15 22.5 8.43333
      vertex -1.87088e-15 22.531 8.4257
    endloop
  endfacet
  facet normal 1 0 2.22045e-16
    outer loop
      vertex -1.9984e-15 30 9
      vertex -1.87088e-15 22.531 8.4257
      vertex -1.77254e-15 24.3279 7.98279
    endloop
  endfacet
  facet normal 1 0 2.22045e-16
    outer loop
      vertex -1.09744e-15 26.4008 4.94244
      vertex -6.89497e-16 26.1777 3.10522
      vertex 0 30 2.66454e-15
    endloop
  endfacet
  facet normal 1 0 2.22045e-16
    outer loop
      vertex -1.9984e-15 30 9
      vertex -1.77254e-15 24.3279 7.98279
      vertex -1.76784e-15 24.3518 7.96163
    endloop
  endfacet
  facet normal 1 0 2.22045e-16
    outer loop
      vertex -1.9984e-15 30 9
      vertex -1.49533e-15 25.7371 6.73439
      vertex 0 30 2.66454e-15
    endloop
  endfacet
  facet normal 1 0 2.22045e-16
    outer loop
      vertex -1.9984e-15 30 9
      vertex -1.76784e-15 24.3518 7.96163
      vertex -1.49533e-15 25.7371 6.73439
    endloop
  endfacet
  facet normal 1 0 2.22045e-16
    outer loop
      vertex -1.49533e-15 25.7371 6.73439
      vertex -1.48871e-15 25.7484 6.70455
      vertex 0 30 2.66454e-15
    endloop
  endfacet
  facet normal 1 0 2.22045e-16
    outer loop
      vertex -1.10447e-15 26.4047 4.97411
      vertex -1.09744e-15 26.4008 4.94244
      vertex 0 30 2.66454e-15
    endloop
  endfacet
  facet normal 1 0 2.22045e-16
    outer loop
      vertex -6.89497e-16 26.1777 3.10522
      vertex -6.83666e-16 26.1596 3.07896
      vertex 0 30 2.66454e-15
    endloop
  endfacet
  facet normal 1 0 2.22045e-16
    outer loop
      vertex -6.83666e-16 26.1596 3.07896
      vertex -3.4547e-16 25.1083 1.55586
      vertex 0 30 2.66454e-15
    endloop
  endfacet
  facet normal 1 0 2.22045e-16
    outer loop
      vertex -3.4547e-16 25.1083 1.55586
      vertex -3.42177e-16 25.08 1.54103
      vertex 0 30 2.66454e-15
    endloop
  endfacet
  facet normal 1 0 2.22045e-16
    outer loop
      vertex -1.54497e-16 6.53044 0.695791
      vertex -3.4547e-16 4.89172 1.55586
      vertex 0 0 2.66454e-15
    endloop
  endfacet
  facet normal 1 0 2.22045e-16
    outer loop
      vertex -3.51301e-16 19.8736 1.58212
      vertex -1.10447e-15 11.4047 4.97411
      vertex -1.09744e-15 11.4008 4.94244
    endloop
  endfacet
  facet normal 1 0 2.22045e-16
    outer loop
      vertex -1.51204e-16 23.4413 0.680962
      vertex -1.51204e-16 21.5587 0.680962
      vertex 0 30 2.66454e-15
    endloop
  endfacet
  facet normal 1 0 2.22045e-16
    outer loop
      vertex -1.54497e-16 21.5304 0.695791
      vertex -3.4547e-16 10.1083 1.55586
      vertex -1.51204e-16 21.5587 0.680962
    endloop
  endfacet
  facet normal 1 0 2.22045e-16
    outer loop
      vertex -3.51301e-16 19.8736 1.58212
      vertex -6.89497e-16 18.8223 3.10522
      vertex -1.10447e-15 11.4047 4.97411
    endloop
  endfacet
  facet normal 1 0 2.22045e-16
    outer loop
      vertex -1.54497e-16 21.5304 0.695791
      vertex -6.83666e-16 11.1596 3.07896
      vertex -3.4547e-16 10.1083 1.55586
    endloop
  endfacet
  facet normal 1 0 2.22045e-16
    outer loop
      vertex -1.54497e-16 21.5304 0.695791
      vertex -3.4547e-16 19.8917 1.55586
      vertex -6.83666e-16 11.1596 3.07896
    endloop
  endfacet
  facet normal 1 0 2.22045e-16
    outer loop
      vertex -6.83666e-16 11.1596 3.07896
      vertex -3.4547e-16 19.8917 1.55586
      vertex -3.51301e-16 19.8736 1.58212
    endloop
  endfacet
  facet normal 1 0 2.22045e-16
    outer loop
      vertex -1.1111e-15 18.6067 5.00395
      vertex -1.77254e-15 9.32791 7.98279
      vertex -1.10447e-15 18.5953 4.97411
    endloop
  endfacet
  facet normal 1 0 2.22045e-16
    outer loop
      vertex -1.50003e-15 19.2868 6.75555
      vertex -1.77254e-15 9.32791 7.98279
      vertex -1.49533e-15 19.2629 6.73439
    endloop
  endfacet
  facet normal 1 0 2.22045e-16
    outer loop
      vertex -1.77254e-15 20.6721 7.98279
      vertex -1.77254e-15 9.32791 7.98279
      vertex -1.50003e-15 19.2868 6.75555
    endloop
  endfacet
  facet normal 1 0 2.22045e-16
    outer loop
      vertex -1.77423e-15 20.7031 7.99043
      vertex -1.77254e-15 9.32791 7.98279
      vertex -1.77254e-15 20.6721 7.98279
    endloop
  endfacet
  facet normal 1 0 2.22045e-16
    outer loop
      vertex -1.87258e-15 22.5 8.43333
      vertex -1.77254e-15 9.32791 7.98279
      vertex -1.77423e-15 20.7031 7.99043
    endloop
  endfacet
  facet normal 1 0 2.22045e-16
    outer loop
      vertex -3.51301e-16 19.8736 1.58212
      vertex -1.09744e-15 11.4008 4.94244
      vertex -6.89497e-16 11.1777 3.10522
    endloop
  endfacet
  facet normal 1 0 2.22045e-16
    outer loop
      vertex -1.48871e-15 10.7484 6.70455
      vertex -6.89497e-16 18.8223 3.10522
      vertex -6.96531e-16 18.8184 3.1369
    endloop
  endfacet
  facet normal 1 0 2.22045e-16
    outer loop
      vertex -1.48871e-15 10.7484 6.70455
      vertex -1.10447e-15 11.4047 4.97411
      vertex -6.89497e-16 18.8223 3.10522
    endloop
  endfacet
  facet normal 1 0 2.22045e-16
    outer loop
      vertex -3.42177e-16 25.08 1.54103
      vertex -1.51204e-16 23.4413 0.680962
      vertex 0 30 2.66454e-15
    endloop
  endfacet
  facet normal 0 1 0
    outer loop
      vertex -11.9385 30 9
      vertex -11.9795 30 8.50452
      vertex -12 30 9
    endloop
  endfacet
  facet normal 0 1 0
    outer loop
      vertex -12 30 9
      vertex -11.9795 30 8.50452
      vertex -12 30 0
    endloop
  endfacet
  facet normal 0 1 0
    outer loop
      vertex -11.9795 30 8.50452
      vertex -11.4946 30 6.58983
      vertex -12 30 0
    endloop
  endfacet
  facet normal 0 1 0
    outer loop
      vertex -11.4946 30 6.58983
      vertex -10.4143 30 4.93631
      vertex -12 30 0
    endloop
  endfacet
  facet normal 0 1 0
    outer loop
      vertex -12 30 0
      vertex -8.85568 30 3.72316
      vertex 0 30 2.66454e-15
    endloop
  endfacet
  facet normal 0 1 0
    outer loop
      vertex -8.85568 30 3.72316
      vertex -6.98757 30 3.08183
      vertex 0 30 2.66454e-15
    endloop
  endfacet
  facet normal 0 1 0
    outer loop
      vertex 0 30 2.66454e-15
      vertex -6 30 3.08183
      vertex -1.9984e-15 30 9
    endloop
  endfacet
  facet normal 0 1 0
    outer loop
      vertex -6 30 3.08183
      vertex -6 30 5.25
      vertex -3.85714 30 5.25
    endloop
  endfacet
  facet normal 0 1 0
    outer loop
      vertex -3.82383 30 5.26923
      vertex -3.85714 30 5.25
      vertex -3.85714 30 5.28846
    endloop
  endfacet
  facet normal 0 1 0
    outer loop
      vertex -6 30 3.08183
      vertex -3.85714 30 5.25
      vertex -3.82383 30 5.26923
    endloop
  endfacet
  facet normal 0 1 0
    outer loop
      vertex -6 30 3.08183
      vertex -3.82383 30 5.26923
      vertex -1.9984e-15 30 9
    endloop
  endfacet
  facet normal 0 1 0
    outer loop
      vertex -1.9984e-15 30 9
      vertex -1.68098 30 8.98077
      vertex -1.71429 30 9
    endloop
  endfacet
  facet normal 0 1 0
    outer loop
      vertex -3.82383 30 5.26923
      vertex -1.68098 30 8.98077
      vertex -1.9984e-15 30 9
    endloop
  endfacet
  facet normal 0 1 0
    outer loop
      vertex -6.98757 30 3.08183
      vertex -6 30 3.08183
      vertex 0 30 2.66454e-15
    endloop
  endfacet
  facet normal 0 1 0
    outer loop
      vertex -10.4143 30 4.93631
      vertex -8.85568 30 3.72316
      vertex -12 30 0
    endloop
  endfacet
  facet normal -2.22045e-16 0 1
    outer loop
      vertex -12 0 9
      vertex -7.84828 0 9
      vertex -7.84828 1.13171e-16 9
    endloop
  endfacet
  facet normal -2.22045e-16 0 1
    outer loop
      vertex -11.9385 30 9
      vertex -12 0 9
      vertex -11.9385 3.63613e-16 9
    endloop
  endfacet
  facet normal -2.22045e-16 0 1
    outer loop
      vertex -11.9385 3.63613e-16 9
      vertex -12 0 9
      vertex -7.84828 1.13171e-16 9
    endloop
  endfacet
  facet normal -2.22045e-16 0 1
    outer loop
      vertex -12 30 9
      vertex -12 0 9
      vertex -11.9385 30 9
    endloop
  endfacet
  facet normal 2.00055e-16 -0.433884 -0.900969
    outer loop
      vertex -12 9.06366 5.74698
      vertex -2.85613 9.06366 5.74698
      vertex -12 7.5 6.5
    endloop
  endfacet
  facet normal 2.00055e-16 -0.433884 -0.900969
    outer loop
      vertex -12 7.5 6.5
      vertex -2.85613 9.06366 5.74698
      vertex -2.9 8.96984 5.79216
    endloop
  endfacet
  facet normal 2.00055e-16 -0.433884 -0.900969
    outer loop
      vertex -12 7.5 6.5
      vertex -2.9 8.96984 5.79216
      vertex -2.9 7.5 6.5
    endloop
  endfacet
  facet normal 2.00055e-16 0.433884 -0.900969
    outer loop
      vertex -2.9 7.5 6.5
      vertex -2.9 6.03016 5.79216
      vertex -12 7.5 6.5
    endloop
  endfacet
  facet normal 2.00055e-16 0.433884 -0.900969
    outer loop
      vertex -12 7.5 6.5
      vertex -2.9 6.03016 5.79216
      vertex -2.85613 5.93634 5.74698
    endloop
  endfacet
  facet normal 2.00055e-16 0.433884 -0.900969
    outer loop
      vertex -12 7.5 6.5
      vertex -2.85613 5.93634 5.74698
      vertex -12 5.93634 5.74698
    endloop
  endfacet
  facet normal 4.94096e-17 -0.974928 -0.222521
    outer loop
      vertex -12 9.06366 5.74698
      vertex -12 9.44986 4.05496
      vertex -2.82677 9.44986 4.05496
    endloop
  endfacet
  facet normal 4.94096e-17 -0.974928 -0.222521
    outer loop
      vertex -2.9 9.07452 5.69943
      vertex -12 9.06366 5.74698
      vertex -2.9 9.41869 4.19151
    endloop
  endfacet
  facet normal 4.94096e-17 -0.974928 -0.222521
    outer loop
      vertex -2.9 9.41869 4.19151
      vertex -12 9.06366 5.74698
      vertex -2.82677 9.44986 4.05496
    endloop
  endfacet
  facet normal 4.94096e-17 -0.974928 -0.222521
    outer loop
      vertex -2.85613 9.06366 5.74698
      vertex -12 9.06366 5.74698
      vertex -2.9 9.07452 5.69943
    endloop
  endfacet
  facet normal -1.38443e-16 -0.781831 0.62349
    outer loop
      vertex -12 9.44986 4.05496
      vertex -12 8.36777 2.69806
      vertex -2.81206 8.36777 2.69806
    endloop
  endfacet
  facet normal -1.38443e-16 -0.781831 0.62349
    outer loop
      vertex -2.9 9.39353 3.98433
      vertex -12 9.44986 4.05496
      vertex -2.9 8.45594 2.80863
    endloop
  endfacet
  facet normal -1.38443e-16 -0.781831 0.62349
    outer loop
      vertex -2.9 8.45594 2.80863
      vertex -12 9.44986 4.05496
      vertex -2.81206 8.36777 2.69806
    endloop
  endfacet
  facet normal -1.38443e-16 -0.781831 0.62349
    outer loop
      vertex -2.82677 9.44986 4.05496
      vertex -12 9.44986 4.05496
      vertex -2.9 9.39353 3.98433
    endloop
  endfacet
  facet normal -2.22045e-16 0 1
    outer loop
      vertex -12 6.63223 2.69806
      vertex -2.81206 6.63223 2.69806
      vertex -2.9 6.75472 2.69806
    endloop
  endfacet
  facet normal -2.22045e-16 0 1
    outer loop
      vertex -2.9 8.24528 2.69806
      vertex -12 6.63223 2.69806
      vertex -2.9 6.75472 2.69806
    endloop
  endfacet
  facet normal -2.22045e-16 0 1
    outer loop
      vertex -2.9 8.24528 2.69806
      vertex -2.81206 8.36777 2.69806
      vertex -12 6.63223 2.69806
    endloop
  endfacet
  facet normal -2.22045e-16 0 1
    outer loop
      vertex -2.81206 8.36777 2.69806
      vertex -12 8.36777 2.69806
      vertex -12 6.63223 2.69806
    endloop
  endfacet
  facet normal -1.38443e-16 0.781831 0.62349
    outer loop
      vertex -2.82677 5.55014 4.05496
      vertex -2.9 5.60647 3.98433
      vertex -12 5.55014 4.05496
    endloop
  endfacet
  facet normal -1.38443e-16 0.781831 0.62349
    outer loop
      vertex -12 5.55014 4.05496
      vertex -2.9 5.60647 3.98433
      vertex -2.9 6.54406 2.80863
    endloop
  endfacet
  facet normal -1.38443e-16 0.781831 0.62349
    outer loop
      vertex -2.9 6.54406 2.80863
      vertex -2.81206 6.63223 2.69806
      vertex -12 5.55014 4.05496
    endloop
  endfacet
  facet normal -1.38443e-16 0.781831 0.62349
    outer loop
      vertex -12 5.55014 4.05496
      vertex -2.81206 6.63223 2.69806
      vertex -12 6.63223 2.69806
    endloop
  endfacet
  facet normal 4.94096e-17 0.974928 -0.222521
    outer loop
      vertex -2.85613 5.93634 5.74698
      vertex -2.9 5.92548 5.69943
      vertex -12 5.93634 5.74698
    endloop
  endfacet
  facet normal 4.94096e-17 0.974928 -0.222521
    outer loop
      vertex -12 5.93634 5.74698
      vertex -2.9 5.92548 5.69943
      vertex -2.9 5.58131 4.19151
    endloop
  endfacet
  facet normal 4.94096e-17 0.974928 -0.222521
    outer loop
      vertex -2.9 5.58131 4.19151
      vertex -2.82677 5.55014 4.05496
      vertex -12 5.93634 5.74698
    endloop
  endfacet
  facet normal 4.94096e-17 0.974928 -0.222521
    outer loop
      vertex -12 5.93634 5.74698
      vertex -2.82677 5.55014 4.05496
      vertex -12 5.55014 4.05496
    endloop
  endfacet
  facet normal 2.00055e-16 -0.433884 -0.900969
    outer loop
      vertex -12 24.0637 5.74698
      vertex -8.452 24.0637 5.74698
      vertex -12 22.5 6.5
    endloop
  endfacet
  facet normal 2.00055e-16 -0.433884 -0.900969
    outer loop
      vertex -12 22.5 6.5
      vertex -8.452 24.0637 5.74698
      vertex -8.88675 22.5 6.5
    endloop
  endfacet
  facet normal 2.00055e-16 0.433884 -0.900969
    outer loop
      vertex -8.88675 22.5 6.5
      vertex -8.452 20.9363 5.74698
      vertex -12 22.5 6.5
    endloop
  endfacet
  facet normal 2.00055e-16 0.433884 -0.900969
    outer loop
      vertex -12 22.5 6.5
      vertex -8.452 20.9363 5.74698
      vertex -12 20.9363 5.74698
    endloop
  endfacet
  facet normal 4.94096e-17 -0.974928 -0.222521
    outer loop
      vertex -12 24.0637 5.74698
      vertex -12 24.4499 4.05496
      vertex -2.82677 24.4499 4.05496
    endloop
  endfacet
  facet normal 4.94096e-17 -0.974928 -0.222521
    outer loop
      vertex -8.14286 24.1771 5.25
      vertex -12 24.0637 5.74698
      vertex -2.9 24.4187 4.19151
    endloop
  endfacet
  facet normal 4.94096e-17 -0.974928 -0.222521
    outer loop
      vertex -2.9 24.4187 4.19151
      vertex -12 24.0637 5.74698
      vertex -2.82677 24.4499 4.05496
    endloop
  endfacet
  facet normal 4.94096e-17 -0.974928 -0.222521
    outer loop
      vertex -2.85613 24.0637 5.74698
      vertex -3.548 24.0637 5.74698
      vertex -2.9 24.0745 5.69943
    endloop
  endfacet
  facet normal 4.94096e-17 -0.974928 -0.222521
    outer loop
      vertex -2.9 24.0745 5.69943
      vertex -3.82383 24.1727 5.26923
      vertex -2.9 24.4187 4.19151
    endloop
  endfacet
  facet normal 4.94096e-17 -0.974928 -0.222521
    outer loop
      vertex -3.85714 24.1683 5.28846
      vertex -3.85714 24.1771 5.25
      vertex -3.82383 24.1727 5.26923
    endloop
  endfacet
  facet normal 4.94096e-17 -0.974928 -0.222521
    outer loop
      vertex -3.82383 24.1727 5.26923
      vertex -3.85714 24.1771 5.25
      vertex -2.9 24.4187 4.19151
    endloop
  endfacet
  facet normal 4.94096e-17 -0.974928 -0.222521
    outer loop
      vertex -3.85714 24.1771 5.25
      vertex -8.14286 24.1771 5.25
      vertex -2.9 24.4187 4.19151
    endloop
  endfacet
  facet normal 4.94096e-17 -0.974928 -0.222521
    outer loop
      vertex -8.17617 24.1727 5.26923
      vertex -12 24.0637 5.74698
      vertex -8.14286 24.1771 5.25
    endloop
  endfacet
  facet normal 4.94096e-17 -0.974928 -0.222521
    outer loop
      vertex -8.14286 24.1683 5.28846
      vertex -8.17617 24.1727 5.26923
      vertex -8.14286 24.1771 5.25
    endloop
  endfacet
  facet normal 4.94096e-17 -0.974928 -0.222521
    outer loop
      vertex -8.17617 24.1727 5.26923
      vertex -8.452 24.0637 5.74698
      vertex -12 24.0637 5.74698
    endloop
  endfacet
  facet normal 4.94096e-17 -0.974928 -0.222521
    outer loop
      vertex -3.548 24.0637 5.74698
      vertex -3.82383 24.1727 5.26923
      vertex -2.9 24.0745 5.69943
    endloop
  endfacet
  facet normal -1.38443e-16 -0.781831 0.62349
    outer loop
      vertex -12 24.4499 4.05496
      vertex -12 23.3678 2.69806
      vertex -2.81206 23.3678 2.69806
    endloop
  endfacet
  facet normal -1.38443e-16 -0.781831 0.62349
    outer loop
      vertex -2.9 24.3935 3.98433
      vertex -12 24.4499 4.05496
      vertex -2.9 23.4559 2.80863
    endloop
  endfacet
  facet normal -1.38443e-16 -0.781831 0.62349
    outer loop
      vertex -2.9 23.4559 2.80863
      vertex -12 24.4499 4.05496
      vertex -2.81206 23.3678 2.69806
    endloop
  endfacet
  facet normal -1.38443e-16 -0.781831 0.62349
    outer loop
      vertex -2.82677 24.4499 4.05496
      vertex -12 24.4499 4.05496
      vertex -2.9 24.3935 3.98433
    endloop
  endfacet
  facet normal -2.22045e-16 0 1
    outer loop
      vertex -12 21.6322 2.69806
      vertex -2.81206 21.6322 2.69806
      vertex -2.9 21.7547 2.69806
    endloop
  endfacet
  facet normal -2.22045e-16 0 1
    outer loop
      vertex -2.9 23.2453 2.69806
      vertex -12 21.6322 2.69806
      vertex -2.9 21.7547 2.69806
    endloop
  endfacet
  facet normal -2.22045e-16 0 1
    outer loop
      vertex -2.9 23.2453 2.69806
      vertex -2.81206 23.3678 2.69806
      vertex -12 21.6322 2.69806
    endloop
  endfacet
  facet normal -2.22045e-16 0 1
    outer loop
      vertex -2.81206 23.3678 2.69806
      vertex -12 23.3678 2.69806
      vertex -12 21.6322 2.69806
    endloop
  endfacet
  facet normal -1.38443e-16 0.781831 0.62349
    outer loop
      vertex -2.82677 20.5501 4.05496
      vertex -2.9 20.6065 3.98433
      vertex -12 20.5501 4.05496
    endloop
  endfacet
  facet normal -1.38443e-16 0.781831 0.62349
    outer loop
      vertex -12 20.5501 4.05496
      vertex -2.9 20.6065 3.98433
      vertex -2.9 21.5441 2.80863
    endloop
  endfacet
  facet normal -1.38443e-16 0.781831 0.62349
    outer loop
      vertex -2.9 21.5441 2.80863
      vertex -2.81206 21.6322 2.69806
      vertex -12 20.5501 4.05496
    endloop
  endfacet
  facet normal -1.38443e-16 0.781831 0.62349
    outer loop
      vertex -12 20.5501 4.05496
      vertex -2.81206 21.6322 2.69806
      vertex -12 21.6322 2.69806
    endloop
  endfacet
  facet normal 4.94096e-17 0.974928 -0.222521
    outer loop
      vertex -8.452 20.9363 5.74698
      vertex -8.17617 20.8273 5.26923
      vertex -12 20.9363 5.74698
    endloop
  endfacet
  facet normal 4.94096e-17 0.974928 -0.222521
    outer loop
      vertex -8.14286 20.8229 5.25
      vertex -8.17617 20.8273 5.26923
      vertex -8.14286 20.8317 5.28846
    endloop
  endfacet
  facet normal 4.94096e-17 0.974928 -0.222521
    outer loop
      vertex -12 20.9363 5.74698
      vertex -8.17617 20.8273 5.26923
      vertex -8.14286 20.8229 5.25
    endloop
  endfacet
  facet normal 4.94096e-17 0.974928 -0.222521
    outer loop
      vertex -12 20.9363 5.74698
      vertex -8.14286 20.8229 5.25
      vertex -2.9 20.5813 4.19151
    endloop
  endfacet
  facet normal 4.94096e-17 0.974928 -0.222521
    outer loop
      vertex -3.82383 20.8273 5.26923
      vertex -3.85714 20.8229 5.25
      vertex -3.85714 20.8317 5.28846
    endloop
  endfacet
  facet normal 4.94096e-17 0.974928 -0.222521
    outer loop
      vertex -2.9 20.9255 5.69943
      vertex -3.85714 20.8229 5.25
      vertex -2.85613 20.9363 5.74698
    endloop
  endfacet
  facet normal 4.94096e-17 0.974928 -0.222521
    outer loop
      vertex -2.85613 20.9363 5.74698
      vertex -3.82383 20.8273 5.26923
      vertex -3.548 20.9363 5.74698
    endloop
  endfacet
  facet normal 4.94096e-17 0.974928 -0.222521
    outer loop
      vertex -3.85714 20.8229 5.25
      vertex -3.82383 20.8273 5.26923
      vertex -2.85613 20.9363 5.74698
    endloop
  endfacet
  facet normal 4.94096e-17 0.974928 -0.222521
    outer loop
      vertex -8.14286 20.8229 5.25
      vertex -3.85714 20.8229 5.25
      vertex -2.9 20.5813 4.19151
    endloop
  endfacet
  facet normal 4.94096e-17 0.974928 -0.222521
    outer loop
      vertex -3.85714 20.8229 5.25
      vertex -2.9 20.9255 5.69943
      vertex -2.9 20.5813 4.19151
    endloop
  endfacet
  facet normal 4.94096e-17 0.974928 -0.222521
    outer loop
      vertex -12 20.9363 5.74698
      vertex -2.9 20.5813 4.19151
      vertex -2.82677 20.5501 4.05496
    endloop
  endfacet
  facet normal 4.94096e-17 0.974928 -0.222521
    outer loop
      vertex -12 20.9363 5.74698
      vertex -2.82677 20.5501 4.05496
      vertex -12 20.5501 4.05496
    endloop
  endfacet
  facet normal 0.974928 -2.16477e-16 -0.222521
    outer loop
      vertex -7.94986 0 8.55496
      vertex -7.94986 15 8.55496
      vertex -7.56366 15 10.247
    endloop
  endfacet
  facet normal 0.974928 -2.16477e-16 -0.222521
    outer loop
      vertex -7.84828 1.13171e-16 9
      vertex -7.94986 0 8.55496
      vertex -7.56366 15 10.247
    endloop
  endfacet
  facet normal 0.974928 -2.16477e-16 -0.222521
    outer loop
      vertex -7.56366 9.57436e-17 10.247
      vertex -7.84828 1.13171e-16 9
      vertex -7.56366 15 10.247
    endloop
  endfacet
  facet normal 0.974928 -2.16477e-16 -0.222521
    outer loop
      vertex -7.84828 1.13171e-16 9
      vertex -7.84828 0 9
      vertex -7.94986 0 8.55496
    endloop
  endfacet
  facet normal 0.781831 -1.73601e-16 0.62349
    outer loop
      vertex -7.94986 0 8.55496
      vertex -6.86777 0 7.19806
      vertex -6.86777 15 7.19806
    endloop
  endfacet
  facet normal 0.781831 -1.73601e-16 0.62349
    outer loop
      vertex -7.94986 15 8.55496
      vertex -7.94986 0 8.55496
      vertex -6.86777 15 7.19806
    endloop
  endfacet
  facet normal -2.22045e-16 0 1
    outer loop
      vertex -6.86777 0 7.19806
      vertex -6 0 7.19806
      vertex -5.13223 15 7.19806
    endloop
  endfacet
  facet normal -2.22045e-16 0 1
    outer loop
      vertex -5.13223 15 7.19806
      vertex -6 0 7.19806
      vertex -5.13223 -5.31336e-17 7.19806
    endloop
  endfacet
  facet normal -2.22045e-16 0 1
    outer loop
      vertex -6.86777 0 7.19806
      vertex -5.13223 15 7.19806
      vertex -6.86777 15 7.19806
    endloop
  endfacet
  facet normal -6.12303e-17 -1 -1.35959e-32
    outer loop
      vertex -6 -1.35959e-32 11
      vertex -2.31472 -2.25651e-16 13.7348
      vertex -11.9385 3.63613e-16 9
    endloop
  endfacet
  facet normal -6.12303e-17 -1 -1.35959e-32
    outer loop
      vertex -11.9385 3.63613e-16 9
      vertex -7.84828 1.13171e-16 9
      vertex -7.56366 9.57436e-17 10.247
    endloop
  endfacet
  facet normal -6.12303e-17 -1 -1.35959e-32
    outer loop
      vertex -4.43634 -9.57436e-17 10.247
      vertex -0.020493 -3.66127e-16 8.50452
      vertex -6 -1.35959e-32 11
    endloop
  endfacet
  facet normal -6.12303e-17 -1 -1.35959e-32
    outer loop
      vertex -6 -1.35959e-32 11
      vertex -11.9385 3.63613e-16 9
      vertex -7.56366 9.57436e-17 10.247
    endloop
  endfacet
  facet normal -6.12303e-17 -1 -1.35959e-32
    outer loop
      vertex -4.05014 -1.1939e-16 8.55496
      vertex -1.58566 -2.70292e-16 4.93631
      vertex -4.43634 -9.57436e-17 10.247
    endloop
  endfacet
  facet normal -6.12303e-17 -1 -1.35959e-32
    outer loop
      vertex -4.05014 -1.1939e-16 8.55496
      vertex -5.13223 -5.31336e-17 7.19806
      vertex -6 0 3.08183
    endloop
  endfacet
  facet normal -6.12303e-17 -1 -1.35959e-32
    outer loop
      vertex -5.13223 -5.31336e-17 7.19806
      vertex -6 0 7.19806
      vertex -6 0 3.08183
    endloop
  endfacet
  facet normal -6.12303e-17 -1 -1.35959e-32
    outer loop
      vertex -4.05014 -1.1939e-16 8.55496
      vertex -6 0 3.08183
      vertex -5.01243 -6.04691e-17 3.08183
    endloop
  endfacet
  facet normal -6.12303e-17 -1 -1.35959e-32
    outer loop
      vertex -4.05014 -1.1939e-16 8.55496
      vertex -5.01243 -6.04691e-17 3.08183
      vertex -3.14432 -1.74854e-16 3.72316
    endloop
  endfacet
  facet normal -6.12303e-17 -1 -1.35959e-32
    outer loop
      vertex -4.05014 -1.1939e-16 8.55496
      vertex -3.14432 -1.74854e-16 3.72316
      vertex -1.58566 -2.70292e-16 4.93631
    endloop
  endfacet
  facet normal -6.12303e-17 -1 -1.35959e-32
    outer loop
      vertex -4.43634 -9.57436e-17 10.247
      vertex -1.58566 -2.70292e-16 4.93631
      vertex -0.50536 -3.36439e-16 6.58983
    endloop
  endfacet
  facet normal -6.12303e-17 -1 -1.35959e-32
    outer loop
      vertex -4.43634 -9.57436e-17 10.247
      vertex -0.50536 -3.36439e-16 6.58983
      vertex -0.020493 -3.66127e-16 8.50452
    endloop
  endfacet
  facet normal -6.12303e-17 -1 -1.35959e-32
    outer loop
      vertex -6 -1.35959e-32 11
      vertex -0.020493 -3.66127e-16 8.50452
      vertex -0.183598 -3.5614e-16 10.4729
    endloop
  endfacet
  facet normal -6.12303e-17 -1 -1.35959e-32
    outer loop
      vertex -6 -1.35959e-32 11
      vertex -0.183598 -3.5614e-16 10.4729
      vertex -0.977001 -3.0756e-16 12.2817
    endloop
  endfacet
  facet normal -6.12303e-17 -1 -1.35959e-32
    outer loop
      vertex -6 -1.35959e-32 11
      vertex -0.977001 -3.0756e-16 12.2817
      vertex -2.31472 -2.25651e-16 13.7348
    endloop
  endfacet
  facet normal -6.12303e-17 -1 -1.35959e-32
    outer loop
      vertex -11.9385 3.63613e-16 9
      vertex -2.31472 -2.25651e-16 13.7348
      vertex -4.0518 -1.19289e-16 14.6749
    endloop
  endfacet
  facet normal -6.12303e-17 -1 -1.35959e-32
    outer loop
      vertex -11.9385 3.63613e-16 9
      vertex -4.0518 -1.19289e-16 14.6749
      vertex -6 0 15
    endloop
  endfacet
  facet normal -6.12303e-17 -1 -1.35959e-32
    outer loop
      vertex -11.9385 3.63613e-16 9
      vertex -6 0 15
      vertex -7.9482 1.19289e-16 14.6749
    endloop
  endfacet
  facet normal -6.12303e-17 -1 -1.35959e-32
    outer loop
      vertex -11.9385 3.63613e-16 9
      vertex -7.9482 1.19289e-16 14.6749
      vertex -9.68528 2.25651e-16 13.7348
    endloop
  endfacet
  facet normal -6.12303e-17 -1 -1.35959e-32
    outer loop
      vertex -11.9385 3.63613e-16 9
      vertex -9.68528 2.25651e-16 13.7348
      vertex -11.023 3.0756e-16 12.2817
    endloop
  endfacet
  facet normal -6.12303e-17 -1 -1.35959e-32
    outer loop
      vertex -11.9385 3.63613e-16 9
      vertex -11.023 3.0756e-16 12.2817
      vertex -11.8164 3.5614e-16 10.4729
    endloop
  endfacet
  facet normal 2.22045e-16 0 -1
    outer loop
      vertex -6 0 3.08183
      vertex -5.01243 0 3.08183
      vertex -5.01243 -6.04691e-17 3.08183
    endloop
  endfacet
  facet normal 0.324699 -1.98815e-17 -0.945817
    outer loop
      vertex -5.01243 0 3.08183
      vertex -3.14432 0 3.72316
      vertex -5.01243 -6.04691e-17 3.08183
    endloop
  endfacet
  facet normal 0.324699 -1.98815e-17 -0.945817
    outer loop
      vertex -5.01243 -6.04691e-17 3.08183
      vertex -3.14432 0 3.72316
      vertex -3.14432 -1.74854e-16 3.72316
    endloop
  endfacet
  facet normal 0.614213 -3.76085e-17 -0.78914
    outer loop
      vertex -3.14432 0 3.72316
      vertex -1.58566 0 4.93631
      vertex -3.14432 -1.74854e-16 3.72316
    endloop
  endfacet
  facet normal 0.614213 -3.76085e-17 -0.78914
    outer loop
      vertex -3.14432 -1.74854e-16 3.72316
      vertex -1.58566 0 4.93631
      vertex -1.58566 -2.70292e-16 4.93631
    endloop
  endfacet
  facet normal 0.837166 -5.126e-17 -0.546949
    outer loop
      vertex -1.58566 -2.70292e-16 4.93631
      vertex -1.58566 0 4.93631
      vertex -0.50536 0 6.58983
    endloop
  endfacet
  facet normal 0.837166 -5.126e-17 -0.546949
    outer loop
      vertex -0.50536 -3.36439e-16 6.58983
      vertex -1.58566 -2.70292e-16 4.93631
      vertex -0.50536 0 6.58983
    endloop
  endfacet
  facet normal 0.9694 -5.93567e-17 -0.245485
    outer loop
      vertex -0.50536 -3.36439e-16 6.58983
      vertex -0.50536 0 6.58983
      vertex -0.020493 0 8.50452
    endloop
  endfacet
  facet normal 0.9694 -5.93567e-17 -0.245485
    outer loop
      vertex -0.020493 -3.66127e-16 8.50452
      vertex -0.50536 -3.36439e-16 6.58983
      vertex -0.020493 0 8.50452
    endloop
  endfacet
  facet normal 0.996585 -6.10212e-17 0.0825792
    outer loop
      vertex -0.183598 -3.5614e-16 10.4729
      vertex -0.020493 -3.66127e-16 8.50452
      vertex -0.020493 0 8.50452
    endloop
  endfacet
  facet normal 0.996585 -6.10212e-17 0.0825792
    outer loop
      vertex -0.0615492 30 9
      vertex -0.183598 -3.5614e-16 10.4729
      vertex -0.0615492 0 9
    endloop
  endfacet
  facet normal 0.996585 -6.10212e-17 0.0825792
    outer loop
      vertex -0.0615492 0 9
      vertex -0.183598 -3.5614e-16 10.4729
      vertex -0.020493 0 8.50452
    endloop
  endfacet
  facet normal 0.996585 -6.10212e-17 0.0825792
    outer loop
      vertex -0.183598 30 10.4729
      vertex -0.183598 -3.5614e-16 10.4729
      vertex -0.0615492 30 9
    endloop
  endfacet
  facet normal -2.22045e-16 0 1
    outer loop
      vertex -1.9984e-15 0 9
      vertex -0.0615492 30 9
      vertex -0.0615492 0 9
    endloop
  endfacet
  facet normal -2.22045e-16 0 1
    outer loop
      vertex -1.9984e-15 30 9
      vertex -0.0615492 30 9
      vertex -1.9984e-15 0 9
    endloop
  endfacet
  facet normal -2.22045e-16 0 1
    outer loop
      vertex -1.71429 30 9
      vertex -0.0615492 30 9
      vertex -1.9984e-15 30 9
    endloop
  endfacet
  facet normal 0.543391 -0.200901 -0.815086
    outer loop
      vertex -2.9 8.42945 6.27091
      vertex -1.87088e-15 7.53098 8.4257
      vertex -2.9 7.5 6.5
    endloop
  endfacet
  facet normal 0.543391 -0.200901 -0.815086
    outer loop
      vertex -2.9 7.5 6.5
      vertex -1.87088e-15 7.53098 8.4257
      vertex -1.87258e-15 7.5 8.43333
    endloop
  endfacet
  facet normal 0.543391 0.200901 -0.815086
    outer loop
      vertex -2.9 7.5 6.5
      vertex -1.87258e-15 7.5 8.43333
      vertex -1.77423e-15 5.70307 7.99043
    endloop
  endfacet
  facet normal 0.543391 0.200901 -0.815086
    outer loop
      vertex -1.77423e-15 5.70307 7.99043
      vertex -1.77254e-15 5.67209 7.98279
      vertex -2.9 7.5 6.5
    endloop
  endfacet
  facet normal 0.543391 0.200901 -0.815086
    outer loop
      vertex -2.9 7.5 6.5
      vertex -1.77254e-15 5.67209 7.98279
      vertex -2.9 6.57055 6.27091
    endloop
  endfacet
  facet normal 0.543391 0.556678 -0.62836
    outer loop
      vertex -2.9 6.57055 6.27091
      vertex -1.77254e-15 5.67209 7.98279
      vertex -1.50003e-15 4.28681 6.75555
    endloop
  endfacet
  facet normal 0.543391 0.556678 -0.62836
    outer loop
      vertex -1.50003e-15 4.28681 6.75555
      vertex -1.49533e-15 4.26293 6.73439
      vertex -2.9 6.57055 6.27091
    endloop
  endfacet
  facet normal 0.543391 0.556678 -0.62836
    outer loop
      vertex -2.9 5.92548 5.69943
      vertex -1.49533e-15 4.26293 6.73439
      vertex -2.9 5.85403 5.63613
    endloop
  endfacet
  facet normal 0.543391 0.556678 -0.62836
    outer loop
      vertex -2.85613 5.93634 5.74698
      vertex -1.49533e-15 4.26293 6.73439
      vertex -2.9 5.92548 5.69943
    endloop
  endfacet
  facet normal 0.543391 0.556678 -0.62836
    outer loop
      vertex -2.9 6.57055 6.27091
      vertex -1.49533e-15 4.26293 6.73439
      vertex -2.85613 5.93634 5.74698
    endloop
  endfacet
  facet normal 0.543391 0.556678 -0.62836
    outer loop
      vertex -2.9 6.57055 6.27091
      vertex -2.85613 5.93634 5.74698
      vertex -2.9 6.03016 5.79216
    endloop
  endfacet
  facet normal 0.543391 0.784927 -0.297684
    outer loop
      vertex -2.9 5.85403 5.63613
      vertex -1.49533e-15 4.26293 6.73439
      vertex -1.1111e-15 3.60666 5.00395
    endloop
  endfacet
  facet normal 0.543391 0.784927 -0.297684
    outer loop
      vertex -1.1111e-15 3.60666 5.00395
      vertex -1.10447e-15 3.59535 4.97411
      vertex -2.9 5.85403 5.63613
    endloop
  endfacet
  facet normal 0.543391 0.784927 -0.297684
    outer loop
      vertex -2.9 5.85403 5.63613
      vertex -1.10447e-15 3.59535 4.97411
      vertex -2.9 5.51458 4.74107
    endloop
  endfacet
  facet normal 0.543391 0.833359 0.101188
    outer loop
      vertex -2.9 5.51458 4.74107
      vertex -1.10447e-15 3.59535 4.97411
      vertex -6.96531e-16 3.81842 3.1369
    endloop
  endfacet
  facet normal 0.543391 0.833359 0.101189
    outer loop
      vertex -6.96531e-16 3.81842 3.1369
      vertex -6.89497e-16 3.82227 3.10522
      vertex -2.9 5.51458 4.74107
    endloop
  endfacet
  facet normal 0.543391 0.833359 0.101189
    outer loop
      vertex -2.9 5.60647 3.98433
      vertex -6.89497e-16 3.82227 3.10522
      vertex -2.9 5.62997 3.79079
    endloop
  endfacet
  facet normal 0.543391 0.833359 0.101189
    outer loop
      vertex -2.82677 5.55014 4.05496
      vertex -6.89497e-16 3.82227 3.10522
      vertex -2.9 5.60647 3.98433
    endloop
  endfacet
  facet normal 0.543391 0.833359 0.101189
    outer loop
      vertex -2.9 5.51458 4.74107
      vertex -6.89497e-16 3.82227 3.10522
      vertex -2.82677 5.55014 4.05496
    endloop
  endfacet
  facet normal 0.543391 0.833359 0.101189
    outer loop
      vertex -2.9 5.51458 4.74107
      vertex -2.82677 5.55014 4.05496
      vertex -2.9 5.58131 4.19151
    endloop
  endfacet
  facet normal 0.543391 0.690878 0.476879
    outer loop
      vertex -2.9 5.62997 3.79079
      vertex -6.89497e-16 3.82227 3.10522
      vertex -3.51301e-16 4.87359 1.58212
    endloop
  endfacet
  facet normal 0.543391 0.690878 0.476879
    outer loop
      vertex -3.51301e-16 4.87359 1.58212
      vertex -3.4547e-16 4.89172 1.55586
      vertex -2.9 5.62997 3.79079
    endloop
  endfacet
  facet normal 0.543391 0.690878 0.476879
    outer loop
      vertex -2.9 5.62997 3.79079
      vertex -3.4547e-16 4.89172 1.55586
      vertex -2.9 6.17375 3.00298
    endloop
  endfacet
  facet normal 0.543391 0.390126 0.743323
    outer loop
      vertex -2.9 6.17375 3.00298
      vertex -3.4547e-16 4.89172 1.55586
      vertex -1.54497e-16 6.53044 0.695791
    endloop
  endfacet
  facet normal 0.543391 0.390126 0.743322
    outer loop
      vertex -2.9 6.17375 3.00298
      vertex -1.54497e-16 6.53044 0.695791
      vertex -1.51204e-16 6.55869 0.680962
    endloop
  endfacet
  facet normal 0.543391 0.390126 0.743322
    outer loop
      vertex -2.81206 6.63223 2.69806
      vertex -2.9 6.17375 3.00298
      vertex -1.51204e-16 6.55869 0.680962
    endloop
  endfacet
  facet normal 0.543391 0.390126 0.743322
    outer loop
      vertex -2.9 7.02137 2.55812
      vertex -2.9 6.75472 2.69806
      vertex -1.51204e-16 6.55869 0.680962
    endloop
  endfacet
  facet normal 0.543391 0.390126 0.743322
    outer loop
      vertex -2.9 6.75472 2.69806
      vertex -2.81206 6.63223 2.69806
      vertex -1.51204e-16 6.55869 0.680962
    endloop
  endfacet
  facet normal 0.543391 0.390126 0.743322
    outer loop
      vertex -2.9 6.54406 2.80863
      vertex -2.9 6.17375 3.00298
      vertex -2.81206 6.63223 2.69806
    endloop
  endfacet
  facet normal 0.543391 0 0.83948
    outer loop
      vertex -2.9 7.02137 2.55812
      vertex -1.51204e-16 6.55869 0.680962
      vertex -1.51204e-16 8.44131 0.680962
    endloop
  endfacet
  facet normal 0.543391 0 0.83948
    outer loop
      vertex -2.9 7.97863 2.55812
      vertex -2.9 7.02137 2.55812
      vertex -1.51204e-16 8.44131 0.680962
    endloop
  endfacet
  facet normal 0.543391 -0.390126 0.743323
    outer loop
      vertex -2.9 7.97863 2.55812
      vertex -1.51204e-16 8.44131 0.680962
      vertex -3.42177e-16 10.08 1.54103
    endloop
  endfacet
  facet normal 0.543391 -0.390126 0.743322
    outer loop
      vertex -2.9 8.82624 3.00298
      vertex -2.9 8.45594 2.80863
      vertex -2.81206 8.36777 2.69806
    endloop
  endfacet
  facet normal 0.543391 -0.390126 0.743322
    outer loop
      vertex -3.42177e-16 10.08 1.54103
      vertex -2.9 8.82624 3.00298
      vertex -2.81206 8.36777 2.69806
    endloop
  endfacet
  facet normal 0.543391 -0.390126 0.743322
    outer loop
      vertex -2.9 8.24528 2.69806
      vertex -2.9 7.97863 2.55812
      vertex -2.81206 8.36777 2.69806
    endloop
  endfacet
  facet normal 0.543391 -0.390126 0.743322
    outer loop
      vertex -2.9 7.97863 2.55812
      vertex -3.42177e-16 10.08 1.54103
      vertex -2.81206 8.36777 2.69806
    endloop
  endfacet
  facet normal 0.543391 -0.390126 0.743322
    outer loop
      vertex -3.42177e-16 10.08 1.54103
      vertex -3.4547e-16 10.1083 1.55586
      vertex -2.9 8.82624 3.00298
    endloop
  endfacet
  facet normal 0.543391 -0.690878 0.476879
    outer loop
      vertex -2.9 8.82624 3.00298
      vertex -3.4547e-16 10.1083 1.55586
      vertex -6.83666e-16 11.1596 3.07896
    endloop
  endfacet
  facet normal 0.543391 -0.690878 0.476879
    outer loop
      vertex -2.9 9.37003 3.79079
      vertex -2.9 8.82624 3.00298
      vertex -6.83666e-16 11.1596 3.07896
    endloop
  endfacet
  facet normal 0.543391 -0.690878 0.476879
    outer loop
      vertex -6.89497e-16 11.1777 3.10522
      vertex -2.9 9.37003 3.79079
      vertex -6.83666e-16 11.1596 3.07896
    endloop
  endfacet
  facet normal 0.543391 -0.833359 0.101188
    outer loop
      vertex -2.9 9.37003 3.79079
      vertex -6.89497e-16 11.1777 3.10522
      vertex -1.09744e-15 11.4008 4.94244
    endloop
  endfacet
  facet normal 0.543391 -0.833359 0.101189
    outer loop
      vertex -2.9 9.48542 4.74107
      vertex -2.9 9.41869 4.19151
      vertex -2.82677 9.44986 4.05496
    endloop
  endfacet
  facet normal 0.543391 -0.833359 0.101189
    outer loop
      vertex -1.09744e-15 11.4008 4.94244
      vertex -2.9 9.48542 4.74107
      vertex -2.82677 9.44986 4.05496
    endloop
  endfacet
  facet normal 0.543391 -0.833359 0.101189
    outer loop
      vertex -2.9 9.39353 3.98433
      vertex -2.9 9.37003 3.79079
      vertex -2.82677 9.44986 4.05496
    endloop
  endfacet
  facet normal 0.543391 -0.833359 0.101189
    outer loop
      vertex -2.9 9.37003 3.79079
      vertex -1.09744e-15 11.4008 4.94244
      vertex -2.82677 9.44986 4.05496
    endloop
  endfacet
  facet normal 0.543391 -0.833359 0.101189
    outer loop
      vertex -1.09744e-15 11.4008 4.94244
      vertex -1.10447e-15 11.4047 4.97411
      vertex -2.9 9.48542 4.74107
    endloop
  endfacet
  facet normal 0.543391 -0.784927 -0.297684
    outer loop
      vertex -2.9 9.48542 4.74107
      vertex -1.10447e-15 11.4047 4.97411
      vertex -1.48871e-15 10.7484 6.70455
    endloop
  endfacet
  facet normal 0.543391 -0.784927 -0.297684
    outer loop
      vertex -2.9 9.14597 5.63613
      vertex -2.9 9.48542 4.74107
      vertex -1.48871e-15 10.7484 6.70455
    endloop
  endfacet
  facet normal 0.543391 -0.784927 -0.297684
    outer loop
      vertex -1.49533e-15 10.7371 6.73439
      vertex -2.9 9.14597 5.63613
      vertex -1.48871e-15 10.7484 6.70455
    endloop
  endfacet
  facet normal 0.543391 -0.556678 -0.62836
    outer loop
      vertex -2.9 9.14597 5.63613
      vertex -1.49533e-15 10.7371 6.73439
      vertex -1.76784e-15 9.3518 7.96163
    endloop
  endfacet
  facet normal 0.543391 -0.556678 -0.62836
    outer loop
      vertex -2.9 8.96984 5.79216
      vertex -2.85613 9.06366 5.74698
      vertex -2.9 8.42945 6.27091
    endloop
  endfacet
  facet normal 0.543391 -0.556678 -0.62836
    outer loop
      vertex -2.9 9.14597 5.63613
      vertex -2.85613 9.06366 5.74698
      vertex -2.9 9.07452 5.69943
    endloop
  endfacet
  facet normal 0.543391 -0.556678 -0.62836
    outer loop
      vertex -1.76784e-15 9.3518 7.96163
      vertex -2.85613 9.06366 5.74698
      vertex -2.9 9.14597 5.63613
    endloop
  endfacet
  facet normal 0.543391 -0.556678 -0.62836
    outer loop
      vertex -2.9 8.42945 6.27091
      vertex -2.85613 9.06366 5.74698
      vertex -1.76784e-15 9.3518 7.96163
    endloop
  endfacet
  facet normal 0.543391 -0.556678 -0.62836
    outer loop
      vertex -2.9 8.42945 6.27091
      vertex -1.76784e-15 9.3518 7.96163
      vertex -1.77254e-15 9.32791 7.98279
    endloop
  endfacet
  facet normal 0.543391 -0.200901 -0.815086
    outer loop
      vertex -2.9 8.42945 6.27091
      vertex -1.77254e-15 9.32791 7.98279
      vertex -1.87088e-15 7.53098 8.4257
    endloop
  endfacet
  facet normal 0.543391 -0.200901 -0.815086
    outer loop
      vertex -2.9 23.4294 6.27091
      vertex -1.87088e-15 22.531 8.4257
      vertex -2.9 22.5 6.5
    endloop
  endfacet
  facet normal 0.543391 -0.200901 -0.815086
    outer loop
      vertex -2.9 22.5 6.5
      vertex -1.87088e-15 22.531 8.4257
      vertex -1.87258e-15 22.5 8.43333
    endloop
  endfacet
  facet normal 0.543391 0.200901 -0.815086
    outer loop
      vertex -2.9 22.5 6.5
      vertex -1.87258e-15 22.5 8.43333
      vertex -1.77423e-15 20.7031 7.99043
    endloop
  endfacet
  facet normal 0.543391 0.200901 -0.815086
    outer loop
      vertex -1.77423e-15 20.7031 7.99043
      vertex -1.77254e-15 20.6721 7.98279
      vertex -2.9 22.5 6.5
    endloop
  endfacet
  facet normal 0.543391 0.200901 -0.815086
    outer loop
      vertex -2.9 22.5 6.5
      vertex -1.77254e-15 20.6721 7.98279
      vertex -2.9 21.5706 6.27091
    endloop
  endfacet
  facet normal 0.543391 0.556678 -0.62836
    outer loop
      vertex -2.9 21.5706 6.27091
      vertex -1.77254e-15 20.6721 7.98279
      vertex -1.50003e-15 19.2868 6.75555
    endloop
  endfacet
  facet normal 0.543391 0.556678 -0.62836
    outer loop
      vertex -1.50003e-15 19.2868 6.75555
      vertex -1.49533e-15 19.2629 6.73439
      vertex -2.9 21.5706 6.27091
    endloop
  endfacet
  facet normal 0.543391 0.556678 -0.62836
    outer loop
      vertex -2.9 20.9255 5.69943
      vertex -1.49533e-15 19.2629 6.73439
      vertex -2.9 20.854 5.63613
    endloop
  endfacet
  facet normal 0.543391 0.556678 -0.62836
    outer loop
      vertex -2.85613 20.9363 5.74698
      vertex -1.49533e-15 19.2629 6.73439
      vertex -2.9 20.9255 5.69943
    endloop
  endfacet
  facet normal 0.543391 0.556678 -0.62836
    outer loop
      vertex -2.9 21.5706 6.27091
      vertex -1.49533e-15 19.2629 6.73439
      vertex -2.85613 20.9363 5.74698
    endloop
  endfacet
  facet normal 0.543391 0.556678 -0.62836
    outer loop
      vertex -2.9 21.5706 6.27091
      vertex -2.85613 20.9363 5.74698
      vertex -2.9 21.0302 5.79216
    endloop
  endfacet
  facet normal 0.543391 0.784927 -0.297684
    outer loop
      vertex -2.9 20.854 5.63613
      vertex -1.49533e-15 19.2629 6.73439
      vertex -1.1111e-15 18.6067 5.00395
    endloop
  endfacet
  facet normal 0.543391 0.784927 -0.297684
    outer loop
      vertex -1.1111e-15 18.6067 5.00395
      vertex -1.10447e-15 18.5953 4.97411
      vertex -2.9 20.854 5.63613
    endloop
  endfacet
  facet normal 0.543391 0.784927 -0.297684
    outer loop
      vertex -2.9 20.854 5.63613
      vertex -1.10447e-15 18.5953 4.97411
      vertex -2.9 20.5146 4.74107
    endloop
  endfacet
  facet normal 0.543391 0.833359 0.101188
    outer loop
      vertex -2.9 20.5146 4.74107
      vertex -1.10447e-15 18.5953 4.97411
      vertex -6.96531e-16 18.8184 3.1369
    endloop
  endfacet
  facet normal 0.543391 0.833359 0.101189
    outer loop
      vertex -6.96531e-16 18.8184 3.1369
      vertex -6.89497e-16 18.8223 3.10522
      vertex -2.9 20.5146 4.74107
    endloop
  endfacet
  facet normal 0.543391 0.833359 0.101189
    outer loop
      vertex -2.9 20.6065 3.98433
      vertex -6.89497e-16 18.8223 3.10522
      vertex -2.9 20.63 3.79079
    endloop
  endfacet
  facet normal 0.543391 0.833359 0.101189
    outer loop
      vertex -2.82677 20.5501 4.05496
      vertex -6.89497e-16 18.8223 3.10522
      vertex -2.9 20.6065 3.98433
    endloop
  endfacet
  facet normal 0.543391 0.833359 0.101189
    outer loop
      vertex -2.9 20.5146 4.74107
      vertex -6.89497e-16 18.8223 3.10522
      vertex -2.82677 20.5501 4.05496
    endloop
  endfacet
  facet normal 0.543391 0.833359 0.101189
    outer loop
      vertex -2.9 20.5146 4.74107
      vertex -2.82677 20.5501 4.05496
      vertex -2.9 20.5813 4.19151
    endloop
  endfacet
  facet normal 0.543391 0.690878 0.476879
    outer loop
      vertex -2.9 20.63 3.79079
      vertex -6.89497e-16 18.8223 3.10522
      vertex -3.51301e-16 19.8736 1.58212
    endloop
  endfacet
  facet normal 0.543391 0.690878 0.476879
    outer loop
      vertex -3.51301e-16 19.8736 1.58212
      vertex -3.4547e-16 19.8917 1.55586
      vertex -2.9 20.63 3.79079
    endloop
  endfacet
  facet normal 0.543391 0.690878 0.476879
    outer loop
      vertex -2.9 20.63 3.79079
      vertex -3.4547e-16 19.8917 1.55586
      vertex -2.9 21.1738 3.00298
    endloop
  endfacet
  facet normal 0.543391 0.390126 0.743323
    outer loop
      vertex -2.9 21.1738 3.00298
      vertex -3.4547e-16 19.8917 1.55586
      vertex -1.54497e-16 21.5304 0.695791
    endloop
  endfacet
  facet normal 0.543391 0.390126 0.743322
    outer loop
      vertex -2.9 21.1738 3.00298
      vertex -1.54497e-16 21.5304 0.695791
      vertex -1.51204e-16 21.5587 0.680962
    endloop
  endfacet
  facet normal 0.543391 0.390126 0.743322
    outer loop
      vertex -2.81206 21.6322 2.69806
      vertex -2.9 21.1738 3.00298
      vertex -1.51204e-16 21.5587 0.680962
    endloop
  endfacet
  facet normal 0.543391 0.390126 0.743322
    outer loop
      vertex -2.9 22.0214 2.55812
      vertex -2.9 21.7547 2.69806
      vertex -1.51204e-16 21.5587 0.680962
    endloop
  endfacet
  facet normal 0.543391 0.390126 0.743322
    outer loop
      vertex -2.9 21.7547 2.69806
      vertex -2.81206 21.6322 2.69806
      vertex -1.51204e-16 21.5587 0.680962
    endloop
  endfacet
  facet normal 0.543391 0.390126 0.743322
    outer loop
      vertex -2.9 21.5441 2.80863
      vertex -2.9 21.1738 3.00298
      vertex -2.81206 21.6322 2.69806
    endloop
  endfacet
  facet normal 0.543391 0 0.83948
    outer loop
      vertex -2.9 22.0214 2.55812
      vertex -1.51204e-16 21.5587 0.680962
      vertex -1.51204e-16 23.4413 0.680962
    endloop
  endfacet
  facet normal 0.543391 0 0.83948
    outer loop
      vertex -2.9 22.9786 2.55812
      vertex -2.9 22.0214 2.55812
      vertex -1.51204e-16 23.4413 0.680962
    endloop
  endfacet
  facet normal 0.543391 -0.390126 0.743323
    outer loop
      vertex -2.9 22.9786 2.55812
      vertex -1.51204e-16 23.4413 0.680962
      vertex -3.42177e-16 25.08 1.54103
    endloop
  endfacet
  facet normal 0.543391 -0.390126 0.743322
    outer loop
      vertex -2.9 23.8262 3.00298
      vertex -2.9 23.4559 2.80863
      vertex -2.81206 23.3678 2.69806
    endloop
  endfacet
  facet normal 0.543391 -0.390126 0.743322
    outer loop
      vertex -3.42177e-16 25.08 1.54103
      vertex -2.9 23.8262 3.00298
      vertex -2.81206 23.3678 2.69806
    endloop
  endfacet
  facet normal 0.543391 -0.390126 0.743322
    outer loop
      vertex -2.9 23.2453 2.69806
      vertex -2.9 22.9786 2.55812
      vertex -2.81206 23.3678 2.69806
    endloop
  endfacet
  facet normal 0.543391 -0.390126 0.743322
    outer loop
      vertex -2.9 22.9786 2.55812
      vertex -3.42177e-16 25.08 1.54103
      vertex -2.81206 23.3678 2.69806
    endloop
  endfacet
  facet normal 0.543391 -0.390126 0.743322
    outer loop
      vertex -3.42177e-16 25.08 1.54103
      vertex -3.4547e-16 25.1083 1.55586
      vertex -2.9 23.8262 3.00298
    endloop
  endfacet
  facet normal 0.543391 -0.690878 0.476879
    outer loop
      vertex -2.9 23.8262 3.00298
      vertex -3.4547e-16 25.1083 1.55586
      vertex -6.83666e-16 26.1596 3.07896
    endloop
  endfacet
  facet normal 0.543391 -0.690878 0.476879
    outer loop
      vertex -2.9 24.37 3.79079
      vertex -2.9 23.8262 3.00298
      vertex -6.83666e-16 26.1596 3.07896
    endloop
  endfacet
  facet normal 0.543391 -0.690878 0.476879
    outer loop
      vertex -6.89497e-16 26.1777 3.10522
      vertex -2.9 24.37 3.79079
      vertex -6.83666e-16 26.1596 3.07896
    endloop
  endfacet
  facet normal 0.543391 -0.833359 0.101188
    outer loop
      vertex -2.9 24.37 3.79079
      vertex -6.89497e-16 26.1777 3.10522
      vertex -1.09744e-15 26.4008 4.94244
    endloop
  endfacet
  facet normal 0.543391 -0.833359 0.101189
    outer loop
      vertex -2.9 24.4854 4.74107
      vertex -2.9 24.4187 4.19151
      vertex -2.82677 24.4499 4.05496
    endloop
  endfacet
  facet normal 0.543391 -0.833359 0.101189
    outer loop
      vertex -1.09744e-15 26.4008 4.94244
      vertex -2.9 24.4854 4.74107
      vertex -2.82677 24.4499 4.05496
    endloop
  endfacet
  facet normal 0.543391 -0.833359 0.101189
    outer loop
      vertex -2.9 24.3935 3.98433
      vertex -2.9 24.37 3.79079
      vertex -2.82677 24.4499 4.05496
    endloop
  endfacet
  facet normal 0.543391 -0.833359 0.101189
    outer loop
      vertex -2.9 24.37 3.79079
      vertex -1.09744e-15 26.4008 4.94244
      vertex -2.82677 24.4499 4.05496
    endloop
  endfacet
  facet normal 0.543391 -0.833359 0.101189
    outer loop
      vertex -1.09744e-15 26.4008 4.94244
      vertex -1.10447e-15 26.4047 4.97411
      vertex -2.9 24.4854 4.74107
    endloop
  endfacet
  facet normal 0.543391 -0.784927 -0.297684
    outer loop
      vertex -2.9 24.4854 4.74107
      vertex -1.10447e-15 26.4047 4.97411
      vertex -1.48871e-15 25.7484 6.70455
    endloop
  endfacet
  facet normal 0.543391 -0.784927 -0.297684
    outer loop
      vertex -2.9 24.146 5.63613
      vertex -2.9 24.4854 4.74107
      vertex -1.48871e-15 25.7484 6.70455
    endloop
  endfacet
  facet normal 0.543391 -0.784927 -0.297684
    outer loop
      vertex -1.49533e-15 25.7371 6.73439
      vertex -2.9 24.146 5.63613
      vertex -1.48871e-15 25.7484 6.70455
    endloop
  endfacet
  facet normal 0.543391 -0.556678 -0.62836
    outer loop
      vertex -2.9 24.146 5.63613
      vertex -1.49533e-15 25.7371 6.73439
      vertex -1.76784e-15 24.3518 7.96163
    endloop
  endfacet
  facet normal 0.543391 -0.556678 -0.62836
    outer loop
      vertex -2.9 23.9698 5.79216
      vertex -2.85613 24.0637 5.74698
      vertex -2.9 23.4294 6.27091
    endloop
  endfacet
  facet normal 0.543391 -0.556678 -0.62836
    outer loop
      vertex -2.9 24.146 5.63613
      vertex -2.85613 24.0637 5.74698
      vertex -2.9 24.0745 5.69943
    endloop
  endfacet
  facet normal 0.543391 -0.556678 -0.62836
    outer loop
      vertex -1.76784e-15 24.3518 7.96163
      vertex -2.85613 24.0637 5.74698
      vertex -2.9 24.146 5.63613
    endloop
  endfacet
  facet normal 0.543391 -0.556678 -0.62836
    outer loop
      vertex -2.9 23.4294 6.27091
      vertex -2.85613 24.0637 5.74698
      vertex -1.76784e-15 24.3518 7.96163
    endloop
  endfacet
  facet normal 0.543391 -0.556678 -0.62836
    outer loop
      vertex -2.9 23.4294 6.27091
      vertex -1.76784e-15 24.3518 7.96163
      vertex -1.77254e-15 24.3279 7.98279
    endloop
  endfacet
  facet normal 0.543391 -0.200901 -0.815086
    outer loop
      vertex -2.9 23.4294 6.27091
      vertex -1.77254e-15 24.3279 7.98279
      vertex -1.87088e-15 22.531 8.4257
    endloop
  endfacet
  facet normal -0.5 3.06152e-17 0.866025
    outer loop
      vertex -1.71429 15 9
      vertex -1.68098 15 9.01923
      vertex -1.68098 30 9.01923
    endloop
  endfacet
  facet normal -0.5 3.06152e-17 0.866025
    outer loop
      vertex -1.71429 30 9
      vertex -1.71429 15 9
      vertex -1.68098 30 9.01923
    endloop
  endfacet
  facet normal -0.5 3.06152e-17 -0.866025
    outer loop
      vertex -1.71429 30 9
      vertex -1.68098 30 8.98077
      vertex -1.71429 15 9
    endloop
  endfacet
  facet normal -0.5 3.06152e-17 -0.866025
    outer loop
      vertex -1.71429 15 9
      vertex -1.68098 30 8.98077
      vertex -1.68098 15 8.98077
    endloop
  endfacet
  facet normal -0.866025 5.3027e-17 0.5
    outer loop
      vertex -1.68098 15 8.98077
      vertex -1.68098 30 8.98077
      vertex -3.82383 15 5.26923
    endloop
  endfacet
  facet normal -0.866025 5.3027e-17 0.5
    outer loop
      vertex -3.82383 24.1727 5.26923
      vertex -1.68098 30 8.98077
      vertex -3.82383 30 5.26923
    endloop
  endfacet
  facet normal -0.866025 5.3027e-17 0.5
    outer loop
      vertex -3.548 24.0637 5.74698
      vertex -1.68098 30 8.98077
      vertex -3.82383 24.1727 5.26923
    endloop
  endfacet
  facet normal -0.866025 5.3027e-17 0.5
    outer loop
      vertex -3.11325 22.5 6.5
      vertex -1.68098 30 8.98077
      vertex -3.548 24.0637 5.74698
    endloop
  endfacet
  facet normal -0.866025 5.3027e-17 0.5
    outer loop
      vertex -3.82383 15 5.26923
      vertex -1.68098 30 8.98077
      vertex -3.11325 22.5 6.5
    endloop
  endfacet
  facet normal -0.866025 5.3027e-17 0.5
    outer loop
      vertex -3.82383 15 5.26923
      vertex -3.11325 22.5 6.5
      vertex -3.548 20.9363 5.74698
    endloop
  endfacet
  facet normal -0.866025 5.3027e-17 0.5
    outer loop
      vertex -3.82383 20.8273 5.26923
      vertex -3.82383 15 5.26923
      vertex -3.548 20.9363 5.74698
    endloop
  endfacet
  facet normal 0.5 -3.06152e-17 0.866025
    outer loop
      vertex -3.85714 24.1683 5.28846
      vertex -3.82383 24.1727 5.26923
      vertex -3.82383 30 5.26923
    endloop
  endfacet
  facet normal 0.5 -3.06152e-17 0.866025
    outer loop
      vertex -3.85714 30 5.28846
      vertex -3.85714 24.1683 5.28846
      vertex -3.82383 30 5.26923
    endloop
  endfacet
  facet normal -1 6.12303e-17 -2.23113e-17
    outer loop
      vertex -3.85714 30 5.28846
      vertex -3.85714 30 5.25
      vertex -3.85714 24.1683 5.28846
    endloop
  endfacet
  facet normal -1 6.12303e-17 -2.23113e-17
    outer loop
      vertex -3.85714 24.1683 5.28846
      vertex -3.85714 30 5.25
      vertex -3.85714 24.1771 5.25
    endloop
  endfacet
  facet normal -2.23113e-17 -1.22297e-32 1
    outer loop
      vertex -8.14286 24.1771 5.25
      vertex -3.85714 24.1771 5.25
      vertex -3.85714 30 5.25
    endloop
  endfacet
  facet normal -2.23113e-17 -1.22297e-32 1
    outer loop
      vertex -8.14286 30 5.25
      vertex -8.14286 24.1771 5.25
      vertex -6 30 5.25
    endloop
  endfacet
  facet normal -2.23113e-17 -1.22297e-32 1
    outer loop
      vertex -6 30 5.25
      vertex -8.14286 24.1771 5.25
      vertex -3.85714 30 5.25
    endloop
  endfacet
  facet normal 6.12303e-17 1 1.35959e-32
    outer loop
      vertex -11.8164 30 10.4729
      vertex -11.023 30 12.2817
      vertex -11.9795 30 8.50452
    endloop
  endfacet
  facet normal 6.12303e-17 1 1.35959e-32
    outer loop
      vertex -11.9795 30 8.50452
      vertex -11.023 30 12.2817
      vertex -9.68528 30 13.7348
    endloop
  endfacet
  facet normal 6.12303e-17 1 1.35959e-32
    outer loop
      vertex -11.9795 30 8.50452
      vertex -9.68528 30 13.7348
      vertex -7.9482 30 14.6749
    endloop
  endfacet
  facet normal 6.12303e-17 1 1.35959e-32
    outer loop
      vertex -8.14286 30 12.75
      vertex -7.9482 30 14.6749
      vertex -6 30 15
    endloop
  endfacet
  facet normal 6.12303e-17 1 1.35959e-32
    outer loop
      vertex -3.82383 30 12.7308
      vertex -2.31472 30 13.7348
      vertex -0.977001 30 12.2817
    endloop
  endfacet
  facet normal 6.12303e-17 1 1.35959e-32
    outer loop
      vertex -1.68098 30 9.01923
      vertex -0.183598 30 10.4729
      vertex -0.0615492 30 9
    endloop
  endfacet
  facet normal 6.12303e-17 1 1.35959e-32
    outer loop
      vertex -1.71429 30 9
      vertex -1.68098 30 9.01923
      vertex -0.0615492 30 9
    endloop
  endfacet
  facet normal 6.12303e-17 1 1.35959e-32
    outer loop
      vertex -3.85714 30 12.75
      vertex -2.31472 30 13.7348
      vertex -3.82383 30 12.7308
    endloop
  endfacet
  facet normal 6.12303e-17 1 1.35959e-32
    outer loop
      vertex -3.85714 30 12.75
      vertex -3.82383 30 12.7308
      vertex -3.85714 30 12.7115
    endloop
  endfacet
  facet normal 6.12303e-17 1 1.35959e-32
    outer loop
      vertex -8.14286 30 12.75
      vertex -4.0518 30 14.6749
      vertex -2.31472 30 13.7348
    endloop
  endfacet
  facet normal 6.12303e-17 1 1.35959e-32
    outer loop
      vertex -8.14286 30 12.75
      vertex -6 30 15
      vertex -4.0518 30 14.6749
    endloop
  endfacet
  facet normal 6.12303e-17 1 1.35959e-32
    outer loop
      vertex -8.17617 30 12.7308
      vertex -7.9482 30 14.6749
      vertex -8.14286 30 12.75
    endloop
  endfacet
  facet normal 6.12303e-17 1 1.35959e-32
    outer loop
      vertex -8.17617 30 12.7308
      vertex -8.14286 30 12.75
      vertex -8.14286 30 12.7115
    endloop
  endfacet
  facet normal 6.12303e-17 1 1.35959e-32
    outer loop
      vertex -11.9795 30 8.50452
      vertex -7.9482 30 14.6749
      vertex -8.17617 30 12.7308
    endloop
  endfacet
  facet normal 6.12303e-17 1 1.35959e-32
    outer loop
      vertex -10.319 30 9.01923
      vertex -11.9795 30 8.50452
      vertex -8.17617 30 12.7308
    endloop
  endfacet
  facet normal 6.12303e-17 1 1.35959e-32
    outer loop
      vertex -8.14286 30 12.75
      vertex -2.31472 30 13.7348
      vertex -3.85714 30 12.75
    endloop
  endfacet
  facet normal 6.12303e-17 1 1.35959e-32
    outer loop
      vertex -11.9795 30 8.50452
      vertex -10.319 30 9.01923
      vertex -10.2857 30 9
    endloop
  endfacet
  facet normal 6.12303e-17 1 1.35959e-32
    outer loop
      vertex -11.9795 30 8.50452
      vertex -10.2857 30 9
      vertex -10.319 30 8.98077
    endloop
  endfacet
  facet normal 6.12303e-17 1 1.35959e-32
    outer loop
      vertex -8.14286 30 5.25
      vertex -8.17617 30 5.26923
      vertex -8.14286 30 5.28846
    endloop
  endfacet
  facet normal 6.12303e-17 1 1.35959e-32
    outer loop
      vertex -8.17617 30 5.26923
      vertex -6 30 3.08183
      vertex -11.9795 30 8.50452
    endloop
  endfacet
  facet normal 6.12303e-17 1 1.35959e-32
    outer loop
      vertex -8.14286 30 5.25
      vertex -6 30 5.25
      vertex -6 30 3.08183
    endloop
  endfacet
  facet normal 6.12303e-17 1 1.35959e-32
    outer loop
      vertex -8.14286 30 5.25
      vertex -6 30 3.08183
      vertex -8.17617 30 5.26923
    endloop
  endfacet
  facet normal 6.12303e-17 1 1.35959e-32
    outer loop
      vertex -11.9795 30 8.50452
      vertex -6 30 3.08183
      vertex -6.98757 30 3.08183
    endloop
  endfacet
  facet normal 6.12303e-17 1 1.35959e-32
    outer loop
      vertex -11.9795 30 8.50452
      vertex -6.98757 30 3.08183
      vertex -8.85568 30 3.72316
    endloop
  endfacet
  facet normal 6.12303e-17 1 1.35959e-32
    outer loop
      vertex -11.9795 30 8.50452
      vertex -8.85568 30 3.72316
      vertex -10.4143 30 4.93631
    endloop
  endfacet
  facet normal 6.12303e-17 1 1.35959e-32
    outer loop
      vertex -11.9795 30 8.50452
      vertex -10.4143 30 4.93631
      vertex -11.4946 30 6.58983
    endloop
  endfacet
  facet normal 6.12303e-17 1 1.35959e-32
    outer loop
      vertex -3.82383 30 12.7308
      vertex -0.977001 30 12.2817
      vertex -0.183598 30 10.4729
    endloop
  endfacet
  facet normal 6.12303e-17 1 1.35959e-32
    outer loop
      vertex -3.82383 30 12.7308
      vertex -0.183598 30 10.4729
      vertex -1.68098 30 9.01923
    endloop
  endfacet
  facet normal 6.12303e-17 1 1.35959e-32
    outer loop
      vertex -8.17617 30 5.26923
      vertex -11.9795 30 8.50452
      vertex -10.319 30 8.98077
    endloop
  endfacet
  facet normal -0.996585 6.10212e-17 0.0825792
    outer loop
      vertex -11.9385 30 9
      vertex -11.9385 3.63613e-16 9
      vertex -11.8164 3.5614e-16 10.4729
    endloop
  endfacet
  facet normal -0.996585 6.10212e-17 0.0825792
    outer loop
      vertex -11.9385 30 9
      vertex -11.8164 3.5614e-16 10.4729
      vertex -11.8164 30 10.4729
    endloop
  endfacet
  facet normal -0.996585 6.10212e-17 0.0825792
    outer loop
      vertex -11.9385 30 9
      vertex -11.8164 30 10.4729
      vertex -11.9795 30 8.50452
    endloop
  endfacet
  facet normal 1 0 2.22045e-16
    outer loop
      vertex -2.9 7.5 6.5
      vertex -2.9 6.57055 6.27091
      vertex -2.9 6.03016 5.79216
    endloop
  endfacet
  facet normal 1 0 2.22045e-16
    outer loop
      vertex -2.9 7.5 6.5
      vertex -2.9 8.96984 5.79216
      vertex -2.9 8.42945 6.27091
    endloop
  endfacet
  facet normal 1 0 2.22045e-16
    outer loop
      vertex -2.9 9.07452 5.69943
      vertex -2.9 9.41869 4.19151
      vertex -2.9 9.48542 4.74107
    endloop
  endfacet
  facet normal 1 0 2.22045e-16
    outer loop
      vertex -2.9 9.14597 5.63613
      vertex -2.9 9.07452 5.69943
      vertex -2.9 9.48542 4.74107
    endloop
  endfacet
  facet normal 1 0 2.22045e-16
    outer loop
      vertex -2.9 9.39353 3.98433
      vertex -2.9 8.45594 2.80863
      vertex -2.9 8.82624 3.00298
    endloop
  endfacet
  facet normal 1 0 2.22045e-16
    outer loop
      vertex -2.9 9.37003 3.79079
      vertex -2.9 9.39353 3.98433
      vertex -2.9 8.82624 3.00298
    endloop
  endfacet
  facet normal 1 0 2.22045e-16
    outer loop
      vertex -2.9 6.75472 2.69806
      vertex -2.9 7.02137 2.55812
      vertex -2.9 7.97863 2.55812
    endloop
  endfacet
  facet normal 1 0 2.22045e-16
    outer loop
      vertex -2.9 8.24528 2.69806
      vertex -2.9 6.75472 2.69806
      vertex -2.9 7.97863 2.55812
    endloop
  endfacet
  facet normal 1 0 2.22045e-16
    outer loop
      vertex -2.9 5.60647 3.98433
      vertex -2.9 5.62997 3.79079
      vertex -2.9 6.17375 3.00298
    endloop
  endfacet
  facet normal 1 0 2.22045e-16
    outer loop
      vertex -2.9 6.54406 2.80863
      vertex -2.9 5.60647 3.98433
      vertex -2.9 6.17375 3.00298
    endloop
  endfacet
  facet normal 1 0 2.22045e-16
    outer loop
      vertex -2.9 5.92548 5.69943
      vertex -2.9 5.85403 5.63613
      vertex -2.9 5.51458 4.74107
    endloop
  endfacet
  facet normal 1 0 2.22045e-16
    outer loop
      vertex -2.9 5.58131 4.19151
      vertex -2.9 5.92548 5.69943
      vertex -2.9 5.51458 4.74107
    endloop
  endfacet
  facet normal 0.866025 -5.3027e-17 0.5
    outer loop
      vertex -10.319 15 8.98077
      vertex -8.17617 15 5.26923
      vertex -8.17617 20.8273 5.26923
    endloop
  endfacet
  facet normal 0.866025 -5.3027e-17 0.5
    outer loop
      vertex -8.88675 22.5 6.5
      vertex -10.319 15 8.98077
      vertex -8.452 20.9363 5.74698
    endloop
  endfacet
  facet normal 0.866025 -5.3027e-17 0.5
    outer loop
      vertex -8.452 20.9363 5.74698
      vertex -10.319 15 8.98077
      vertex -8.17617 20.8273 5.26923
    endloop
  endfacet
  facet normal 0.866025 -5.3027e-17 0.5
    outer loop
      vertex -8.17617 30 5.26923
      vertex -10.319 15 8.98077
      vertex -8.88675 22.5 6.5
    endloop
  endfacet
  facet normal 0.866025 -5.3027e-17 0.5
    outer loop
      vertex -8.17617 30 5.26923
      vertex -8.88675 22.5 6.5
      vertex -8.452 24.0637 5.74698
    endloop
  endfacet
  facet normal 0.866025 -5.3027e-17 0.5
    outer loop
      vertex -8.17617 30 5.26923
      vertex -8.452 24.0637 5.74698
      vertex -8.17617 24.1727 5.26923
    endloop
  endfacet
  facet normal 0.866025 -5.3027e-17 0.5
    outer loop
      vertex -10.319 30 8.98077
      vertex -10.319 15 8.98077
      vertex -8.17617 30 5.26923
    endloop
  endfacet
  facet normal -0.5 3.06152e-17 0.866025
    outer loop
      vertex -8.17617 24.1727 5.26923
      vertex -8.14286 24.1683 5.28846
      vertex -8.14286 30 5.28846
    endloop
  endfacet
  facet normal -0.5 3.06152e-17 0.866025
    outer loop
      vertex -8.17617 30 5.26923
      vertex -8.17617 24.1727 5.26923
      vertex -8.14286 30 5.28846
    endloop
  endfacet
  facet normal 1 -6.12303e-17 2.23113e-17
    outer loop
      vertex -8.14286 24.1683 5.28846
      vertex -8.14286 24.1771 5.25
      vertex -8.14286 30 5.25
    endloop
  endfacet
  facet normal 1 -6.12303e-17 2.23113e-17
    outer loop
      vertex -8.14286 30 5.28846
      vertex -8.14286 24.1683 5.28846
      vertex -8.14286 30 5.25
    endloop
  endfacet
  facet normal 2.00055e-16 -0.433884 -0.900969
    outer loop
      vertex -2.85613 24.0637 5.74698
      vertex -2.9 23.9698 5.79216
      vertex -3.548 24.0637 5.74698
    endloop
  endfacet
  facet normal 2.00055e-16 -0.433884 -0.900969
    outer loop
      vertex -3.548 24.0637 5.74698
      vertex -2.9 23.9698 5.79216
      vertex -2.9 22.5 6.5
    endloop
  endfacet
  facet normal 2.00055e-16 -0.433884 -0.900969
    outer loop
      vertex -3.548 24.0637 5.74698
      vertex -2.9 22.5 6.5
      vertex -3.11325 22.5 6.5
    endloop
  endfacet
  facet normal 1 0 2.22045e-16
    outer loop
      vertex -2.9 24.0745 5.69943
      vertex -2.9 24.4187 4.19151
      vertex -2.9 24.4854 4.74107
    endloop
  endfacet
  facet normal 1 0 2.22045e-16
    outer loop
      vertex -2.9 24.146 5.63613
      vertex -2.9 24.0745 5.69943
      vertex -2.9 24.4854 4.74107
    endloop
  endfacet
  facet normal 1 0 2.22045e-16
    outer loop
      vertex -2.9 24.3935 3.98433
      vertex -2.9 23.4559 2.80863
      vertex -2.9 23.8262 3.00298
    endloop
  endfacet
  facet normal 1 0 2.22045e-16
    outer loop
      vertex -2.9 24.37 3.79079
      vertex -2.9 24.3935 3.98433
      vertex -2.9 23.8262 3.00298
    endloop
  endfacet
  facet normal 1 0 2.22045e-16
    outer loop
      vertex -2.9 21.7547 2.69806
      vertex -2.9 22.0214 2.55812
      vertex -2.9 22.9786 2.55812
    endloop
  endfacet
  facet normal 1 0 2.22045e-16
    outer loop
      vertex -2.9 23.2453 2.69806
      vertex -2.9 21.7547 2.69806
      vertex -2.9 22.9786 2.55812
    endloop
  endfacet
  facet normal 1 0 2.22045e-16
    outer loop
      vertex -2.9 20.6065 3.98433
      vertex -2.9 20.63 3.79079
      vertex -2.9 21.1738 3.00298
    endloop
  endfacet
  facet normal 1 0 2.22045e-16
    outer loop
      vertex -2.9 21.5441 2.80863
      vertex -2.9 20.6065 3.98433
      vertex -2.9 21.1738 3.00298
    endloop
  endfacet
  facet normal 1 0 2.22045e-16
    outer loop
      vertex -2.9 20.9255 5.69943
      vertex -2.9 20.854 5.63613
      vertex -2.9 20.5146 4.74107
    endloop
  endfacet
  facet normal 1 0 2.22045e-16
    outer loop
      vertex -2.9 20.5813 4.19151
      vertex -2.9 20.9255 5.69943
      vertex -2.9 20.5146 4.74107
    endloop
  endfacet
  facet normal 2.00055e-16 0.433884 -0.900969
    outer loop
      vertex -3.11325 22.5 6.5
      vertex -2.9 22.5 6.5
      vertex -3.548 20.9363 5.74698
    endloop
  endfacet
  facet normal 2.00055e-16 0.433884 -0.900969
    outer loop
      vertex -3.548 20.9363 5.74698
      vertex -2.9 22.5 6.5
      vertex -2.9 21.0302 5.79216
    endloop
  endfacet
  facet normal 2.00055e-16 0.433884 -0.900969
    outer loop
      vertex -3.548 20.9363 5.74698
      vertex -2.9 21.0302 5.79216
      vertex -2.85613 20.9363 5.74698
    endloop
  endfacet
  facet normal 0.5 -3.06152e-17 0.866025
    outer loop
      vertex -3.85714 15 5.28846
      vertex -3.82383 15 5.26923
      vertex -3.82383 20.8273 5.26923
    endloop
  endfacet
  facet normal 0.5 -3.06152e-17 0.866025
    outer loop
      vertex -3.85714 20.8317 5.28846
      vertex -3.85714 15 5.28846
      vertex -3.82383 20.8273 5.26923
    endloop
  endfacet
  facet normal -1 6.12303e-17 -2.23113e-17
    outer loop
      vertex -3.85714 20.8317 5.28846
      vertex -3.85714 20.8229 5.25
      vertex -3.85714 15 5.28846
    endloop
  endfacet
  facet normal -1 6.12303e-17 -2.23113e-17
    outer loop
      vertex -3.85714 15 5.28846
      vertex -3.85714 20.8229 5.25
      vertex -3.85714 15 5.25
    endloop
  endfacet
  facet normal -2.23113e-17 -1.22297e-32 1
    outer loop
      vertex -8.14286 15 5.25
      vertex -3.85714 15 5.25
      vertex -3.85714 20.8229 5.25
    endloop
  endfacet
  facet normal -2.23113e-17 -1.22297e-32 1
    outer loop
      vertex -8.14286 20.8229 5.25
      vertex -8.14286 15 5.25
      vertex -3.85714 20.8229 5.25
    endloop
  endfacet
  facet normal 1 -6.12303e-17 2.23113e-17
    outer loop
      vertex -8.14286 15 5.28846
      vertex -8.14286 15 5.25
      vertex -8.14286 20.8229 5.25
    endloop
  endfacet
  facet normal 1 -6.12303e-17 2.23113e-17
    outer loop
      vertex -8.14286 20.8317 5.28846
      vertex -8.14286 15 5.28846
      vertex -8.14286 20.8229 5.25
    endloop
  endfacet
  facet normal -0.5 3.06152e-17 0.866025
    outer loop
      vertex -8.17617 15 5.26923
      vertex -8.14286 15 5.28846
      vertex -8.14286 20.8317 5.28846
    endloop
  endfacet
  facet normal -0.5 3.06152e-17 0.866025
    outer loop
      vertex -8.17617 20.8273 5.26923
      vertex -8.17617 15 5.26923
      vertex -8.14286 20.8317 5.28846
    endloop
  endfacet
  facet normal 0.433884 -9.63415e-17 -0.900969
    outer loop
      vertex -7.56366 15 10.247
      vertex -6 15 11
      vertex -7.56366 9.57436e-17 10.247
    endloop
  endfacet
  facet normal 0.433884 -9.63415e-17 -0.900969
    outer loop
      vertex -7.56366 9.57436e-17 10.247
      vertex -6 15 11
      vertex -6 -1.35959e-32 11
    endloop
  endfacet
  facet normal 6.12303e-17 1 1.35959e-32
    outer loop
      vertex -8.17617 15 12.7308
      vertex -8.14286 15 12.7115
      vertex -10.319 15 9.01923
    endloop
  endfacet
  facet normal 6.12303e-17 1 1.35959e-32
    outer loop
      vertex -3.85714 15 12.75
      vertex -8.14286 15 12.7115
      vertex -8.14286 15 12.75
    endloop
  endfacet
  facet normal 6.12303e-17 1 1.35959e-32
    outer loop
      vertex -10.319 15 9.01923
      vertex -8.14286 15 12.7115
      vertex -3.85714 15 12.75
    endloop
  endfacet
  facet normal 6.12303e-17 1 1.35959e-32
    outer loop
      vertex -10.319 15 9.01923
      vertex -3.85714 15 12.75
      vertex -3.85714 15 12.7115
    endloop
  endfacet
  facet normal 6.12303e-17 1 1.35959e-32
    outer loop
      vertex -3.85714 15 12.7115
      vertex -3.82383 15 12.7308
      vertex -1.68098 15 9.01923
    endloop
  endfacet
  facet normal 6.12303e-17 1 1.35959e-32
    outer loop
      vertex -4.43634 15 10.247
      vertex -1.68098 15 8.98077
      vertex -4.05014 15 8.55496
    endloop
  endfacet
  facet normal 6.12303e-17 1 1.35959e-32
    outer loop
      vertex -3.85714 15 5.28846
      vertex -1.68098 15 8.98077
      vertex -3.82383 15 5.26923
    endloop
  endfacet
  facet normal 6.12303e-17 1 1.35959e-32
    outer loop
      vertex -7.94986 15 8.55496
      vertex -10.2857 15 9
      vertex -10.319 15 9.01923
    endloop
  endfacet
  facet normal 6.12303e-17 1 1.35959e-32
    outer loop
      vertex -8.14286 15 5.28846
      vertex -3.85714 15 5.25
      vertex -8.14286 15 5.25
    endloop
  endfacet
  facet normal 6.12303e-17 1 1.35959e-32
    outer loop
      vertex -7.94986 15 8.55496
      vertex -10.319 15 9.01923
      vertex -7.56366 15 10.247
    endloop
  endfacet
  facet normal 6.12303e-17 1 1.35959e-32
    outer loop
      vertex -10.2857 15 9
      vertex -8.14286 15 5.28846
      vertex -8.17617 15 5.26923
    endloop
  endfacet
  facet normal 6.12303e-17 1 1.35959e-32
    outer loop
      vertex -10.2857 15 9
      vertex -3.85714 15 5.25
      vertex -8.14286 15 5.28846
    endloop
  endfacet
  facet normal 6.12303e-17 1 1.35959e-32
    outer loop
      vertex -3.85714 15 5.28846
      vertex -3.85714 15 5.25
      vertex -10.2857 15 9
    endloop
  endfacet
  facet normal 6.12303e-17 1 1.35959e-32
    outer loop
      vertex -5.13223 15 7.19806
      vertex -3.85714 15 5.28846
      vertex -6.86777 15 7.19806
    endloop
  endfacet
  facet normal 6.12303e-17 1 1.35959e-32
    outer loop
      vertex -6.86777 15 7.19806
      vertex -10.2857 15 9
      vertex -7.94986 15 8.55496
    endloop
  endfacet
  facet normal 6.12303e-17 1 1.35959e-32
    outer loop
      vertex -3.85714 15 5.28846
      vertex -10.2857 15 9
      vertex -6.86777 15 7.19806
    endloop
  endfacet
  facet normal 6.12303e-17 1 1.35959e-32
    outer loop
      vertex -4.43634 15 10.247
      vertex -1.71429 15 9
      vertex -1.68098 15 8.98077
    endloop
  endfacet
  facet normal 6.12303e-17 1 1.35959e-32
    outer loop
      vertex -4.43634 15 10.247
      vertex -1.68098 15 9.01923
      vertex -1.71429 15 9
    endloop
  endfacet
  facet normal 6.12303e-17 1 1.35959e-32
    outer loop
      vertex -3.85714 15 5.28846
      vertex -5.13223 15 7.19806
      vertex -1.68098 15 8.98077
    endloop
  endfacet
  facet normal 6.12303e-17 1 1.35959e-32
    outer loop
      vertex -5.13223 15 7.19806
      vertex -4.05014 15 8.55496
      vertex -1.68098 15 8.98077
    endloop
  endfacet
  facet normal 6.12303e-17 1 1.35959e-32
    outer loop
      vertex -3.85714 15 12.7115
      vertex -1.68098 15 9.01923
      vertex -4.43634 15 10.247
    endloop
  endfacet
  facet normal 6.12303e-17 1 1.35959e-32
    outer loop
      vertex -3.85714 15 12.7115
      vertex -4.43634 15 10.247
      vertex -6 15 11
    endloop
  endfacet
  facet normal 6.12303e-17 1 1.35959e-32
    outer loop
      vertex -3.85714 15 12.7115
      vertex -6 15 11
      vertex -10.319 15 9.01923
    endloop
  endfacet
  facet normal 6.12303e-17 1 1.35959e-32
    outer loop
      vertex -6 15 11
      vertex -7.56366 15 10.247
      vertex -10.319 15 9.01923
    endloop
  endfacet
  facet normal 6.12303e-17 1 1.35959e-32
    outer loop
      vertex -10.2857 15 9
      vertex -8.17617 15 5.26923
      vertex -10.319 15 8.98077
    endloop
  endfacet
  facet normal -0.781831 1.73601e-16 0.62349
    outer loop
      vertex -4.05014 -1.1939e-16 8.55496
      vertex -4.05014 15 8.55496
      vertex -5.13223 -5.31336e-17 7.19806
    endloop
  endfacet
  facet normal -0.781831 1.73601e-16 0.62349
    outer loop
      vertex -5.13223 -5.31336e-17 7.19806
      vertex -4.05014 15 8.55496
      vertex -5.13223 15 7.19806
    endloop
  endfacet
  facet normal -0.915773 5.60731e-17 0.401696
    outer loop
      vertex -11.023 3.0756e-16 12.2817
      vertex -11.023 30 12.2817
      vertex -11.8164 3.5614e-16 10.4729
    endloop
  endfacet
  facet normal -0.915773 5.60731e-17 0.401696
    outer loop
      vertex -11.8164 3.5614e-16 10.4729
      vertex -11.023 30 12.2817
      vertex -11.8164 30 10.4729
    endloop
  endfacet
  facet normal -0.735724 4.50486e-17 0.677282
    outer loop
      vertex -9.68528 2.25651e-16 13.7348
      vertex -9.68528 30 13.7348
      vertex -11.023 3.0756e-16 12.2817
    endloop
  endfacet
  facet normal -0.735724 4.50486e-17 0.677282
    outer loop
      vertex -11.023 3.0756e-16 12.2817
      vertex -9.68528 30 13.7348
      vertex -11.023 30 12.2817
    endloop
  endfacet
  facet normal -0.475947 2.91424e-17 0.879474
    outer loop
      vertex -9.68528 2.25651e-16 13.7348
      vertex -7.9482 1.19289e-16 14.6749
      vertex -7.9482 30 14.6749
    endloop
  endfacet
  facet normal -0.475947 2.91424e-17 0.879474
    outer loop
      vertex -9.68528 30 13.7348
      vertex -9.68528 2.25651e-16 13.7348
      vertex -7.9482 30 14.6749
    endloop
  endfacet
  facet normal -0.164595 1.00782e-17 0.986361
    outer loop
      vertex -7.9482 1.19289e-16 14.6749
      vertex -6 0 15
      vertex -6 30 15
    endloop
  endfacet
  facet normal -0.164595 1.00782e-17 0.986361
    outer loop
      vertex -7.9482 30 14.6749
      vertex -7.9482 1.19289e-16 14.6749
      vertex -6 30 15
    endloop
  endfacet
  facet normal 0.164595 -1.00782e-17 0.986361
    outer loop
      vertex -6 0 15
      vertex -4.0518 -1.19289e-16 14.6749
      vertex -4.0518 30 14.6749
    endloop
  endfacet
  facet normal 0.164595 -1.00782e-17 0.986361
    outer loop
      vertex -6 30 15
      vertex -6 0 15
      vertex -4.0518 30 14.6749
    endloop
  endfacet
  facet normal 0.475947 -2.91424e-17 0.879474
    outer loop
      vertex -4.0518 -1.19289e-16 14.6749
      vertex -2.31472 -2.25651e-16 13.7348
      vertex -2.31472 30 13.7348
    endloop
  endfacet
  facet normal 0.475947 -2.91424e-17 0.879474
    outer loop
      vertex -4.0518 30 14.6749
      vertex -4.0518 -1.19289e-16 14.6749
      vertex -2.31472 30 13.7348
    endloop
  endfacet
  facet normal 0.735724 -4.50486e-17 0.677282
    outer loop
      vertex -2.31472 -2.25651e-16 13.7348
      vertex -0.977001 -3.0756e-16 12.2817
      vertex -0.977001 30 12.2817
    endloop
  endfacet
  facet normal 0.735724 -4.50486e-17 0.677282
    outer loop
      vertex -2.31472 30 13.7348
      vertex -2.31472 -2.25651e-16 13.7348
      vertex -0.977001 30 12.2817
    endloop
  endfacet
  facet normal 0.915773 -5.60731e-17 0.401696
    outer loop
      vertex -0.977001 -3.0756e-16 12.2817
      vertex -0.183598 -3.5614e-16 10.4729
      vertex -0.183598 30 10.4729
    endloop
  endfacet
  facet normal 0.915773 -5.60731e-17 0.401696
    outer loop
      vertex -0.977001 30 12.2817
      vertex -0.977001 -3.0756e-16 12.2817
      vertex -0.183598 30 10.4729
    endloop
  endfacet
  facet normal -0.974928 2.16477e-16 -0.222521
    outer loop
      vertex -4.43634 15 10.247
      vertex -4.05014 15 8.55496
      vertex -4.43634 -9.57436e-17 10.247
    endloop
  endfacet
  facet normal -0.974928 2.16477e-16 -0.222521
    outer loop
      vertex -4.43634 -9.57436e-17 10.247
      vertex -4.05014 15 8.55496
      vertex -4.05014 -1.1939e-16 8.55496
    endloop
  endfacet
  facet normal -0.433884 9.63415e-17 -0.900969
    outer loop
      vertex -6 15 11
      vertex -4.43634 15 10.247
      vertex -6 -1.35959e-32 11
    endloop
  endfacet
  facet normal -0.433884 9.63415e-17 -0.900969
    outer loop
      vertex -6 -1.35959e-32 11
      vertex -4.43634 15 10.247
      vertex -4.43634 -9.57436e-17 10.247
    endloop
  endfacet
  facet normal 1 0 2.22045e-16
    outer loop
      vertex -2.9 22.5 6.5
      vertex -2.9 21.5706 6.27091
      vertex -2.9 21.0302 5.79216
    endloop
  endfacet
  facet normal 1 0 2.22045e-16
    outer loop
      vertex -2.9 22.5 6.5
      vertex -2.9 23.9698 5.79216
      vertex -2.9 23.4294 6.27091
    endloop
  endfacet
  facet normal -0.866025 5.3027e-17 -0.5
    outer loop
      vertex -3.82383 30 12.7308
      vertex -1.68098 30 9.01923
      vertex -3.82383 15 12.7308
    endloop
  endfacet
  facet normal -0.866025 5.3027e-17 -0.5
    outer loop
      vertex -3.82383 15 12.7308
      vertex -1.68098 30 9.01923
      vertex -1.68098 15 9.01923
    endloop
  endfacet
  facet normal 0.5 -3.06152e-17 -0.866025
    outer loop
      vertex -10.319 30 8.98077
      vertex -10.2857 30 9
      vertex -10.319 15 8.98077
    endloop
  endfacet
  facet normal 0.5 -3.06152e-17 -0.866025
    outer loop
      vertex -10.319 15 8.98077
      vertex -10.2857 30 9
      vertex -10.2857 15 9
    endloop
  endfacet
  facet normal 0.5 -3.06152e-17 0.866025
    outer loop
      vertex -10.319 15 9.01923
      vertex -10.2857 15 9
      vertex -10.2857 30 9
    endloop
  endfacet
  facet normal 0.5 -3.06152e-17 0.866025
    outer loop
      vertex -10.319 30 9.01923
      vertex -10.319 15 9.01923
      vertex -10.2857 30 9
    endloop
  endfacet
  facet normal 0.866025 -5.3027e-17 -0.5
    outer loop
      vertex -10.319 15 9.01923
      vertex -10.319 30 9.01923
      vertex -8.17617 30 12.7308
    endloop
  endfacet
  facet normal 0.866025 -5.3027e-17 -0.5
    outer loop
      vertex -8.17617 15 12.7308
      vertex -10.319 15 9.01923
      vertex -8.17617 30 12.7308
    endloop
  endfacet
  facet normal -0.5 3.06152e-17 -0.866025
    outer loop
      vertex -8.17617 30 12.7308
      vertex -8.14286 30 12.7115
      vertex -8.17617 15 12.7308
    endloop
  endfacet
  facet normal -0.5 3.06152e-17 -0.866025
    outer loop
      vertex -8.17617 15 12.7308
      vertex -8.14286 30 12.7115
      vertex -8.14286 15 12.7115
    endloop
  endfacet
  facet normal 1 -6.12303e-17 2.23113e-17
    outer loop
      vertex -8.14286 15 12.75
      vertex -8.14286 15 12.7115
      vertex -8.14286 30 12.7115
    endloop
  endfacet
  facet normal 1 -6.12303e-17 2.23113e-17
    outer loop
      vertex -8.14286 30 12.75
      vertex -8.14286 15 12.75
      vertex -8.14286 30 12.7115
    endloop
  endfacet
  facet normal 2.23113e-17 1.22297e-32 -1
    outer loop
      vertex -8.14286 30 12.75
      vertex -3.85714 30 12.75
      vertex -8.14286 15 12.75
    endloop
  endfacet
  facet normal 2.23113e-17 1.22297e-32 -1
    outer loop
      vertex -8.14286 15 12.75
      vertex -3.85714 30 12.75
      vertex -3.85714 15 12.75
    endloop
  endfacet
  facet normal -1 6.12303e-17 -2.23113e-17
    outer loop
      vertex -3.85714 30 12.75
      vertex -3.85714 30 12.7115
      vertex -3.85714 15 12.75
    endloop
  endfacet
  facet normal -1 6.12303e-17 -2.23113e-17
    outer loop
      vertex -3.85714 15 12.75
      vertex -3.85714 30 12.7115
      vertex -3.85714 15 12.7115
    endloop
  endfacet
  facet normal 0.5 -3.06152e-17 -0.866025
    outer loop
      vertex -3.85714 30 12.7115
      vertex -3.82383 30 12.7308
      vertex -3.85714 15 12.7115
    endloop
  endfacet
  facet normal 0.5 -3.06152e-17 -0.866025
    outer loop
      vertex -3.85714 15 12.7115
      vertex -3.82383 30 12.7308
      vertex -3.82383 15 12.7308
    endloop
  endfacet
endsolid OpenSCAD_Model
