solid OpenSCAD_Model
  facet normal 1 0 0
    outer loop
      vertex 5 -10 0
      vertex 5 20 0
      vertex 5 20 20
    endloop
  endfacet
  facet normal 1 0 0
    outer loop
      vertex 5 -4.7641 8.40414
      vertex 5 -10 0
      vertex 5 20 20
    endloop
  endfacet
  facet normal 1 0 0
    outer loop
      vertex 5 -4.77821 11.5714
      vertex 5 -4.75 11.5714
      vertex 5 -4.7641 11.5959
    endloop
  endfacet
  facet normal 1 0 0
    outer loop
      vertex 5 -10 20
      vertex 5 -7.5141 13.1673
      vertex 5 20 20
    endloop
  endfacet
  facet normal 1 0 0
    outer loop
      vertex 5 -10 20
      vertex 5 -10 11.7321
      vertex 5 -7.5141 13.1673
    endloop
  endfacet
  facet normal 1 0 0
    outer loop
      vertex 5 -7.5141 13.1673
      vertex 5 -7.4859 13.1673
      vertex 5 20 20
    endloop
  endfacet
  facet normal 1 0 0
    outer loop
      vertex 5 -7.5141 13.1673
      vertex 5 -7.5 13.1429
      vertex 5 -7.4859 13.1673
    endloop
  endfacet
  facet normal 1 0 0
    outer loop
      vertex 5 -4.77821 8.42857
      vertex 5 -4.7641 8.40414
      vertex 5 -4.75 8.42857
    endloop
  endfacet
  facet normal 1 0 0
    outer loop
      vertex 5 -4.7641 11.5959
      vertex 5 -4.75 11.5714
      vertex 5 20 20
    endloop
  endfacet
  facet normal 1 0 0
    outer loop
      vertex 5 -4.75 11.5714
      vertex 5 -4.75 8.42857
      vertex 5 20 20
    endloop
  endfacet
  facet normal 1 0 0
    outer loop
      vertex 5 -4.75 8.42857
      vertex 5 -4.7641 8.40414
      vertex 5 20 20
    endloop
  endfacet
  facet normal 1 0 0
    outer loop
      vertex 5 -7.5 6.85714
      vertex 5 -10 0
      vertex 5 -7.4859 6.83272
    endloop
  endfacet
  facet normal 1 0 0
    outer loop
      vertex 5 -7.5141 6.83272
      vertex 5 -10 0
      vertex 5 -7.5 6.85714
    endloop
  endfacet
  facet normal 1 0 0
    outer loop
      vertex 5 -10 8.26795
      vertex 5 -10 0
      vertex 5 -7.5141 6.83272
    endloop
  endfacet
  facet normal 1 0 0
    outer loop
      vertex 5 -7.4859 13.1673
      vertex 5 -4.7641 11.5959
      vertex 5 20 20
    endloop
  endfacet
  facet normal 1 0 0
    outer loop
      vertex 5 -4.7641 8.40414
      vertex 5 -7.4859 6.83272
      vertex 5 -10 0
    endloop
  endfacet
  facet normal 0 0 -1
    outer loop
      vertex -34.6722 38.1187 0
      vertex -33.7032 41.101 0
      vertex -35 35 0
    endloop
  endfacet
  facet normal 0 0 -1
    outer loop
      vertex -35 35 0
      vertex -33.7032 41.101 0
      vertex -32.1353 43.8168 0
    endloop
  endfacet
  facet normal 0 0 -1
    outer loop
      vertex -35 35 0
      vertex -32.1353 43.8168 0
      vertex -30.037 46.1472 0
    endloop
  endfacet
  facet normal 0 0 -1
    outer loop
      vertex -35 35 0
      vertex -30.037 46.1472 0
      vertex -27.5 47.9904 0
    endloop
  endfacet
  facet normal 0 0 -1
    outer loop
      vertex -35 35 0
      vertex -27.5 47.9904 0
      vertex -24.6353 49.2658 0
    endloop
  endfacet
  facet normal 0 0 -1
    outer loop
      vertex -35 35 0
      vertex -24.6353 49.2658 0
      vertex -21.5679 49.9178 0
    endloop
  endfacet
  facet normal 0 0 -1
    outer loop
      vertex -35 35 0
      vertex -21.5679 49.9178 0
      vertex -18.4321 49.9178 0
    endloop
  endfacet
  facet normal 0 0 -1
    outer loop
      vertex -35 35 0
      vertex -18.4321 49.9178 0
      vertex -15.3647 49.2658 0
    endloop
  endfacet
  facet normal 0 0 -1
    outer loop
      vertex -35 35 0
      vertex -15.3647 49.2658 0
      vertex -12.5 47.9904 0
    endloop
  endfacet
  facet normal 0 0 -1
    outer loop
      vertex -35 35 0
      vertex -12.5 47.9904 0
      vertex -9.96304 46.1472 0
    endloop
  endfacet
  facet normal 0 0 -1
    outer loop
      vertex -35 35 0
      vertex -9.96304 46.1472 0
      vertex -7.86475 43.8168 0
    endloop
  endfacet
  facet normal 0 0 -1
    outer loop
      vertex -18.5816 38.7401 0
      vertex -7.86475 43.8168 0
      vertex -6.29682 41.101 0
    endloop
  endfacet
  facet normal 0 0 -1
    outer loop
      vertex -17.006 32.3475 0
      vertex -6.29682 41.101 0
      vertex -0.929801 25 0
    endloop
  endfacet
  facet normal 0 0 -1
    outer loop
      vertex -0.929801 25 0
      vertex 0 25 0
      vertex 1.91342 24.6194 0
    endloop
  endfacet
  facet normal 0 0 -1
    outer loop
      vertex -0.929801 25 0
      vertex 1.91342 24.6194 0
      vertex 3.53553 23.5355 0
    endloop
  endfacet
  facet normal 0 0 -1
    outer loop
      vertex -0.929801 25 0
      vertex 3.53553 23.5355 0
      vertex -35 35 0
    endloop
  endfacet
  facet normal 0 0 -1
    outer loop
      vertex -35 35 0
      vertex 3.53553 23.5355 0
      vertex 4.6194 21.9134 0
    endloop
  endfacet
  facet normal 0 0 -1
    outer loop
      vertex -35 35 0
      vertex 4.6194 21.9134 0
      vertex 5 20 0
    endloop
  endfacet
  facet normal 0 0 -1
    outer loop
      vertex 0 0 0
      vertex 5 20 0
      vertex 5 -10 0
    endloop
  endfacet
  facet normal 0 0 -1
    outer loop
      vertex -20 0 0
      vertex -35 35 0
      vertex -20 20 0
    endloop
  endfacet
  facet normal 0 0 -1
    outer loop
      vertex 0 20 0
      vertex 5 20 0
      vertex 0 0 0
    endloop
  endfacet
  facet normal 0 0 -1
    outer loop
      vertex -1.5 0 0
      vertex 0 0 0
      vertex 5 -10 0
    endloop
  endfacet
  facet normal 0 0 -1
    outer loop
      vertex -35 35 0
      vertex 5 20 0
      vertex 0 20 0
    endloop
  endfacet
  facet normal 0 0 -1
    outer loop
      vertex -35 35 0
      vertex 0 20 0
      vertex -20 20 0
    endloop
  endfacet
  facet normal 0 0 -1
    outer loop
      vertex -25 4.31498 0
      vertex -21.9134 -14.6194 0
      vertex -23.5355 -13.5355 0
    endloop
  endfacet
  facet normal 0 0 -1
    outer loop
      vertex -18.5 -15 0
      vertex -20 0 0
      vertex -18.5 0 0
    endloop
  endfacet
  facet normal 0 0 -1
    outer loop
      vertex -25 4.31498 0
      vertex -20 -15 0
      vertex -21.9134 -14.6194 0
    endloop
  endfacet
  facet normal 0 0 -1
    outer loop
      vertex -20 0 0
      vertex -18.5 -15 0
      vertex -35 35 0
    endloop
  endfacet
  facet normal 0 0 -1
    outer loop
      vertex -25 4.31498 0
      vertex -18.5 -15 0
      vertex -20 -15 0
    endloop
  endfacet
  facet normal 0 0 -1
    outer loop
      vertex -25 -10 0
      vertex -23.5355 -13.5355 0
      vertex -24.6194 -11.9134 0
    endloop
  endfacet
  facet normal 0 0 -1
    outer loop
      vertex -35 35 0
      vertex -18.5 -15 0
      vertex -25 4.31498 0
    endloop
  endfacet
  facet normal 0 0 -1
    outer loop
      vertex -33.7032 28.8989 0
      vertex -35 35 0
      vertex -26.2032 6.39895 0
    endloop
  endfacet
  facet normal 0 0 -1
    outer loop
      vertex -35 35 0
      vertex -25 4.31498 0
      vertex -26.2032 6.39895 0
    endloop
  endfacet
  facet normal 0 0 -1
    outer loop
      vertex -24 35 0
      vertex -35 35 0
      vertex -23.5418 36.8589 0
    endloop
  endfacet
  facet normal 0 0 -1
    outer loop
      vertex -35 35 0
      vertex -33.7032 28.8989 0
      vertex -34.6722 31.8813 0
    endloop
  endfacet
  facet normal 0 0 -1
    outer loop
      vertex -18.5816 38.7401 0
      vertex -6.29682 41.101 0
      vertex -17.006 37.6525 0
    endloop
  endfacet
  facet normal 0 0 -1
    outer loop
      vertex -35 35 0
      vertex -24 35 0
      vertex -23.5418 33.1411 0
    endloop
  endfacet
  facet normal 0 0 -1
    outer loop
      vertex -35 35 0
      vertex -23.5418 33.1411 0
      vertex -22.2723 31.7081 0
    endloop
  endfacet
  facet normal 0 0 -1
    outer loop
      vertex -35 35 0
      vertex -22.2723 31.7081 0
      vertex -20.4821 31.0292 0
    endloop
  endfacet
  facet normal 0 0 -1
    outer loop
      vertex -35 35 0
      vertex -20.4821 31.0292 0
      vertex -0.929801 25 0
    endloop
  endfacet
  facet normal 0 0 -1
    outer loop
      vertex -17.006 32.3475 0
      vertex -0.929801 25 0
      vertex -18.5816 31.2599 0
    endloop
  endfacet
  facet normal 0 0 -1
    outer loop
      vertex -16.1162 34.0427 0
      vertex -6.29682 41.101 0
      vertex -17.006 32.3475 0
    endloop
  endfacet
  facet normal 0 0 -1
    outer loop
      vertex -17.006 37.6525 0
      vertex -6.29682 41.101 0
      vertex -16.1162 35.9573 0
    endloop
  endfacet
  facet normal 0 0 -1
    outer loop
      vertex -16.1162 35.9573 0
      vertex -6.29682 41.101 0
      vertex -16.1162 34.0427 0
    endloop
  endfacet
  facet normal 0 0 -1
    outer loop
      vertex -18.5816 31.2599 0
      vertex -0.929801 25 0
      vertex -20.4821 31.0292 0
    endloop
  endfacet
  facet normal 0 0 -1
    outer loop
      vertex -20.4821 38.9708 0
      vertex -7.86475 43.8168 0
      vertex -18.5816 38.7401 0
    endloop
  endfacet
  facet normal 0 0 -1
    outer loop
      vertex -23.5418 36.8589 0
      vertex -35 35 0
      vertex -22.2723 38.2919 0
    endloop
  endfacet
  facet normal 0 0 -1
    outer loop
      vertex -35 35 0
      vertex -7.86475 43.8168 0
      vertex -20.4821 38.9708 0
    endloop
  endfacet
  facet normal 0 0 -1
    outer loop
      vertex -35 35 0
      vertex -20.4821 38.9708 0
      vertex -22.2723 38.2919 0
    endloop
  endfacet
  facet normal 0 0 -1
    outer loop
      vertex -1.5 0 0
      vertex 5 -10 0
      vertex 4.6194 -11.9134 0
    endloop
  endfacet
  facet normal 0 0 -1
    outer loop
      vertex -1.5 0 0
      vertex 4.6194 -11.9134 0
      vertex 3.53553 -13.5355 0
    endloop
  endfacet
  facet normal 0 0 -1
    outer loop
      vertex -1.5 0 0
      vertex 3.53553 -13.5355 0
      vertex 1.91342 -14.6194 0
    endloop
  endfacet
  facet normal 0 0 -1
    outer loop
      vertex -1.5 0 0
      vertex 1.91342 -14.6194 0
      vertex 0 -15 0
    endloop
  endfacet
  facet normal 0 0 -1
    outer loop
      vertex -1.5 0 0
      vertex 0 -15 0
      vertex -1.5 -15 0
    endloop
  endfacet
  facet normal 0 0 -1
    outer loop
      vertex -25 4.31498 0
      vertex -23.5355 -13.5355 0
      vertex -25 -10 0
    endloop
  endfacet
  facet normal 0.980785 -0.19509 0
    outer loop
      vertex 4.6194 -11.9134 0
      vertex 5 -10 0
      vertex 5 -10 8.26795
    endloop
  endfacet
  facet normal 0.980785 -0.19509 0
    outer loop
      vertex 4.95027 -10.25 8.42857
      vertex 4.6194 -11.9134 0
      vertex 4.95308 -10.2359 8.40414
    endloop
  endfacet
  facet normal 0.980785 -0.19509 0
    outer loop
      vertex 4.95308 -10.2359 8.40414
      vertex 4.6194 -11.9134 0
      vertex 5 -10 8.26795
    endloop
  endfacet
  facet normal 0.980785 -0.19509 0
    outer loop
      vertex 4.95027 -10.25 8.42857
      vertex 4.95308 -10.2359 8.40414
      vertex 4.95588 -10.2218 8.42857
    endloop
  endfacet
  facet normal 0.980785 -0.19509 0
    outer loop
      vertex 4.95027 -10.25 11.5714
      vertex 4.6194 -11.9134 0
      vertex 4.95027 -10.25 8.42857
    endloop
  endfacet
  facet normal 0.980785 -0.19509 0
    outer loop
      vertex 5 -10 20
      vertex 4.6194 -11.9134 0
      vertex 4.95027 -10.25 11.5714
    endloop
  endfacet
  facet normal 0.980785 -0.19509 0
    outer loop
      vertex 4.95308 -10.2359 11.5959
      vertex 4.95027 -10.25 11.5714
      vertex 4.95588 -10.2218 11.5714
    endloop
  endfacet
  facet normal 0.980785 -0.19509 0
    outer loop
      vertex 5 -10 20
      vertex 4.95027 -10.25 11.5714
      vertex 4.95308 -10.2359 11.5959
    endloop
  endfacet
  facet normal 0.980785 -0.19509 0
    outer loop
      vertex 5 -10 20
      vertex 4.95308 -10.2359 11.5959
      vertex 5 -10 11.7321
    endloop
  endfacet
  facet normal 0.980785 -0.19509 0
    outer loop
      vertex 4.6194 -11.9134 20
      vertex 4.6194 -11.9134 0
      vertex 5 -10 20
    endloop
  endfacet
  facet normal 5.3027e-17 0.5 0.866025
    outer loop
      vertex 2.5 -7.5141 6.83272
      vertex 2.5 -10.2359 8.40414
      vertex 4.95308 -10.2359 8.40414
    endloop
  endfacet
  facet normal 5.3027e-17 0.5 0.866025
    outer loop
      vertex 5 -7.5141 6.83272
      vertex 2.5 -7.5141 6.83272
      vertex 5 -10 8.26795
    endloop
  endfacet
  facet normal 5.3027e-17 0.5 0.866025
    outer loop
      vertex 5 -10 8.26795
      vertex 2.5 -7.5141 6.83272
      vertex 4.95308 -10.2359 8.40414
    endloop
  endfacet
  facet normal 3.06152e-17 -0.866025 0.5
    outer loop
      vertex 2.5 -7.5141 6.83272
      vertex 5 -7.5141 6.83272
      vertex 5 -7.5 6.85714
    endloop
  endfacet
  facet normal 3.06152e-17 -0.866025 0.5
    outer loop
      vertex 2.5 -7.5 6.85714
      vertex 2.5 -7.5141 6.83272
      vertex 5 -7.5 6.85714
    endloop
  endfacet
  facet normal 3.06152e-17 0.866025 0.5
    outer loop
      vertex 2.5 -7.5 6.85714
      vertex 5 -7.5 6.85714
      vertex 2.5 -7.4859 6.83272
    endloop
  endfacet
  facet normal 3.06152e-17 0.866025 0.5
    outer loop
      vertex 2.5 -7.4859 6.83272
      vertex 5 -7.5 6.85714
      vertex 5 -7.4859 6.83272
    endloop
  endfacet
  facet normal 5.3027e-17 -0.5 0.866025
    outer loop
      vertex 2.5 -7.4859 6.83272
      vertex 5 -7.4859 6.83272
      vertex 5 -4.7641 8.40414
    endloop
  endfacet
  facet normal 5.3027e-17 -0.5 0.866025
    outer loop
      vertex 2.5 -4.7641 8.40414
      vertex 2.5 -7.4859 6.83272
      vertex 5 -4.7641 8.40414
    endloop
  endfacet
  facet normal -3.06152e-17 -0.866025 -0.5
    outer loop
      vertex 2.5 -4.7641 8.40414
      vertex 5 -4.7641 8.40414
      vertex 5 -4.77821 8.42857
    endloop
  endfacet
  facet normal -3.06152e-17 -0.866025 -0.5
    outer loop
      vertex 2.5 -4.77821 8.42857
      vertex 2.5 -4.7641 8.40414
      vertex 5 -4.77821 8.42857
    endloop
  endfacet
  facet normal 6.12303e-17 0 1
    outer loop
      vertex 2.5 -4.77821 8.42857
      vertex 5 -4.77821 8.42857
      vertex 5 -4.75 8.42857
    endloop
  endfacet
  facet normal 6.12303e-17 0 1
    outer loop
      vertex 2.5 -4.75 8.42857
      vertex 2.5 -4.77821 8.42857
      vertex 5 -4.75 8.42857
    endloop
  endfacet
  facet normal 0 -1 0
    outer loop
      vertex 2.5 -4.75 8.42857
      vertex 5 -4.75 8.42857
      vertex 5 -4.75 11.5714
    endloop
  endfacet
  facet normal 0 -1 0
    outer loop
      vertex 2.5 -4.75 11.5714
      vertex 2.5 -4.75 8.42857
      vertex 5 -4.75 11.5714
    endloop
  endfacet
  facet normal -6.12303e-17 0 -1
    outer loop
      vertex 2.5 -4.75 11.5714
      vertex 5 -4.75 11.5714
      vertex 2.5 -4.77821 11.5714
    endloop
  endfacet
  facet normal -6.12303e-17 0 -1
    outer loop
      vertex 2.5 -4.77821 11.5714
      vertex 5 -4.75 11.5714
      vertex 5 -4.77821 11.5714
    endloop
  endfacet
  facet normal 3.06152e-17 -0.866025 0.5
    outer loop
      vertex 2.5 -4.77821 11.5714
      vertex 5 -4.77821 11.5714
      vertex 5 -4.7641 11.5959
    endloop
  endfacet
  facet normal 3.06152e-17 -0.866025 0.5
    outer loop
      vertex 2.5 -4.7641 11.5959
      vertex 2.5 -4.77821 11.5714
      vertex 5 -4.7641 11.5959
    endloop
  endfacet
  facet normal -5.3027e-17 -0.5 -0.866025
    outer loop
      vertex 5 -4.7641 11.5959
      vertex 5 -7.4859 13.1673
      vertex 2.5 -4.7641 11.5959
    endloop
  endfacet
  facet normal -5.3027e-17 -0.5 -0.866025
    outer loop
      vertex 2.5 -4.7641 11.5959
      vertex 5 -7.4859 13.1673
      vertex 2.5 -7.4859 13.1673
    endloop
  endfacet
  facet normal -3.06152e-17 0.866025 -0.5
    outer loop
      vertex 2.5 -7.4859 13.1673
      vertex 5 -7.4859 13.1673
      vertex 2.5 -7.5 13.1429
    endloop
  endfacet
  facet normal -3.06152e-17 0.866025 -0.5
    outer loop
      vertex 2.5 -7.5 13.1429
      vertex 5 -7.4859 13.1673
      vertex 5 -7.5 13.1429
    endloop
  endfacet
  facet normal -3.06152e-17 -0.866025 -0.5
    outer loop
      vertex 2.5 -7.5 13.1429
      vertex 5 -7.5 13.1429
      vertex 5 -7.5141 13.1673
    endloop
  endfacet
  facet normal -3.06152e-17 -0.866025 -0.5
    outer loop
      vertex 2.5 -7.5141 13.1673
      vertex 2.5 -7.5 13.1429
      vertex 5 -7.5141 13.1673
    endloop
  endfacet
  facet normal -5.3027e-17 0.5 -0.866025
    outer loop
      vertex 2.5 -7.5141 13.1673
      vertex 5 -7.5141 13.1673
      vertex 2.5 -10.2359 11.5959
    endloop
  endfacet
  facet normal -5.3027e-17 0.5 -0.866025
    outer loop
      vertex 2.5 -10.2359 11.5959
      vertex 5 -7.5141 13.1673
      vertex 5 -10 11.7321
    endloop
  endfacet
  facet normal -5.3027e-17 0.5 -0.866025
    outer loop
      vertex 2.5 -10.2359 11.5959
      vertex 5 -10 11.7321
      vertex 4.95308 -10.2359 11.5959
    endloop
  endfacet
  facet normal 0 0 1
    outer loop
      vertex -25 -10 20
      vertex -24.6194 -11.9134 20
      vertex -23.5355 -13.5355 20
    endloop
  endfacet
  facet normal 0 0 1
    outer loop
      vertex -20 -15 20
      vertex -25 -10 20
      vertex -21.9134 -14.6194 20
    endloop
  endfacet
  facet normal 0 0 1
    outer loop
      vertex -21.9134 -14.6194 20
      vertex -25 -10 20
      vertex -23.5355 -13.5355 20
    endloop
  endfacet
  facet normal 0 0 1
    outer loop
      vertex -18.5 -15 20
      vertex -25 -10 20
      vertex -20 -15 20
    endloop
  endfacet
  facet normal 0 0 1
    outer loop
      vertex -18.5 0 20
      vertex -25 -10 20
      vertex -18.5 -15 20
    endloop
  endfacet
  facet normal 0 0 1
    outer loop
      vertex -20 0 20
      vertex -25 -10 20
      vertex -18.5 0 20
    endloop
  endfacet
  facet normal 0 0 1
    outer loop
      vertex -20 20 20
      vertex -25 -10 20
      vertex -20 0 20
    endloop
  endfacet
  facet normal 0 0 1
    outer loop
      vertex -20 25 20
      vertex -25 -10 20
      vertex -20 20 20
    endloop
  endfacet
  facet normal 0 0 1
    outer loop
      vertex 4.6194 21.9134 20
      vertex -20 20 20
      vertex 0 20 20
    endloop
  endfacet
  facet normal 0 0 1
    outer loop
      vertex 1.91342 -14.6194 20
      vertex 0 20 20
      vertex 0 0 20
    endloop
  endfacet
  facet normal 0 0 1
    outer loop
      vertex 0 -15 20
      vertex 0 0 20
      vertex -1.5 -15 20
    endloop
  endfacet
  facet normal 0 0 1
    outer loop
      vertex 1.91342 -14.6194 20
      vertex 0 0 20
      vertex 0 -15 20
    endloop
  endfacet
  facet normal 0 0 1
    outer loop
      vertex 3.53553 -13.5355 20
      vertex 0 20 20
      vertex 1.91342 -14.6194 20
    endloop
  endfacet
  facet normal 0 0 1
    outer loop
      vertex 4.6194 -11.9134 20
      vertex 0 20 20
      vertex 3.53553 -13.5355 20
    endloop
  endfacet
  facet normal 0 0 1
    outer loop
      vertex 5 -10 20
      vertex 0 20 20
      vertex 4.6194 -11.9134 20
    endloop
  endfacet
  facet normal 0 0 1
    outer loop
      vertex 5 20 20
      vertex 0 20 20
      vertex 5 -10 20
    endloop
  endfacet
  facet normal 0 0 1
    outer loop
      vertex 4.6194 21.9134 20
      vertex 0 20 20
      vertex 5 20 20
    endloop
  endfacet
  facet normal 0 0 1
    outer loop
      vertex 3.53553 23.5355 20
      vertex -20 20 20
      vertex 4.6194 21.9134 20
    endloop
  endfacet
  facet normal 0 0 1
    outer loop
      vertex 1.91342 24.6194 20
      vertex -20 20 20
      vertex 3.53553 23.5355 20
    endloop
  endfacet
  facet normal 0 0 1
    outer loop
      vertex 0 25 20
      vertex -20 20 20
      vertex 1.91342 24.6194 20
    endloop
  endfacet
  facet normal 0 0 1
    outer loop
      vertex -20 25 20
      vertex -20 20 20
      vertex 0 25 20
    endloop
  endfacet
  facet normal 0 0 1
    outer loop
      vertex -21.9134 24.6194 20
      vertex -25 -10 20
      vertex -20 25 20
    endloop
  endfacet
  facet normal 0 0 1
    outer loop
      vertex -23.5355 23.5355 20
      vertex -25 -10 20
      vertex -21.9134 24.6194 20
    endloop
  endfacet
  facet normal 0 0 1
    outer loop
      vertex -24.6194 21.9134 20
      vertex -25 -10 20
      vertex -23.5355 23.5355 20
    endloop
  endfacet
  facet normal 0 0 1
    outer loop
      vertex -25 20 20
      vertex -25 -10 20
      vertex -24.6194 21.9134 20
    endloop
  endfacet
  facet normal 0 0 1
    outer loop
      vertex -1.5 0 20
      vertex -1.5 -15 20
      vertex 0 0 20
    endloop
  endfacet
  facet normal 0.980785 0.19509 0
    outer loop
      vertex 4.6194 21.9134 0
      vertex 4.6194 21.9134 20
      vertex 5 20 20
    endloop
  endfacet
  facet normal 0.980785 0.19509 0
    outer loop
      vertex 5 20 0
      vertex 4.6194 21.9134 0
      vertex 5 20 20
    endloop
  endfacet
  facet normal -0.994522 0.104528 0
    outer loop
      vertex -35 35 5
      vertex -34.6722 38.1187 5
      vertex -35 35 0
    endloop
  endfacet
  facet normal -0.994522 0.104528 0
    outer loop
      vertex -35 35 0
      vertex -34.6722 38.1187 5
      vertex -34.6722 38.1187 0
    endloop
  endfacet
  facet normal -0.994522 -0.104528 0
    outer loop
      vertex -34.6722 31.8813 0
      vertex -34.6722 31.8813 5
      vertex -35 35 0
    endloop
  endfacet
  facet normal -0.994522 -0.104528 0
    outer loop
      vertex -35 35 0
      vertex -34.6722 31.8813 5
      vertex -35 35 5
    endloop
  endfacet
  facet normal -0.951057 -0.309017 0
    outer loop
      vertex -33.7032 28.8989 0
      vertex -33.7032 28.8989 5
      vertex -34.6722 31.8813 0
    endloop
  endfacet
  facet normal -0.951057 -0.309017 0
    outer loop
      vertex -34.6722 31.8813 0
      vertex -33.7032 28.8989 5
      vertex -34.6722 31.8813 5
    endloop
  endfacet
  facet normal -0.948683 -0.316228 0
    outer loop
      vertex -26.2032 6.39895 0
      vertex -26.2032 6.39895 5
      vertex -33.7032 28.8989 0
    endloop
  endfacet
  facet normal -0.948683 -0.316228 0
    outer loop
      vertex -33.7032 28.8989 0
      vertex -26.2032 6.39895 5
      vertex -33.7032 28.8989 5
    endloop
  endfacet
  facet normal -0.866025 -0.5 0
    outer loop
      vertex -25 4.31498 0
      vertex -25 4.31498 5
      vertex -26.2032 6.39895 0
    endloop
  endfacet
  facet normal -0.866025 -0.5 0
    outer loop
      vertex -26.2032 6.39895 0
      vertex -25 4.31498 5
      vertex -26.2032 6.39895 5
    endloop
  endfacet
  facet normal -1 0 0
    outer loop
      vertex -25 -6.03054 7.97746
      vertex -25 20 20
      vertex -25 -10 0
    endloop
  endfacet
  facet normal -1 0 0
    outer loop
      vertex -25 4.31498 5
      vertex -25 20 20
      vertex -25 20 5
    endloop
  endfacet
  facet normal -1 0 0
    outer loop
      vertex -25 -10 0
      vertex -25 20 20
      vertex -25 4.31498 5
    endloop
  endfacet
  facet normal -1 0 0
    outer loop
      vertex -25 -5.8489 8.22746
      vertex -25 20 20
      vertex -25 -6.03054 7.97746
    endloop
  endfacet
  facet normal -1 0 0
    outer loop
      vertex -25 -10 20
      vertex -25 -9.87764 10.7725
      vertex -25 -10 0
    endloop
  endfacet
  facet normal -1 0 0
    outer loop
      vertex -25 -6.03054 12.0225
      vertex -25 20 20
      vertex -25 -5.30399 11.0225
    endloop
  endfacet
  facet normal -1 0 0
    outer loop
      vertex -25 -9.87764 10.7725
      vertex -25 -9.87764 9.22746
      vertex -25 -10 0
    endloop
  endfacet
  facet normal -1 0 0
    outer loop
      vertex -25 -5.30399 11.0225
      vertex -25 20 20
      vertex -25 -5.12236 10.7725
    endloop
  endfacet
  facet normal -1 0 0
    outer loop
      vertex -25 -9.87764 9.22746
      vertex -25 -9.69601 8.97746
      vertex -25 -10 0
    endloop
  endfacet
  facet normal -1 0 0
    outer loop
      vertex -25 -9.69601 8.97746
      vertex -25 -8.96946 7.97746
      vertex -25 -10 0
    endloop
  endfacet
  facet normal -1 0 0
    outer loop
      vertex -25 -8.96946 7.97746
      vertex -25 -8.67557 7.88197
      vertex -25 -10 0
    endloop
  endfacet
  facet normal -1 0 0
    outer loop
      vertex -25 -5.12236 10.7725
      vertex -25 20 20
      vertex -25 -5.12236 9.22746
    endloop
  endfacet
  facet normal -1 0 0
    outer loop
      vertex -25 -8.67557 7.88197
      vertex -25 -7.5 7.5
      vertex -25 -10 0
    endloop
  endfacet
  facet normal -1 0 0
    outer loop
      vertex -25 -5.12236 9.22746
      vertex -25 20 20
      vertex -25 -5.8489 8.22746
    endloop
  endfacet
  facet normal -1 0 0
    outer loop
      vertex -25 -7.5 7.5
      vertex -25 -7.20611 7.59549
      vertex -25 -10 0
    endloop
  endfacet
  facet normal -1 0 0
    outer loop
      vertex -25 -7.20611 7.59549
      vertex -25 -6.03054 7.97746
      vertex -25 -10 0
    endloop
  endfacet
  facet normal -1 0 0
    outer loop
      vertex -25 -10 20
      vertex -25 20 20
      vertex -25 -6.03054 12.0225
    endloop
  endfacet
  facet normal -1 0 0
    outer loop
      vertex -25 -10 20
      vertex -25 -6.03054 12.0225
      vertex -25 -6.32443 12.118
    endloop
  endfacet
  facet normal -1 0 0
    outer loop
      vertex -25 -10 20
      vertex -25 -6.32443 12.118
      vertex -25 -7.5 12.5
    endloop
  endfacet
  facet normal -1 0 0
    outer loop
      vertex -25 -10 20
      vertex -25 -7.5 12.5
      vertex -25 -7.79389 12.4045
    endloop
  endfacet
  facet normal -1 0 0
    outer loop
      vertex -25 -10 20
      vertex -25 -7.79389 12.4045
      vertex -25 -8.96946 12.0225
    endloop
  endfacet
  facet normal -1 0 0
    outer loop
      vertex -25 -10 20
      vertex -25 -8.96946 12.0225
      vertex -25 -9.1511 11.7725
    endloop
  endfacet
  facet normal -1 0 0
    outer loop
      vertex -25 -10 20
      vertex -25 -9.1511 11.7725
      vertex -25 -9.87764 10.7725
    endloop
  endfacet
  facet normal -1 0 0
    outer loop
      vertex -25 4.31498 0
      vertex -25 -10 0
      vertex -25 4.31498 5
    endloop
  endfacet
  facet normal -0.980785 -0.19509 0
    outer loop
      vertex -24.6194 -11.9134 0
      vertex -24.6194 -11.9134 20
      vertex -25 -10 0
    endloop
  endfacet
  facet normal -0.980785 -0.19509 0
    outer loop
      vertex -25 -10 0
      vertex -24.6194 -11.9134 20
      vertex -25 -10 20
    endloop
  endfacet
  facet normal -0.83147 -0.55557 0
    outer loop
      vertex -23.5355 -13.5355 0
      vertex -23.5355 -13.5355 20
      vertex -24.6194 -11.9134 0
    endloop
  endfacet
  facet normal -0.83147 -0.55557 0
    outer loop
      vertex -24.6194 -11.9134 0
      vertex -23.5355 -13.5355 20
      vertex -24.6194 -11.9134 20
    endloop
  endfacet
  facet normal -0.55557 -0.83147 0
    outer loop
      vertex -23.5355 -13.5355 0
      vertex -21.9134 -14.6194 0
      vertex -21.9134 -14.6194 20
    endloop
  endfacet
  facet normal -0.55557 -0.83147 0
    outer loop
      vertex -23.5355 -13.5355 20
      vertex -23.5355 -13.5355 0
      vertex -21.9134 -14.6194 20
    endloop
  endfacet
  facet normal -0.19509 -0.980785 0
    outer loop
      vertex -21.9134 -14.6194 0
      vertex -20 -15 0
      vertex -20 -15 20
    endloop
  endfacet
  facet normal -0.19509 -0.980785 0
    outer loop
      vertex -21.9134 -14.6194 20
      vertex -21.9134 -14.6194 0
      vertex -20 -15 20
    endloop
  endfacet
  facet normal 0 -1 0
    outer loop
      vertex -20 -15 0
      vertex -18.5 -15 0
      vertex -18.5 -15 20
    endloop
  endfacet
  facet normal 0 -1 0
    outer loop
      vertex -20 -15 20
      vertex -20 -15 0
      vertex -18.5 -15 20
    endloop
  endfacet
  facet normal 1 0 0
    outer loop
      vertex -18.5 -6.07341 9.53648
      vertex -18.5 0 0
      vertex -18.5 0 20
    endloop
  endfacet
  facet normal 1 0 0
    outer loop
      vertex -18.5 -8.38168 11.2135
      vertex -18.5 -6.61832 11.2135
      vertex -18.5 0 20
    endloop
  endfacet
  facet normal 1 0 0
    outer loop
      vertex -18.5 -6.61832 11.2135
      vertex -18.5 -6.07341 9.53648
      vertex -18.5 0 20
    endloop
  endfacet
  facet normal 1 0 0
    outer loop
      vertex -18.5 -15 20
      vertex -18.5 -15 0
      vertex -18.5 -8.92658 9.53648
    endloop
  endfacet
  facet normal 1 0 0
    outer loop
      vertex -18.5 -15 20
      vertex -18.5 -8.38168 11.2135
      vertex -18.5 0 20
    endloop
  endfacet
  facet normal 1 0 0
    outer loop
      vertex -18.5 -15 20
      vertex -18.5 -8.92658 9.53648
      vertex -18.5 -8.38168 11.2135
    endloop
  endfacet
  facet normal 1 0 0
    outer loop
      vertex -18.5 -15 0
      vertex -18.5 0 0
      vertex -18.5 -6.07341 9.53648
    endloop
  endfacet
  facet normal 1 0 0
    outer loop
      vertex -18.5 -15 0
      vertex -18.5 -6.07341 9.53648
      vertex -18.5 -7.5 8.5
    endloop
  endfacet
  facet normal 1 0 0
    outer loop
      vertex -18.5 -7.5 8.5
      vertex -18.5 -8.92658 9.53648
      vertex -18.5 -15 0
    endloop
  endfacet
  facet normal 0 1 0
    outer loop
      vertex -20 0 20
      vertex -18.5 0 20
      vertex -20 0 0
    endloop
  endfacet
  facet normal 0 1 0
    outer loop
      vertex -20 0 0
      vertex -18.5 0 20
      vertex -18.5 0 0
    endloop
  endfacet
  facet normal 1 0 0
    outer loop
      vertex -20 0 0
      vertex -20 20 0
      vertex -20 20 20
    endloop
  endfacet
  facet normal 1 0 0
    outer loop
      vertex -20 0 20
      vertex -20 0 0
      vertex -20 20 20
    endloop
  endfacet
  facet normal 0 -1 0
    outer loop
      vertex -20 20 0
      vertex 0 20 0
      vertex 0 20 20
    endloop
  endfacet
  facet normal 0 -1 0
    outer loop
      vertex -20 20 20
      vertex -20 20 0
      vertex 0 20 20
    endloop
  endfacet
  facet normal -1 0 0
    outer loop
      vertex 0 0 20
      vertex 0 20 20
      vertex 0 0 0
    endloop
  endfacet
  facet normal -1 0 0
    outer loop
      vertex 0 0 0
      vertex 0 20 20
      vertex 0 20 0
    endloop
  endfacet
  facet normal 0 1 0
    outer loop
      vertex -1.5 0 20
      vertex 0 0 20
      vertex -1.5 0 0
    endloop
  endfacet
  facet normal 0 1 0
    outer loop
      vertex -1.5 0 0
      vertex 0 0 20
      vertex 0 0 0
    endloop
  endfacet
  facet normal -1 0 0
    outer loop
      vertex -1.5 -6.07341 9.53647
      vertex -1.5 0 20
      vertex -1.5 0 0
    endloop
  endfacet
  facet normal -1 0 0
    outer loop
      vertex -1.5 -15 20
      vertex -1.5 -8.92658 9.53647
      vertex -1.5 -15 0
    endloop
  endfacet
  facet normal -1 0 0
    outer loop
      vertex -1.5 -6.61832 11.2135
      vertex -1.5 0 20
      vertex -1.5 -6.07341 9.53647
    endloop
  endfacet
  facet normal -1 0 0
    outer loop
      vertex -1.5 -15 0
      vertex -1.5 -7.5 8.5
      vertex -1.5 0 0
    endloop
  endfacet
  facet normal -1 0 0
    outer loop
      vertex -1.5 -7.5 8.5
      vertex -1.5 -6.07341 9.53647
      vertex -1.5 0 0
    endloop
  endfacet
  facet normal -1 0 0
    outer loop
      vertex -1.5 -15 20
      vertex -1.5 0 20
      vertex -1.5 -8.38168 11.2135
    endloop
  endfacet
  facet normal -1 0 0
    outer loop
      vertex -1.5 -15 20
      vertex -1.5 -8.38168 11.2135
      vertex -1.5 -8.92658 9.53647
    endloop
  endfacet
  facet normal -1 0 0
    outer loop
      vertex -1.5 -7.5 8.5
      vertex -1.5 -15 0
      vertex -1.5 -8.92658 9.53647
    endloop
  endfacet
  facet normal -1 0 0
    outer loop
      vertex -1.5 -8.38168 11.2135
      vertex -1.5 0 20
      vertex -1.5 -6.61832 11.2135
    endloop
  endfacet
  facet normal 0 -1 0
    outer loop
      vertex -1.5 -15 0
      vertex 0 -15 0
      vertex 0 -15 20
    endloop
  endfacet
  facet normal 0 -1 0
    outer loop
      vertex -1.5 -15 20
      vertex -1.5 -15 0
      vertex 0 -15 20
    endloop
  endfacet
  facet normal 0.19509 -0.980785 0
    outer loop
      vertex 0 -15 0
      vertex 1.91342 -14.6194 0
      vertex 1.91342 -14.6194 20
    endloop
  endfacet
  facet normal 0.19509 -0.980785 0
    outer loop
      vertex 0 -15 20
      vertex 0 -15 0
      vertex 1.91342 -14.6194 20
    endloop
  endfacet
  facet normal 0.55557 -0.83147 0
    outer loop
      vertex 1.91342 -14.6194 0
      vertex 3.53553 -13.5355 0
      vertex 3.53553 -13.5355 20
    endloop
  endfacet
  facet normal 0.55557 -0.83147 0
    outer loop
      vertex 1.91342 -14.6194 20
      vertex 1.91342 -14.6194 0
      vertex 3.53553 -13.5355 20
    endloop
  endfacet
  facet normal 0.83147 -0.55557 0
    outer loop
      vertex 3.53553 -13.5355 0
      vertex 4.6194 -11.9134 0
      vertex 4.6194 -11.9134 20
    endloop
  endfacet
  facet normal 0.83147 -0.55557 0
    outer loop
      vertex 3.53553 -13.5355 20
      vertex 3.53553 -13.5355 0
      vertex 4.6194 -11.9134 20
    endloop
  endfacet
  facet normal 0.83147 0.55557 0
    outer loop
      vertex 3.53553 23.5355 0
      vertex 3.53553 23.5355 20
      vertex 4.6194 21.9134 20
    endloop
  endfacet
  facet normal 0.83147 0.55557 0
    outer loop
      vertex 4.6194 21.9134 0
      vertex 3.53553 23.5355 0
      vertex 4.6194 21.9134 20
    endloop
  endfacet
  facet normal 0.55557 0.83147 0
    outer loop
      vertex 1.91342 24.6194 20
      vertex 3.53553 23.5355 20
      vertex 1.91342 24.6194 0
    endloop
  endfacet
  facet normal 0.55557 0.83147 0
    outer loop
      vertex 1.91342 24.6194 0
      vertex 3.53553 23.5355 20
      vertex 3.53553 23.5355 0
    endloop
  endfacet
  facet normal 0.19509 0.980785 0
    outer loop
      vertex 0 25 20
      vertex 1.91342 24.6194 20
      vertex 0 25 0
    endloop
  endfacet
  facet normal 0.19509 0.980785 0
    outer loop
      vertex 0 25 0
      vertex 1.91342 24.6194 20
      vertex 1.91342 24.6194 0
    endloop
  endfacet
  facet normal 0 1 0
    outer loop
      vertex -20 25 20
      vertex 0 25 20
      vertex -20 25 5
    endloop
  endfacet
  facet normal 0 1 0
    outer loop
      vertex -0.929801 25 5
      vertex 0 25 20
      vertex 0 25 0
    endloop
  endfacet
  facet normal 0 1 0
    outer loop
      vertex -20 25 5
      vertex 0 25 20
      vertex -0.929801 25 5
    endloop
  endfacet
  facet normal 0 1 0
    outer loop
      vertex -0.929801 25 5
      vertex 0 25 0
      vertex -0.929801 25 0
    endloop
  endfacet
  facet normal 0.948683 0.316228 0
    outer loop
      vertex -6.29682 41.101 0
      vertex -6.29682 41.101 5
      vertex -0.929801 25 5
    endloop
  endfacet
  facet normal 0.948683 0.316228 0
    outer loop
      vertex -0.929801 25 0
      vertex -6.29682 41.101 0
      vertex -0.929801 25 5
    endloop
  endfacet
  facet normal 0.866025 0.5 0
    outer loop
      vertex -7.86475 43.8168 0
      vertex -7.86475 43.8168 5
      vertex -6.29682 41.101 5
    endloop
  endfacet
  facet normal 0.866025 0.5 0
    outer loop
      vertex -6.29682 41.101 0
      vertex -7.86475 43.8168 0
      vertex -6.29682 41.101 5
    endloop
  endfacet
  facet normal 0.743145 0.669131 0
    outer loop
      vertex -9.96304 46.1472 0
      vertex -9.96304 46.1472 5
      vertex -7.86475 43.8168 5
    endloop
  endfacet
  facet normal 0.743145 0.669131 0
    outer loop
      vertex -7.86475 43.8168 0
      vertex -9.96304 46.1472 0
      vertex -7.86475 43.8168 5
    endloop
  endfacet
  facet normal 0.587785 0.809017 0
    outer loop
      vertex -12.5 47.9904 5
      vertex -9.96304 46.1472 5
      vertex -12.5 47.9904 0
    endloop
  endfacet
  facet normal 0.587785 0.809017 0
    outer loop
      vertex -12.5 47.9904 0
      vertex -9.96304 46.1472 5
      vertex -9.96304 46.1472 0
    endloop
  endfacet
  facet normal 0.406737 0.913545 0
    outer loop
      vertex -15.3647 49.2658 5
      vertex -12.5 47.9904 5
      vertex -15.3647 49.2658 0
    endloop
  endfacet
  facet normal 0.406737 0.913545 0
    outer loop
      vertex -15.3647 49.2658 0
      vertex -12.5 47.9904 5
      vertex -12.5 47.9904 0
    endloop
  endfacet
  facet normal 0.207911 0.978148 0
    outer loop
      vertex -18.4321 49.9178 5
      vertex -15.3647 49.2658 5
      vertex -18.4321 49.9178 0
    endloop
  endfacet
  facet normal 0.207911 0.978148 0
    outer loop
      vertex -18.4321 49.9178 0
      vertex -15.3647 49.2658 5
      vertex -15.3647 49.2658 0
    endloop
  endfacet
  facet normal 0 1 0
    outer loop
      vertex -21.5679 49.9178 5
      vertex -18.4321 49.9178 5
      vertex -21.5679 49.9178 0
    endloop
  endfacet
  facet normal 0 1 0
    outer loop
      vertex -21.5679 49.9178 0
      vertex -18.4321 49.9178 5
      vertex -18.4321 49.9178 0
    endloop
  endfacet
  facet normal -0.207911 0.978148 0
    outer loop
      vertex -24.6353 49.2658 5
      vertex -21.5679 49.9178 5
      vertex -24.6353 49.2658 0
    endloop
  endfacet
  facet normal -0.207911 0.978148 0
    outer loop
      vertex -24.6353 49.2658 0
      vertex -21.5679 49.9178 5
      vertex -21.5679 49.9178 0
    endloop
  endfacet
  facet normal -0.406737 0.913545 0
    outer loop
      vertex -27.5 47.9904 5
      vertex -24.6353 49.2658 5
      vertex -27.5 47.9904 0
    endloop
  endfacet
  facet normal -0.406737 0.913545 0
    outer loop
      vertex -27.5 47.9904 0
      vertex -24.6353 49.2658 5
      vertex -24.6353 49.2658 0
    endloop
  endfacet
  facet normal -0.587785 0.809017 0
    outer loop
      vertex -30.037 46.1472 5
      vertex -27.5 47.9904 5
      vertex -30.037 46.1472 0
    endloop
  endfacet
  facet normal -0.587785 0.809017 0
    outer loop
      vertex -30.037 46.1472 0
      vertex -27.5 47.9904 5
      vertex -27.5 47.9904 0
    endloop
  endfacet
  facet normal -0.743145 0.669131 0
    outer loop
      vertex -32.1353 43.8168 5
      vertex -30.037 46.1472 5
      vertex -32.1353 43.8168 0
    endloop
  endfacet
  facet normal -0.743145 0.669131 0
    outer loop
      vertex -32.1353 43.8168 0
      vertex -30.037 46.1472 5
      vertex -30.037 46.1472 0
    endloop
  endfacet
  facet normal -0.866025 0.5 0
    outer loop
      vertex -33.7032 41.101 5
      vertex -32.1353 43.8168 5
      vertex -33.7032 41.101 0
    endloop
  endfacet
  facet normal -0.866025 0.5 0
    outer loop
      vertex -33.7032 41.101 0
      vertex -32.1353 43.8168 5
      vertex -32.1353 43.8168 0
    endloop
  endfacet
  facet normal -0.951057 0.309017 0
    outer loop
      vertex -34.6722 38.1187 5
      vertex -33.7032 41.101 5
      vertex -34.6722 38.1187 0
    endloop
  endfacet
  facet normal -0.951057 0.309017 0
    outer loop
      vertex -34.6722 38.1187 0
      vertex -33.7032 41.101 5
      vertex -33.7032 41.101 0
    endloop
  endfacet
  facet normal 0.970942 -0.239316 0
    outer loop
      vertex -24 35 0
      vertex -23.5418 36.8589 0
      vertex -23.5418 36.8589 5
    endloop
  endfacet
  facet normal 0.970942 -0.239316 0
    outer loop
      vertex -24 35 5
      vertex -24 35 0
      vertex -23.5418 36.8589 5
    endloop
  endfacet
  facet normal 0.970942 0.239316 0
    outer loop
      vertex -24 35 0
      vertex -24 35 5
      vertex -23.5418 33.1411 5
    endloop
  endfacet
  facet normal 0.970942 0.239316 0
    outer loop
      vertex -23.5418 33.1411 0
      vertex -24 35 0
      vertex -23.5418 33.1411 5
    endloop
  endfacet
  facet normal 0.748511 -0.663123 0
    outer loop
      vertex -23.5418 36.8589 0
      vertex -22.2723 38.2919 0
      vertex -22.2723 38.2919 5
    endloop
  endfacet
  facet normal 0.748511 -0.663123 0
    outer loop
      vertex -23.5418 36.8589 5
      vertex -23.5418 36.8589 0
      vertex -22.2723 38.2919 5
    endloop
  endfacet
  facet normal 0.354605 -0.935016 0
    outer loop
      vertex -22.2723 38.2919 0
      vertex -20.4821 38.9708 0
      vertex -20.4821 38.9708 5
    endloop
  endfacet
  facet normal 0.354605 -0.935016 0
    outer loop
      vertex -22.2723 38.2919 5
      vertex -22.2723 38.2919 0
      vertex -20.4821 38.9708 5
    endloop
  endfacet
  facet normal -0.120536 -0.992709 0
    outer loop
      vertex -20.4821 38.9708 0
      vertex -18.5816 38.7401 0
      vertex -18.5816 38.7401 5
    endloop
  endfacet
  facet normal -0.120536 -0.992709 0
    outer loop
      vertex -20.4821 38.9708 5
      vertex -20.4821 38.9708 0
      vertex -18.5816 38.7401 5
    endloop
  endfacet
  facet normal -0.568065 -0.822984 0
    outer loop
      vertex -18.5816 38.7401 0
      vertex -17.006 37.6525 0
      vertex -17.006 37.6525 5
    endloop
  endfacet
  facet normal -0.568065 -0.822984 0
    outer loop
      vertex -18.5816 38.7401 5
      vertex -18.5816 38.7401 0
      vertex -17.006 37.6525 5
    endloop
  endfacet
  facet normal -0.885456 -0.464723 0
    outer loop
      vertex -16.1162 35.9573 0
      vertex -16.1162 35.9573 5
      vertex -17.006 37.6525 0
    endloop
  endfacet
  facet normal -0.885456 -0.464723 0
    outer loop
      vertex -17.006 37.6525 0
      vertex -16.1162 35.9573 5
      vertex -17.006 37.6525 5
    endloop
  endfacet
  facet normal -1 0 0
    outer loop
      vertex -16.1162 34.0427 5
      vertex -16.1162 35.9573 5
      vertex -16.1162 34.0427 0
    endloop
  endfacet
  facet normal -1 0 0
    outer loop
      vertex -16.1162 34.0427 0
      vertex -16.1162 35.9573 5
      vertex -16.1162 35.9573 0
    endloop
  endfacet
  facet normal -0.885456 0.464723 0
    outer loop
      vertex -17.006 32.3475 5
      vertex -16.1162 34.0427 5
      vertex -17.006 32.3475 0
    endloop
  endfacet
  facet normal -0.885456 0.464723 0
    outer loop
      vertex -17.006 32.3475 0
      vertex -16.1162 34.0427 5
      vertex -16.1162 34.0427 0
    endloop
  endfacet
  facet normal -0.568065 0.822984 0
    outer loop
      vertex -18.5816 31.2599 5
      vertex -17.006 32.3475 5
      vertex -18.5816 31.2599 0
    endloop
  endfacet
  facet normal -0.568065 0.822984 0
    outer loop
      vertex -18.5816 31.2599 0
      vertex -17.006 32.3475 5
      vertex -17.006 32.3475 0
    endloop
  endfacet
  facet normal -0.120536 0.992709 0
    outer loop
      vertex -20.4821 31.0292 5
      vertex -18.5816 31.2599 5
      vertex -20.4821 31.0292 0
    endloop
  endfacet
  facet normal -0.120536 0.992709 0
    outer loop
      vertex -20.4821 31.0292 0
      vertex -18.5816 31.2599 5
      vertex -18.5816 31.2599 0
    endloop
  endfacet
  facet normal 0.354605 0.935016 0
    outer loop
      vertex -22.2723 31.7081 5
      vertex -20.4821 31.0292 5
      vertex -22.2723 31.7081 0
    endloop
  endfacet
  facet normal 0.354605 0.935016 0
    outer loop
      vertex -22.2723 31.7081 0
      vertex -20.4821 31.0292 5
      vertex -20.4821 31.0292 0
    endloop
  endfacet
  facet normal 0.748511 0.663123 0
    outer loop
      vertex -23.5418 33.1411 0
      vertex -23.5418 33.1411 5
      vertex -22.2723 31.7081 5
    endloop
  endfacet
  facet normal 0.748511 0.663123 0
    outer loop
      vertex -22.2723 31.7081 0
      vertex -23.5418 33.1411 0
      vertex -22.2723 31.7081 5
    endloop
  endfacet
  facet normal 3.06152e-17 0.866025 0.5
    outer loop
      vertex 2.5 -10.2359 11.5959
      vertex 4.95308 -10.2359 11.5959
      vertex 2.5 -10.2218 11.5714
    endloop
  endfacet
  facet normal 3.06152e-17 0.866025 0.5
    outer loop
      vertex 2.5 -10.2218 11.5714
      vertex 4.95308 -10.2359 11.5959
      vertex 4.95588 -10.2218 11.5714
    endloop
  endfacet
  facet normal -6.12303e-17 0 -1
    outer loop
      vertex 2.5 -10.2218 11.5714
      vertex 4.95588 -10.2218 11.5714
      vertex 2.5 -10.25 11.5714
    endloop
  endfacet
  facet normal -6.12303e-17 0 -1
    outer loop
      vertex 2.5 -10.25 11.5714
      vertex 4.95588 -10.2218 11.5714
      vertex 4.95027 -10.25 11.5714
    endloop
  endfacet
  facet normal 0 1 0
    outer loop
      vertex 2.5 -10.25 11.5714
      vertex 4.95027 -10.25 11.5714
      vertex 2.5 -10.25 8.42857
    endloop
  endfacet
  facet normal 0 1 0
    outer loop
      vertex 2.5 -10.25 8.42857
      vertex 4.95027 -10.25 11.5714
      vertex 4.95027 -10.25 8.42857
    endloop
  endfacet
  facet normal 6.12303e-17 0 1
    outer loop
      vertex 2.5 -10.25 8.42857
      vertex 4.95027 -10.25 8.42857
      vertex 4.95588 -10.2218 8.42857
    endloop
  endfacet
  facet normal 6.12303e-17 0 1
    outer loop
      vertex 2.5 -10.2218 8.42857
      vertex 2.5 -10.25 8.42857
      vertex 4.95588 -10.2218 8.42857
    endloop
  endfacet
  facet normal -3.06152e-17 0.866025 -0.5
    outer loop
      vertex 2.5 -10.2218 8.42857
      vertex 4.95588 -10.2218 8.42857
      vertex 2.5 -10.2359 8.40414
    endloop
  endfacet
  facet normal -3.06152e-17 0.866025 -0.5
    outer loop
      vertex 2.5 -10.2359 8.40414
      vertex 4.95588 -10.2218 8.42857
      vertex 4.95308 -10.2359 8.40414
    endloop
  endfacet
  facet normal 1 0 -6.12303e-17
    outer loop
      vertex 2.5 -4.7641 8.40414
      vertex 2.5 -7.5 6.85714
      vertex 2.5 -7.4859 6.83272
    endloop
  endfacet
  facet normal 1 0 -6.12303e-17
    outer loop
      vertex 2.5 -4.77821 8.42857
      vertex 2.5 -7.5 6.85714
      vertex 2.5 -4.7641 8.40414
    endloop
  endfacet
  facet normal 1 0 -6.12303e-17
    outer loop
      vertex 2.5 -4.75 11.5714
      vertex 2.5 -7.5 6.85714
      vertex 2.5 -4.77821 8.42857
    endloop
  endfacet
  facet normal 1 0 -6.12303e-17
    outer loop
      vertex 2.5 -4.75 11.5714
      vertex 2.5 -4.77821 8.42857
      vertex 2.5 -4.75 8.42857
    endloop
  endfacet
  facet normal 1 0 -6.12303e-17
    outer loop
      vertex 2.5 -4.77821 11.5714
      vertex 2.5 -7.5 6.85714
      vertex 2.5 -4.75 11.5714
    endloop
  endfacet
  facet normal 1 0 -6.12303e-17
    outer loop
      vertex 2.5 -6.07341 9.53647
      vertex 2.5 -7.5 6.85714
      vertex 2.5 -4.77821 11.5714
    endloop
  endfacet
  facet normal 1 0 -6.12303e-17
    outer loop
      vertex 2.5 -7.4859 13.1673
      vertex 2.5 -4.77821 11.5714
      vertex 2.5 -4.7641 11.5959
    endloop
  endfacet
  facet normal 1 0 -6.12303e-17
    outer loop
      vertex 2.5 -8.38168 11.2135
      vertex 2.5 -7.5 13.1429
      vertex 2.5 -7.5141 13.1673
    endloop
  endfacet
  facet normal 1 0 -6.12303e-17
    outer loop
      vertex 2.5 -10.2359 11.5959
      vertex 2.5 -10.2218 11.5714
      vertex 2.5 -7.5141 13.1673
    endloop
  endfacet
  facet normal 1 0 -6.12303e-17
    outer loop
      vertex 2.5 -10.2218 8.42857
      vertex 2.5 -10.2359 8.40414
      vertex 2.5 -7.5141 6.83272
    endloop
  endfacet
  facet normal 1 0 -6.12303e-17
    outer loop
      vertex 2.5 -10.2218 8.42857
      vertex 2.5 -7.5141 6.83272
      vertex 2.5 -10.25 11.5714
    endloop
  endfacet
  facet normal 1 0 -6.12303e-17
    outer loop
      vertex 2.5 -10.25 8.42857
      vertex 2.5 -10.2218 8.42857
      vertex 2.5 -10.25 11.5714
    endloop
  endfacet
  facet normal 1 0 -6.12303e-17
    outer loop
      vertex 2.5 -8.38168 11.2135
      vertex 2.5 -7.4859 13.1673
      vertex 2.5 -7.5 13.1429
    endloop
  endfacet
  facet normal 1 0 -6.12303e-17
    outer loop
      vertex 2.5 -7.5141 6.83272
      vertex 2.5 -7.5 6.85714
      vertex 2.5 -7.5 8.5
    endloop
  endfacet
  facet normal 1 0 -6.12303e-17
    outer loop
      vertex 2.5 -10.2218 11.5714
      vertex 2.5 -7.5141 6.83272
      vertex 2.5 -8.92658 9.53647
    endloop
  endfacet
  facet normal 1 0 -6.12303e-17
    outer loop
      vertex 2.5 -10.2218 11.5714
      vertex 2.5 -8.38168 11.2135
      vertex 2.5 -7.5141 13.1673
    endloop
  endfacet
  facet normal 1 0 -6.12303e-17
    outer loop
      vertex 2.5 -10.2218 11.5714
      vertex 2.5 -8.92658 9.53647
      vertex 2.5 -8.38168 11.2135
    endloop
  endfacet
  facet normal 1 0 -6.12303e-17
    outer loop
      vertex 2.5 -7.4859 13.1673
      vertex 2.5 -6.61832 11.2135
      vertex 2.5 -4.77821 11.5714
    endloop
  endfacet
  facet normal 1 0 -6.12303e-17
    outer loop
      vertex 2.5 -6.61832 11.2135
      vertex 2.5 -6.07341 9.53647
      vertex 2.5 -4.77821 11.5714
    endloop
  endfacet
  facet normal 1 0 -6.12303e-17
    outer loop
      vertex 2.5 -10.2218 11.5714
      vertex 2.5 -10.25 11.5714
      vertex 2.5 -7.5141 6.83272
    endloop
  endfacet
  facet normal 1 0 -6.12303e-17
    outer loop
      vertex 2.5 -6.07341 9.53647
      vertex 2.5 -7.5 8.5
      vertex 2.5 -7.5 6.85714
    endloop
  endfacet
  facet normal 1 0 -6.12303e-17
    outer loop
      vertex 2.5 -7.5 8.5
      vertex 2.5 -8.92658 9.53647
      vertex 2.5 -7.5141 6.83272
    endloop
  endfacet
  facet normal 1 0 -6.12303e-17
    outer loop
      vertex 2.5 -8.38168 11.2135
      vertex 2.5 -6.61832 11.2135
      vertex 2.5 -7.4859 13.1673
    endloop
  endfacet
  facet normal -0.980785 0.19509 0
    outer loop
      vertex -25 20 20
      vertex -24.6194 21.9134 20
      vertex -25 20 5
    endloop
  endfacet
  facet normal -0.980785 0.19509 0
    outer loop
      vertex -25 20 5
      vertex -24.6194 21.9134 20
      vertex -24.6194 21.9134 5
    endloop
  endfacet
  facet normal -0.83147 0.55557 0
    outer loop
      vertex -24.6194 21.9134 20
      vertex -23.5355 23.5355 20
      vertex -24.6194 21.9134 5
    endloop
  endfacet
  facet normal -0.83147 0.55557 0
    outer loop
      vertex -24.6194 21.9134 5
      vertex -23.5355 23.5355 20
      vertex -23.5355 23.5355 5
    endloop
  endfacet
  facet normal -0.55557 0.83147 0
    outer loop
      vertex -23.5355 23.5355 20
      vertex -21.9134 24.6194 20
      vertex -23.5355 23.5355 5
    endloop
  endfacet
  facet normal -0.55557 0.83147 0
    outer loop
      vertex -23.5355 23.5355 5
      vertex -21.9134 24.6194 20
      vertex -21.9134 24.6194 5
    endloop
  endfacet
  facet normal -0.19509 0.980785 0
    outer loop
      vertex -21.9134 24.6194 20
      vertex -20 25 20
      vertex -21.9134 24.6194 5
    endloop
  endfacet
  facet normal -0.19509 0.980785 0
    outer loop
      vertex -21.9134 24.6194 5
      vertex -20 25 20
      vertex -20 25 5
    endloop
  endfacet
  facet normal 0 0 1
    outer loop
      vertex -35 35 5
      vertex -34.6722 31.8813 5
      vertex -33.7032 28.8989 5
    endloop
  endfacet
  facet normal 0 0 1
    outer loop
      vertex -25 4.31498 5
      vertex -35 35 5
      vertex -26.2032 6.39895 5
    endloop
  endfacet
  facet normal 0 0 1
    outer loop
      vertex -26.2032 6.39895 5
      vertex -35 35 5
      vertex -33.7032 28.8989 5
    endloop
  endfacet
  facet normal 0 0 1
    outer loop
      vertex -25 20 5
      vertex -35 35 5
      vertex -25 4.31498 5
    endloop
  endfacet
  facet normal 0 0 1
    outer loop
      vertex -24.6194 21.9134 5
      vertex -35 35 5
      vertex -25 20 5
    endloop
  endfacet
  facet normal 0 0 1
    outer loop
      vertex -23.5355 23.5355 5
      vertex -35 35 5
      vertex -24.6194 21.9134 5
    endloop
  endfacet
  facet normal 0 0 1
    outer loop
      vertex -21.9134 24.6194 5
      vertex -35 35 5
      vertex -23.5355 23.5355 5
    endloop
  endfacet
  facet normal 0 0 1
    outer loop
      vertex -20 25 5
      vertex -35 35 5
      vertex -21.9134 24.6194 5
    endloop
  endfacet
  facet normal 0 0 1
    outer loop
      vertex -0.929801 25 5
      vertex -35 35 5
      vertex -20 25 5
    endloop
  endfacet
  facet normal 0 0 1
    outer loop
      vertex -20.4821 31.0292 5
      vertex -35 35 5
      vertex -0.929801 25 5
    endloop
  endfacet
  facet normal 0 0 1
    outer loop
      vertex -20.4821 38.9708 5
      vertex -18.5816 38.7401 5
      vertex -6.29682 41.101 5
    endloop
  endfacet
  facet normal 0 0 1
    outer loop
      vertex -9.96304 46.1472 5
      vertex -35 35 5
      vertex -7.86475 43.8168 5
    endloop
  endfacet
  facet normal 0 0 1
    outer loop
      vertex -12.5 47.9904 5
      vertex -35 35 5
      vertex -9.96304 46.1472 5
    endloop
  endfacet
  facet normal 0 0 1
    outer loop
      vertex -15.3647 49.2658 5
      vertex -35 35 5
      vertex -12.5 47.9904 5
    endloop
  endfacet
  facet normal 0 0 1
    outer loop
      vertex -18.4321 49.9178 5
      vertex -35 35 5
      vertex -15.3647 49.2658 5
    endloop
  endfacet
  facet normal 0 0 1
    outer loop
      vertex -21.5679 49.9178 5
      vertex -35 35 5
      vertex -18.4321 49.9178 5
    endloop
  endfacet
  facet normal 0 0 1
    outer loop
      vertex -24.6353 49.2658 5
      vertex -35 35 5
      vertex -21.5679 49.9178 5
    endloop
  endfacet
  facet normal 0 0 1
    outer loop
      vertex -27.5 47.9904 5
      vertex -35 35 5
      vertex -24.6353 49.2658 5
    endloop
  endfacet
  facet normal 0 0 1
    outer loop
      vertex -30.037 46.1472 5
      vertex -35 35 5
      vertex -27.5 47.9904 5
    endloop
  endfacet
  facet normal 0 0 1
    outer loop
      vertex -32.1353 43.8168 5
      vertex -35 35 5
      vertex -30.037 46.1472 5
    endloop
  endfacet
  facet normal 0 0 1
    outer loop
      vertex -33.7032 41.101 5
      vertex -35 35 5
      vertex -32.1353 43.8168 5
    endloop
  endfacet
  facet normal 0 0 1
    outer loop
      vertex -34.6722 38.1187 5
      vertex -35 35 5
      vertex -33.7032 41.101 5
    endloop
  endfacet
  facet normal 0 0 1
    outer loop
      vertex -22.2723 31.7081 5
      vertex -23.5418 33.1411 5
      vertex -35 35 5
    endloop
  endfacet
  facet normal 0 0 1
    outer loop
      vertex -23.5418 36.8589 5
      vertex -35 35 5
      vertex -24 35 5
    endloop
  endfacet
  facet normal 0 0 1
    outer loop
      vertex -18.5816 38.7401 5
      vertex -17.006 37.6525 5
      vertex -6.29682 41.101 5
    endloop
  endfacet
  facet normal 0 0 1
    outer loop
      vertex -7.86475 43.8168 5
      vertex -35 35 5
      vertex -22.2723 38.2919 5
    endloop
  endfacet
  facet normal 0 0 1
    outer loop
      vertex -7.86475 43.8168 5
      vertex -20.4821 38.9708 5
      vertex -6.29682 41.101 5
    endloop
  endfacet
  facet normal 0 0 1
    outer loop
      vertex -7.86475 43.8168 5
      vertex -22.2723 38.2919 5
      vertex -20.4821 38.9708 5
    endloop
  endfacet
  facet normal 0 0 1
    outer loop
      vertex -17.006 32.3475 5
      vertex -18.5816 31.2599 5
      vertex -0.929801 25 5
    endloop
  endfacet
  facet normal 0 0 1
    outer loop
      vertex -6.29682 41.101 5
      vertex -16.1162 35.9573 5
      vertex -0.929801 25 5
    endloop
  endfacet
  facet normal 0 0 1
    outer loop
      vertex -16.1162 35.9573 5
      vertex -16.1162 34.0427 5
      vertex -0.929801 25 5
    endloop
  endfacet
  facet normal 0 0 1
    outer loop
      vertex -16.1162 34.0427 5
      vertex -17.006 32.3475 5
      vertex -0.929801 25 5
    endloop
  endfacet
  facet normal 0 0 1
    outer loop
      vertex -18.5816 31.2599 5
      vertex -20.4821 31.0292 5
      vertex -0.929801 25 5
    endloop
  endfacet
  facet normal 0 0 1
    outer loop
      vertex -22.2723 31.7081 5
      vertex -35 35 5
      vertex -20.4821 31.0292 5
    endloop
  endfacet
  facet normal 0 0 1
    outer loop
      vertex -24 35 5
      vertex -35 35 5
      vertex -23.5418 33.1411 5
    endloop
  endfacet
  facet normal 0 0 1
    outer loop
      vertex -17.006 37.6525 5
      vertex -16.1162 35.9573 5
      vertex -6.29682 41.101 5
    endloop
  endfacet
  facet normal 0 0 1
    outer loop
      vertex -23.5418 36.8589 5
      vertex -22.2723 38.2919 5
      vertex -35 35 5
    endloop
  endfacet
  facet normal -0.429446 0.903093 2.62951e-17
    outer loop
      vertex -23 -8.92658 10.4635
      vertex -23 -8.92658 9.53648
      vertex -25 -9.87764 10.7725
    endloop
  endfacet
  facet normal -0.429446 0.903093 2.62951e-17
    outer loop
      vertex -25 -9.87764 10.7725
      vertex -23 -8.92658 9.53648
      vertex -23 -8.92658 9.53647
    endloop
  endfacet
  facet normal -0.429446 0.903093 2.62951e-17
    outer loop
      vertex -25 -9.87764 10.7725
      vertex -23 -8.92658 9.53647
      vertex -25 -9.87764 9.22746
    endloop
  endfacet
  facet normal -0.429446 0.730617 -0.530825
    outer loop
      vertex -25 -9.87764 10.7725
      vertex -25 -9.1511 11.7725
      vertex -23 -8.92658 10.4635
    endloop
  endfacet
  facet normal -0.429446 0.730617 -0.530825
    outer loop
      vertex -25 -8.96946 12.0225
      vertex -23 -8.38168 11.2135
      vertex -25 -9.1511 11.7725
    endloop
  endfacet
  facet normal -0.429446 0.730617 -0.530825
    outer loop
      vertex -25 -9.1511 11.7725
      vertex -23 -8.38168 11.2135
      vertex -23 -8.92658 10.4635
    endloop
  endfacet
  facet normal -0.429446 0.279071 -0.858892
    outer loop
      vertex -25 -7.79389 12.4045
      vertex -23 -8.38168 11.2135
      vertex -25 -8.96946 12.0225
    endloop
  endfacet
  facet normal -0.429446 0.279071 -0.858892
    outer loop
      vertex -25 -7.5 12.5
      vertex -23 -7.5 11.5
      vertex -25 -7.79389 12.4045
    endloop
  endfacet
  facet normal -0.429446 0.279071 -0.858892
    outer loop
      vertex -25 -7.79389 12.4045
      vertex -23 -7.5 11.5
      vertex -23 -8.38168 11.2135
    endloop
  endfacet
  facet normal -0.429446 -0.279071 -0.858892
    outer loop
      vertex -25 -7.5 12.5
      vertex -25 -6.32443 12.118
      vertex -23 -7.5 11.5
    endloop
  endfacet
  facet normal -0.429446 -0.279071 -0.858892
    outer loop
      vertex -25 -6.03054 12.0225
      vertex -23 -6.61832 11.2135
      vertex -25 -6.32443 12.118
    endloop
  endfacet
  facet normal -0.429446 -0.279071 -0.858892
    outer loop
      vertex -25 -6.32443 12.118
      vertex -23 -6.61832 11.2135
      vertex -23 -7.5 11.5
    endloop
  endfacet
  facet normal -0.429446 -0.730617 -0.530825
    outer loop
      vertex -25 -6.03054 12.0225
      vertex -25 -5.30399 11.0225
      vertex -23 -6.61832 11.2135
    endloop
  endfacet
  facet normal -0.429446 -0.730617 -0.530825
    outer loop
      vertex -25 -5.30399 11.0225
      vertex -25 -5.12236 10.7725
      vertex -23 -6.07341 10.4635
    endloop
  endfacet
  facet normal -0.429446 -0.730617 -0.530825
    outer loop
      vertex -23 -6.61832 11.2135
      vertex -25 -5.30399 11.0225
      vertex -23 -6.07341 10.4635
    endloop
  endfacet
  facet normal -0.429446 -0.903093 2.62951e-17
    outer loop
      vertex -25 -5.12236 9.22746
      vertex -23 -6.07341 9.53647
      vertex -23 -6.07341 9.53648
    endloop
  endfacet
  facet normal -0.429446 -0.903093 2.62951e-17
    outer loop
      vertex -25 -5.12236 10.7725
      vertex -25 -5.12236 9.22746
      vertex -23 -6.07341 10.4635
    endloop
  endfacet
  facet normal -0.429446 -0.903093 2.62951e-17
    outer loop
      vertex -23 -6.07341 10.4635
      vertex -25 -5.12236 9.22746
      vertex -23 -6.07341 9.53648
    endloop
  endfacet
  facet normal -0.429446 -0.730617 0.530825
    outer loop
      vertex -25 -5.8489 8.22746
      vertex -23 -6.07341 9.53647
      vertex -25 -5.12236 9.22746
    endloop
  endfacet
  facet normal -0.429446 -0.730617 0.530825
    outer loop
      vertex -25 -6.03054 7.97746
      vertex -23 -6.61832 8.78647
      vertex -23 -6.07341 9.53647
    endloop
  endfacet
  facet normal -0.429446 -0.730617 0.530825
    outer loop
      vertex -25 -5.8489 8.22746
      vertex -25 -6.03054 7.97746
      vertex -23 -6.07341 9.53647
    endloop
  endfacet
  facet normal -0.429446 -0.279071 0.858892
    outer loop
      vertex -25 -7.20611 7.59549
      vertex -23 -6.61832 8.78647
      vertex -25 -6.03054 7.97746
    endloop
  endfacet
  facet normal -0.429446 -0.279071 0.858892
    outer loop
      vertex -25 -7.5 7.5
      vertex -23 -7.5 8.5
      vertex -23 -6.61832 8.78647
    endloop
  endfacet
  facet normal -0.429446 -0.279071 0.858892
    outer loop
      vertex -25 -7.20611 7.59549
      vertex -25 -7.5 7.5
      vertex -23 -6.61832 8.78647
    endloop
  endfacet
  facet normal -0.429446 0.279071 0.858892
    outer loop
      vertex -25 -8.67557 7.88197
      vertex -23 -7.5 8.5
      vertex -25 -7.5 7.5
    endloop
  endfacet
  facet normal -0.429446 0.279071 0.858892
    outer loop
      vertex -25 -8.96946 7.97746
      vertex -23 -8.38168 8.78647
      vertex -23 -7.5 8.5
    endloop
  endfacet
  facet normal -0.429446 0.279071 0.858892
    outer loop
      vertex -25 -8.67557 7.88197
      vertex -25 -8.96946 7.97746
      vertex -23 -7.5 8.5
    endloop
  endfacet
  facet normal -0.429446 0.730617 0.530825
    outer loop
      vertex -25 -9.69601 8.97746
      vertex -23 -8.38168 8.78647
      vertex -25 -8.96946 7.97746
    endloop
  endfacet
  facet normal -0.429446 0.730617 0.530825
    outer loop
      vertex -23 -8.92658 9.53647
      vertex -23 -8.38168 8.78647
      vertex -25 -9.87764 9.22746
    endloop
  endfacet
  facet normal -0.429446 0.730617 0.530825
    outer loop
      vertex -25 -9.87764 9.22746
      vertex -23 -8.38168 8.78647
      vertex -25 -9.69601 8.97746
    endloop
  endfacet
  facet normal -1.89212e-17 0.951056 -0.309017
    outer loop
      vertex -18.5 -8.38168 11.2135
      vertex -18.5 -8.92658 9.53648
      vertex -23 -8.38168 11.2135
    endloop
  endfacet
  facet normal -1.89212e-17 0.951056 -0.309017
    outer loop
      vertex -23 -8.38168 11.2135
      vertex -18.5 -8.92658 9.53648
      vertex -23 -8.92658 9.53648
    endloop
  endfacet
  facet normal 4.95364e-17 0.587785 0.809017
    outer loop
      vertex -23 -7.5 8.5
      vertex -23 -8.92658 9.53648
      vertex -18.5 -8.92658 9.53648
    endloop
  endfacet
  facet normal 4.95364e-17 0.587785 0.809017
    outer loop
      vertex -18.5 -7.5 8.5
      vertex -23 -7.5 8.5
      vertex -18.5 -8.92658 9.53648
    endloop
  endfacet
  facet normal 4.95364e-17 -0.587785 0.809017
    outer loop
      vertex -23 -7.5 8.5
      vertex -18.5 -7.5 8.5
      vertex -18.5 -6.07341 9.53648
    endloop
  endfacet
  facet normal 4.95364e-17 -0.587785 0.809017
    outer loop
      vertex -23 -6.07341 9.53648
      vertex -23 -7.5 8.5
      vertex -18.5 -6.07341 9.53648
    endloop
  endfacet
  facet normal -1.89212e-17 -0.951056 -0.309017
    outer loop
      vertex -23 -6.07341 9.53648
      vertex -18.5 -6.07341 9.53648
      vertex -23 -6.61832 11.2135
    endloop
  endfacet
  facet normal -1.89212e-17 -0.951056 -0.309017
    outer loop
      vertex -18.5 -6.07341 9.53648
      vertex -18.5 -6.61832 11.2135
      vertex -23 -6.61832 11.2135
    endloop
  endfacet
  facet normal -6.12303e-17 0 -1
    outer loop
      vertex -18.5 -6.61832 11.2135
      vertex -23 -8.38168 11.2135
      vertex -23 -6.61832 11.2135
    endloop
  endfacet
  facet normal -6.12303e-17 0 -1
    outer loop
      vertex -23 -8.38168 11.2135
      vertex -18.5 -6.61832 11.2135
      vertex -18.5 -8.38168 11.2135
    endloop
  endfacet
  facet normal -1.89212e-17 0.951056 -0.309017
    outer loop
      vertex -1.5 -8.38168 11.2135
      vertex 2.5 -8.38168 11.2135
      vertex -1.5 -8.92658 9.53647
    endloop
  endfacet
  facet normal -1.89212e-17 0.951056 -0.309017
    outer loop
      vertex -1.5 -8.92658 9.53647
      vertex 2.5 -8.38168 11.2135
      vertex 2.5 -8.92658 9.53647
    endloop
  endfacet
  facet normal 4.95364e-17 0.587785 0.809017
    outer loop
      vertex -1.5 -8.92658 9.53647
      vertex 2.5 -8.92658 9.53647
      vertex 2.5 -7.5 8.5
    endloop
  endfacet
  facet normal 4.95364e-17 0.587785 0.809017
    outer loop
      vertex -1.5 -7.5 8.5
      vertex -1.5 -8.92658 9.53647
      vertex 2.5 -7.5 8.5
    endloop
  endfacet
  facet normal -6.12303e-17 0 -1
    outer loop
      vertex -1.5 -6.61832 11.2135
      vertex 2.5 -6.61832 11.2135
      vertex -1.5 -8.38168 11.2135
    endloop
  endfacet
  facet normal -6.12303e-17 0 -1
    outer loop
      vertex -1.5 -8.38168 11.2135
      vertex 2.5 -6.61832 11.2135
      vertex 2.5 -8.38168 11.2135
    endloop
  endfacet
  facet normal -1.89212e-17 -0.951056 -0.309017
    outer loop
      vertex -1.5 -6.61832 11.2135
      vertex -1.5 -6.07341 9.53647
      vertex 2.5 -6.07341 9.53647
    endloop
  endfacet
  facet normal -1.89212e-17 -0.951056 -0.309017
    outer loop
      vertex 2.5 -6.61832 11.2135
      vertex -1.5 -6.61832 11.2135
      vertex 2.5 -6.07341 9.53647
    endloop
  endfacet
  facet normal 4.95364e-17 -0.587785 0.809017
    outer loop
      vertex -1.5 -7.5 8.5
      vertex 2.5 -7.5 8.5
      vertex 2.5 -6.07341 9.53647
    endloop
  endfacet
  facet normal 4.95364e-17 -0.587785 0.809017
    outer loop
      vertex -1.5 -6.07341 9.53647
      vertex -1.5 -7.5 8.5
      vertex 2.5 -6.07341 9.53647
    endloop
  endfacet
  facet normal -1 0 6.12303e-17
    outer loop
      vertex -23 -8.38168 8.78647
      vertex -23 -8.92658 9.53647
      vertex -23 -7.5 8.5
    endloop
  endfacet
  facet normal -1 0 6.12303e-17
    outer loop
      vertex -23 -7.5 8.5
      vertex -23 -8.92658 9.53647
      vertex -23 -8.92658 9.53648
    endloop
  endfacet
  facet normal -1 0 6.12303e-17
    outer loop
      vertex -23 -7.5 8.5
      vertex -23 -6.07341 9.53648
      vertex -23 -6.07341 9.53647
    endloop
  endfacet
  facet normal -1 0 6.12303e-17
    outer loop
      vertex -23 -7.5 8.5
      vertex -23 -6.07341 9.53647
      vertex -23 -6.61832 8.78647
    endloop
  endfacet
  facet normal -1 0 6.12303e-17
    outer loop
      vertex -23 -8.92658 9.53648
      vertex -23 -8.92658 10.4635
      vertex -23 -8.38168 11.2135
    endloop
  endfacet
  facet normal -1 0 6.12303e-17
    outer loop
      vertex -23 -8.38168 11.2135
      vertex -23 -7.5 11.5
      vertex -23 -6.61832 11.2135
    endloop
  endfacet
  facet normal -1 0 6.12303e-17
    outer loop
      vertex -23 -6.07341 9.53648
      vertex -23 -6.61832 11.2135
      vertex -23 -6.07341 10.4635
    endloop
  endfacet
endsolid OpenSCAD_Model
